<?xml version="1.0" standalone="no"?><!DOCTYPE svg PUBLIC "-//W3C//DTD SVG 1.1//EN" "http://www.w3.org/Graphics/SVG/1.1/DTD/svg11.dtd"><svg height="1024" node-id="1" sillyvg="true" template-height="1024" template-width="1024" version="1.1" viewBox="0 0 1024 1024" width="1024" xmlns="http://www.w3.org/2000/svg" xmlns:xlink="http://www.w3.org/1999/xlink"><defs node-id="244"><linearGradient gradientUnits="userSpaceOnUse" id="SVGID_1_" node-id="11" spreadMethod="pad" x1="512.68" x2="512.68" y1="-50.22" y2="-286.38"><stop offset="0.2885" stop-color="#ffffff" stop-opacity="0"></stop><stop offset="0.3617" stop-color="#fffcf6" stop-opacity="0.1029"></stop><stop offset="0.4789" stop-color="#fef2df" stop-opacity="0.2676"></stop><stop offset="0.6255" stop-color="#fee3b9" stop-opacity="0.4736"></stop><stop offset="0.7956" stop-color="#fccd84" stop-opacity="0.7128"></stop><stop offset="0.9836" stop-color="#fbb241" stop-opacity="0.977"></stop><stop offset="1" stop-color="#fbb03b"></stop></linearGradient><linearGradient gradientUnits="userSpaceOnUse" id="SVGID_2_" node-id="23" spreadMethod="pad" x1="129.19" x2="129.19" y1="-168.8255" y2="-204.3555"><stop offset="0.2885" stop-color="#ffffff"></stop><stop offset="0.3617" stop-color="#fffcf6"></stop><stop offset="0.4789" stop-color="#fef2df"></stop><stop offset="0.6255" stop-color="#fee3b9"></stop><stop offset="0.7956" stop-color="#fccd84"></stop><stop offset="0.9836" stop-color="#fbb241"></stop><stop offset="1" stop-color="#fbb03b"></stop></linearGradient><linearGradient gradientUnits="userSpaceOnUse" id="SVGID_3_" node-id="35" spreadMethod="pad" x1="719.9449" x2="719.9449" y1="-140.9843" y2="-164.6633"><stop offset="0.2885" stop-color="#ffffff" stop-opacity="0"></stop><stop offset="0.3617" stop-color="#fffcf6" stop-opacity="0.1029"></stop><stop offset="0.4789" stop-color="#fef2df" stop-opacity="0.2676"></stop><stop offset="0.6255" stop-color="#fee3b9" stop-opacity="0.4736"></stop><stop offset="0.7956" stop-color="#fccd84" stop-opacity="0.7128"></stop><stop offset="0.9836" stop-color="#fbb241" stop-opacity="0.977"></stop><stop offset="1" stop-color="#fbb03b"></stop></linearGradient><linearGradient gradientUnits="userSpaceOnUse" id="SVGID_4_" node-id="44" spreadMethod="pad" x1="886.915" x2="886.915" y1="-122.7552" y2="-146.4343"><stop offset="0.2885" stop-color="#ffffff" stop-opacity="0"></stop><stop offset="0.3617" stop-color="#fffcf6" stop-opacity="0.1029"></stop><stop offset="0.4789" stop-color="#fef2df" stop-opacity="0.2676"></stop><stop offset="0.6255" stop-color="#fee3b9" stop-opacity="0.4736"></stop><stop offset="0.7956" stop-color="#fccd84" stop-opacity="0.7128"></stop><stop offset="0.9836" stop-color="#fbb241" stop-opacity="0.977"></stop><stop offset="1" stop-color="#fbb03b"></stop></linearGradient><linearGradient gradientUnits="userSpaceOnUse" id="SVGID_5_" node-id="55" spreadMethod="pad" x1="898.71" x2="898.71" y1="-603.45" y2="-741.51"><stop offset="0.2273" stop-color="#ffffff" stop-opacity="0"></stop><stop offset="1" stop-color="#f7931e"></stop></linearGradient><linearGradient gradientUnits="userSpaceOnUse" id="SVGID_6_" node-id="59" spreadMethod="pad" x1="866.71" x2="866.71" y1="-581.3" y2="-719.36"><stop offset="0.2273" stop-color="#ffffff" stop-opacity="0"></stop><stop offset="1" stop-color="#f7931e"></stop></linearGradient><linearGradient gradientUnits="userSpaceOnUse" id="SVGID_7_" node-id="63" spreadMethod="pad" x1="186.44" x2="186.44" y1="-602.752" y2="-848.312"><stop offset="0.2273" stop-color="#ffffff" stop-opacity="0"></stop><stop offset="0.2456" stop-color="#fffbf7" stop-opacity="0.0236"></stop><stop offset="0.4037" stop-color="#fcdcb6" stop-opacity="0.2283"></stop><stop offset="0.5543" stop-color="#fac280" stop-opacity="0.4232"></stop><stop offset="0.6933" stop-color="#f9ae55" stop-opacity="0.6031"></stop><stop offset="0.8183" stop-color="#f89f37" stop-opacity="0.7648"></stop><stop offset="0.9247" stop-color="#f79625" stop-opacity="0.9026"></stop><stop offset="1" stop-color="#f7931e"></stop></linearGradient><linearGradient gradientUnits="userSpaceOnUse" id="SVGID_8_" node-id="223" spreadMethod="pad" x1="213.25" x2="213.25" y1="-602.71" y2="-753.11"><stop offset="0.2006" stop-color="#ffffff" stop-opacity="0"></stop><stop offset="0.319" stop-color="#fde9d2" stop-opacity="0.1481"></stop><stop offset="0.5" stop-color="#fbcb92" stop-opacity="0.3745"></stop><stop offset="0.6651" stop-color="#f9b360" stop-opacity="0.5811"></stop><stop offset="0.8088" stop-color="#f8a13c" stop-opacity="0.7608"></stop><stop offset="0.9252" stop-color="#f79726" stop-opacity="0.9065"></stop><stop offset="1" stop-color="#f7931e"></stop></linearGradient><linearGradient gradientUnits="userSpaceOnUse" id="SVGID_9_" node-id="232" spreadMethod="pad" x1="280.69" x2="280.69" y1="-583.02" y2="-812.16"><stop offset="0.08989999" stop-color="#ffffff" stop-opacity="0"></stop><stop offset="0.1646" stop-color="#feedda" stop-opacity="0.082"></stop><stop offset="0.2779" stop-color="#fcd6a9" stop-opacity="0.2066"></stop><stop offset="0.3941" stop-color="#fac17e" stop-opacity="0.3342"></stop><stop offset="0.5111" stop-color="#f9b05b" stop-opacity="0.4628"></stop><stop offset="0.6293" stop-color="#f8a440" stop-opacity="0.5927"></stop><stop offset="0.749" stop-color="#f89a2d" stop-opacity="0.7242"></stop><stop offset="0.8712" stop-color="#f79522" stop-opacity="0.8585"></stop><stop offset="1" stop-color="#f7931e"></stop></linearGradient></defs><g node-id="815"><g node-id="838"><path d="M 498.80 781.30 L 461.00 790.00 L 420.70 665.70 L 402.40 578.20 L 385.90 472.10 L 425.20 463.10 L 454.70 566.30 L 477.70 656.10 Z" fill="#fcd4a5" fill-opacity="0.96040004" fill-rule="nonzero" group-id="1,24" node-id="381" stroke="none" target-height="326.9" target-width="112.899994" target-x="385.9" target-y="463.1"></path></g><g node-id="839"><path d="M 372.80 776.70 L 339.90 756.10 L 399.30 639.70 L 448.30 564.90 L 511.70 478.20 L 545.80 499.60 L 493.70 593.40 L 446.50 673.20 Z" fill="#fcd4a5" fill-opacity="0.96040004" fill-rule="nonzero" group-id="1,25" node-id="386" stroke="none" target-height="298.5" target-width="205.9" target-x="339.9" target-y="478.2"></path></g><g node-id="840"><path d="M 287.00 684.30 L 278.40 646.50 L 402.60 606.20 L 490.10 587.90 L 596.30 571.40 L 605.30 610.70 L 502.10 640.20 L 412.20 663.20 Z" fill="#fcd4a5" fill-opacity="0.96040004" fill-rule="nonzero" group-id="1,26" node-id="391" stroke="none" target-height="112.89996" target-width="326.9" target-x="278.4" target-y="571.4"></path></g><g node-id="841"><path d="M 291.70 558.30 L 312.30 525.40 L 428.70 584.80 L 503.50 633.80 L 590.20 697.20 L 568.80 731.30 L 475.00 679.20 L 395.10 632.00 Z" fill="#fcd4a5" fill-opacity="0.96040004" fill-rule="nonzero" group-id="1,27" node-id="396" stroke="none" target-height="205.89996" target-width="298.5" target-x="291.7" target-y="525.4"></path></g><g node-id="842"><path d="M 552.30 626.90 C 552.30 688.15 502.65 737.80 441.40 737.80 C 380.15 737.80 330.50 688.15 330.50 626.90 C 330.50 565.65 380.15 516.00 441.40 516.00 C 502.65 516.00 552.30 565.65 552.30 626.90 Z" fill="#fcd4a5" fill-opacity="0.96040004" fill-rule="nonzero" group-id="1,28" node-id="401" stroke="none" target-height="221.79999" target-width="221.79999" target-x="330.5" target-y="516"></path></g><path d="M 533.80 626.90 C 533.80 677.93 492.43 719.30 441.40 719.30 C 390.37 719.30 349.00 677.93 349.00 626.90 C 349.00 575.87 390.37 534.50 441.40 534.50 C 492.43 534.50 533.80 575.87 533.80 626.90 Z" fill="none" group-id="1,29" node-id="406" stroke="#ffffff" stroke-linecap="butt" stroke-opacity="0.96040004" stroke-width="4.342" target-height="184.79999" target-width="184.79999" target-x="349" target-y="534.5"></path></g><path d="M 980.50 854.70 C 980.50 886.02 931.21 916.06 843.48 938.21 C 755.76 960.36 636.77 972.80 512.70 972.80 C 388.63 972.80 269.64 960.36 181.92 938.21 C 94.19 916.06 44.90 886.02 44.90 854.70 C 44.90 823.38 94.19 793.34 181.92 771.19 C 269.64 749.04 388.63 736.60 512.70 736.60 C 636.77 736.60 755.76 749.04 843.48 771.19 C 931.21 793.34 980.50 823.38 980.50 854.70 Z" fill="url(#SVGID_1_)" fill-rule="nonzero" node-id="410" stroke="none" target-height="236.20001" target-width="935.6" target-x="44.9" target-y="736.6"></path><path d="M 112.00 737.80 L 99.40 781.50 C 96.10 793.10 104.80 804.70 116.90 804.70 L 142.00 804.70 C 154.10 804.70 162.80 793.10 159.50 781.50 L 147.00 737.80 C 142.00 720.20 117.10 720.20 112.00 737.80 Z" fill="#fbb03b" fill-opacity="0.87" fill-rule="nonzero" group-id="2,30" node-id="416" stroke="none" target-height="84.5" target-width="66.700005" target-x="96.1" target-y="720.2"></path><path d="M 130.20 853.00 L 128.30 853.00 C 125.10 853.00 122.50 850.40 122.50 847.20 L 122.50 804.70 L 136.00 804.70 L 136.00 847.20 C 135.90 850.40 133.40 853.00 130.20 853.00 Z" fill="url(#SVGID_2_)" fill-opacity="0.87" fill-rule="nonzero" group-id="2,30" node-id="418" stroke="none" target-height="48.299988" target-width="13.5" target-x="122.5" target-y="804.7"></path><path d="M 704.40 793.40 L 688.80 822.20 C 682.20 834.30 691.00 849.10 704.80 849.10 L 736.00 849.10 C 749.80 849.10 758.60 834.30 752.00 822.20 L 736.40 793.40 C 729.50 780.70 711.30 780.70 704.40 793.40 Z" fill="#fbb03b" fill-opacity="0.68" fill-rule="nonzero" group-id="2,31,44" node-id="425" stroke="none" target-height="68.39996" target-width="76.39996" target-x="682.2" target-y="780.7"></path><path d="M 721.20 881.30 L 718.70 881.30 C 714.70 881.30 711.40 878.00 711.40 874.00 L 711.40 849.10 L 728.40 849.10 L 728.40 874.00 C 728.50 878.00 725.20 881.30 721.20 881.30 Z" fill="url(#SVGID_3_)" fill-opacity="0.68" fill-rule="nonzero" group-id="2,31,44" node-id="427" stroke="none" target-height="32.200012" target-width="17.099976" target-x="711.4" target-y="849.1"></path><path d="M 888.10 899.50 L 885.60 899.50 C 881.60 899.50 878.30 896.20 878.30 892.20 L 878.30 867.30 L 895.30 867.30 L 895.30 892.20 C 895.40 896.20 892.20 899.50 888.10 899.50 Z" fill="url(#SVGID_4_)" fill-opacity="0.68" fill-rule="nonzero" group-id="2,31,44" node-id="429" stroke="none" target-height="32.200012" target-width="17.100037" target-x="878.3" target-y="867.3"></path><path d="M 871.00 832.60 L 865.90 842.00 C 859.30 854.10 868.10 868.80 881.80 868.80 L 892.00 868.80 C 905.80 868.80 914.50 854.10 907.90 842.00 L 902.80 832.60 C 896.00 820.00 877.80 820.00 871.00 832.60 Z" fill="#fbb03b" fill-opacity="0.68" fill-rule="nonzero" group-id="2,31,45" node-id="434" stroke="none" target-height="48.799988" target-width="55.200012" target-x="859.3" target-y="820"></path><path d="M 915.80 350.50 C 915.80 388.61 908.14 419.50 898.70 419.50 C 889.26 419.50 881.60 388.61 881.60 350.50 C 881.60 312.39 889.26 281.50 898.70 281.50 C 908.14 281.50 915.80 312.39 915.80 350.50 Z" fill="url(#SVGID_5_)" fill-opacity="0.46" fill-rule="nonzero" group-id="3" node-id="441" stroke="none" target-height="138" target-width="34.200012" target-x="881.6" target-y="281.5"></path><path d="M 883.80 372.70 C 883.80 410.81 876.14 441.70 866.70 441.70 C 857.26 441.70 849.60 410.81 849.60 372.70 C 849.60 334.59 857.26 303.70 866.70 303.70 C 876.14 303.70 883.80 334.59 883.80 372.70 Z" fill="url(#SVGID_6_)" fill-opacity="0.46" fill-rule="nonzero" group-id="4" node-id="446" stroke="none" target-height="138" target-width="34.200012" target-x="849.6" target-y="303.7"></path><path d="M 227.90 303.60 C 227.90 371.42 209.32 426.40 186.40 426.40 C 163.48 426.40 144.90 371.42 144.90 303.60 C 144.90 235.78 163.48 180.80 186.40 180.80 C 209.32 180.80 227.90 235.78 227.90 303.60 Z" fill="url(#SVGID_7_)" fill-opacity="0.46" fill-rule="nonzero" group-id="5" node-id="451" stroke="none" target-height="245.59999" target-width="83" target-x="144.9" target-y="180.8"></path><path d="M 215.70 202.50 C 217.70 202.30 219.60 202.80 221.40 203.70 C 223.20 204.60 224.80 205.90 226.10 207.50 C 227.30 209.10 228.20 211.00 228.50 213.00 C 228.90 214.90 228.90 216.90 228.40 218.80 L 227.90 220.90 L 227.90 218.80 L 227.90 218.80 L 227.90 218.30 L 227.90 217.90 C 227.90 217.70 228.00 217.40 228.00 217.20 C 228.10 216.80 228.20 216.30 228.40 215.90 C 228.70 215.10 229.10 214.30 229.70 213.50 C 230.20 212.70 230.80 212.00 231.60 211.40 C 232.30 210.80 233.20 210.10 234.50 209.90 C 235.10 209.80 235.80 209.80 236.40 210.00 C 237.00 210.20 237.50 210.50 237.90 210.90 C 238.70 211.70 239.20 212.50 239.60 213.40 C 240.30 215.10 240.60 216.80 240.60 218.60 L 240.10 218.70 C 239.30 217.20 238.60 215.70 237.70 214.40 C 237.30 213.80 236.80 213.20 236.30 212.90 C 235.80 212.60 235.40 212.50 235.00 212.70 C 234.10 213.00 232.90 214.10 231.90 215.20 C 231.40 215.80 230.90 216.40 230.30 217.00 C 230.00 217.30 229.70 217.60 229.40 217.90 C 229.30 218.00 229.10 218.20 228.90 218.30 L 228.60 218.50 L 228.50 218.60 L 228.40 218.70 C 228.40 218.70 228.40 218.80 228.40 218.60 L 228.40 218.60 L 227.80 218.70 C 227.20 216.90 226.60 215.20 226.00 213.60 C 225.30 212.00 224.50 210.60 223.50 209.30 C 222.50 208.00 221.40 206.70 220.10 205.70 C 218.80 204.70 217.20 203.80 215.60 202.90 L 215.70 202.50 Z" fill="#ff7f0a" fill-rule="nonzero" group-id="6" node-id="456" stroke="none" target-height="18.59999" target-width="25" target-x="215.6" target-y="202.3"></path><path d="M 683.10 803.10 C 683.10 807.80 555.30 814.00 494.80 814.00 C 434.30 814.00 385.10 810.20 385.10 805.50 C 385.10 800.80 434.20 797.00 494.80 797.00 C 555.40 797.00 683.10 798.50 683.10 803.10 Z" fill="#4d4d4d" fill-opacity="0.11" fill-rule="nonzero" group-id="7" node-id="461" stroke="none" target-height="17" target-width="297.99997" target-x="385.1" target-y="797"></path><path d="M 644.40 535.90 L 630.00 539.70 L 613.00 492.30 L 604.90 458.90 L 597.20 418.20 L 612.30 414.30 L 624.80 453.60 L 634.80 488.00 Z" fill="#fcd4a5" fill-opacity="0.8624" fill-rule="nonzero" group-id="8,32" node-id="468" stroke="none" target-height="125.400024" target-width="47.200012" target-x="597.2" target-y="414.3"></path><path d="M 595.80 535.60 L 583.00 528.10 L 604.40 482.60 L 622.40 453.20 L 645.70 419.00 L 659.10 426.90 L 640.20 463.60 L 623.00 494.90 Z" fill="#fcd4a5" fill-opacity="0.8624" fill-rule="nonzero" group-id="8,33" node-id="473" stroke="none" target-height="116.599976" target-width="76.099976" target-x="583" target-y="419"></path><path d="M 561.70 501.10 L 557.90 486.60 L 605.30 469.60 L 638.80 461.50 L 679.40 453.90 L 683.30 468.90 L 644.00 481.50 L 609.70 491.50 Z" fill="#fcd4a5" fill-opacity="0.8624" fill-rule="nonzero" group-id="8,34" node-id="478" stroke="none" target-height="47.200012" target-width="125.39996" target-x="557.9" target-y="453.9"></path><path d="M 562.00 452.50 L 569.50 439.60 L 615.00 461.10 L 644.40 479.00 L 678.60 502.40 L 670.80 515.80 L 634.00 496.90 L 602.70 479.60 Z" fill="#fcd4a5" fill-opacity="0.8624" fill-rule="nonzero" group-id="8,35" node-id="483" stroke="none" target-height="76.19998" target-width="116.599976" target-x="562" target-y="439.6"></path><path d="M 663.20 477.10 C 663.20 500.68 644.08 519.80 620.50 519.80 C 596.92 519.80 577.80 500.68 577.80 477.10 C 577.80 453.52 596.92 434.40 620.50 434.40 C 644.08 434.40 663.20 453.52 663.20 477.10 Z" fill="#fcd4a5" fill-opacity="0.8624" fill-rule="nonzero" group-id="8,36" node-id="488" stroke="none" target-height="85.399994" target-width="85.400024" target-x="577.8" target-y="434.4"></path><path d="M 656.10 477.10 C 656.10 496.76 640.16 512.70 620.50 512.70 C 600.84 512.70 584.90 496.76 584.90 477.10 C 584.90 457.44 600.84 441.50 620.50 441.50 C 640.16 441.50 656.10 457.44 656.10 477.10 Z" fill="none" group-id="8,37" node-id="493" stroke="#ffffff" stroke-linecap="butt" stroke-opacity="0.8624" stroke-width="1.6723" target-height="71.20001" target-width="71.19995" target-x="584.9" target-y="441.5"></path><path d="M 634.80 774.90 L 612.00 765.30 L 637.40 685.70 L 660.60 633.40 L 691.60 572.00 L 715.40 582.00 L 692.20 646.70 L 670.60 702.00 Z" fill="#fcd4a5" fill-opacity="0.8722" fill-rule="nonzero" group-id="9,38" node-id="501" stroke="none" target-height="202.90002" target-width="103.400024" target-x="612" target-y="572"></path><path d="M 571.10 725.40 L 561.70 702.40 L 636.00 664.20 L 689.40 643.60 L 754.70 622.20 L 764.40 646.00 L 702.30 675.30 L 648.00 699.20 Z" fill="#fcd4a5" fill-opacity="0.8722" fill-rule="nonzero" group-id="9,39" node-id="506" stroke="none" target-height="103.20001" target-width="202.70001" target-x="561.7" target-y="622.2"></path><path d="M 561.00 645.40 L 570.70 622.50 L 650.30 648.00 L 702.50 671.10 L 763.90 702.20 L 753.90 726.00 L 689.20 702.80 L 634.00 681.20 Z" fill="#fcd4a5" fill-opacity="0.8722" fill-rule="nonzero" group-id="9,40" node-id="511" stroke="none" target-height="103.5" target-width="202.90002" target-x="561" target-y="622.5"></path><path d="M 610.50 581.70 L 633.50 572.30 L 671.80 646.60 L 692.30 699.90 L 713.70 765.30 L 689.90 775.00 L 660.60 712.90 L 636.70 658.50 Z" fill="#fcd4a5" fill-opacity="0.8722" fill-rule="nonzero" group-id="9,41" node-id="516" stroke="none" target-height="202.70001" target-width="103.20001" target-x="610.5" target-y="572.3"></path><path d="M 733.60 673.20 C 733.60 712.36 701.86 744.10 662.70 744.10 C 623.54 744.10 591.80 712.36 591.80 673.20 C 591.80 634.04 623.54 602.30 662.70 602.30 C 701.86 602.30 733.60 634.04 733.60 673.20 Z" fill="#fcd4a5" fill-opacity="0.8722" fill-rule="nonzero" group-id="9,42" node-id="521" stroke="none" target-height="141.79999" target-width="141.79999" target-x="591.8" target-y="602.3"></path><path d="M 721.80 673.20 C 721.80 705.84 695.34 732.30 662.70 732.30 C 630.06 732.30 603.60 705.84 603.60 673.20 C 603.60 640.56 630.06 614.10 662.70 614.10 C 695.34 614.10 721.80 640.56 721.80 673.20 Z" fill="none" group-id="9,43" node-id="526" stroke="#ffffff" stroke-linecap="butt" stroke-opacity="0.8722" stroke-width="2.778" target-height="118.20001" target-width="118.20001" target-x="603.6" target-y="614.1"></path><path d="M 573.60 502.40 L 678.00 502.40 L 678.00 774.10 L 573.60 774.10 Z" fill="#f7931e" fill-rule="nonzero" group-id="10" node-id="532" stroke="#000000" stroke-linecap="butt" stroke-width="0.7651" target-height="271.69998" target-width="104.400024" target-x="573.6" target-y="502.4"></path><path d="M 659.00 547.60 L 593.20 547.60 C 588.40 547.60 584.50 543.70 584.50 538.90 L 584.50 538.40 C 584.50 533.60 588.40 529.70 593.20 529.70 L 659.00 529.70 C 663.80 529.70 667.70 533.60 667.70 538.40 L 667.70 538.90 C 667.70 543.70 663.80 547.60 659.00 547.60 Z" fill="#552f02" fill-rule="nonzero" group-id="10" node-id="534" stroke="#000000" stroke-linecap="butt" stroke-width="0.6807" target-height="17.899963" target-width="83.20001" target-x="584.5" target-y="529.7"></path><path d="M 659.00 576.20 L 593.20 576.20 C 588.40 576.20 584.50 572.30 584.50 567.50 L 584.50 567.00 C 584.50 562.20 588.40 558.30 593.20 558.30 L 659.00 558.30 C 663.80 558.30 667.70 562.20 667.70 567.00 L 667.70 567.50 C 667.70 572.30 663.80 576.20 659.00 576.20 Z" fill="#552f02" fill-rule="nonzero" group-id="10" node-id="536" stroke="#000000" stroke-linecap="butt" stroke-width="0.6807" target-height="17.900024" target-width="83.20001" target-x="584.5" target-y="558.3"></path><path d="M 659.00 604.90 L 593.20 604.90 C 588.40 604.90 584.50 601.00 584.50 596.20 L 584.50 595.70 C 584.50 590.90 588.40 587.00 593.20 587.00 L 659.00 587.00 C 663.80 587.00 667.70 590.90 667.70 595.70 L 667.70 596.20 C 667.70 601.00 663.80 604.90 659.00 604.90 Z" fill="#552f02" fill-rule="nonzero" group-id="10" node-id="538" stroke="#000000" stroke-linecap="butt" stroke-width="0.6807" target-height="17.900024" target-width="83.20001" target-x="584.5" target-y="587"></path><path d="M 659.00 633.50 L 593.20 633.50 C 588.40 633.50 584.50 629.60 584.50 624.80 L 584.50 624.30 C 584.50 619.50 588.40 615.60 593.20 615.60 L 659.00 615.60 C 663.80 615.60 667.70 619.50 667.70 624.30 L 667.70 624.80 C 667.70 629.60 663.80 633.50 659.00 633.50 Z" fill="#552f02" fill-rule="nonzero" group-id="10" node-id="540" stroke="#000000" stroke-linecap="butt" stroke-width="0.6807" target-height="17.900024" target-width="83.20001" target-x="584.5" target-y="615.6"></path><path d="M 659.00 662.10 L 593.20 662.10 C 588.40 662.10 584.50 658.20 584.50 653.40 L 584.50 653.00 C 584.50 648.20 588.40 644.30 593.20 644.30 L 659.00 644.30 C 663.80 644.30 667.70 648.20 667.70 653.00 L 667.70 653.50 C 667.70 658.20 663.80 662.10 659.00 662.10 Z" fill="#552f02" fill-rule="nonzero" group-id="10" node-id="542" stroke="#000000" stroke-linecap="butt" stroke-width="0.6807" target-height="17.799988" target-width="83.20001" target-x="584.5" target-y="644.3"></path><path d="M 659.00 690.80 L 593.20 690.80 C 588.40 690.80 584.50 686.90 584.50 682.10 L 584.50 681.60 C 584.50 676.80 588.40 672.90 593.20 672.90 L 659.00 672.90 C 663.80 672.90 667.70 676.80 667.70 681.60 L 667.70 682.10 C 667.70 686.90 663.80 690.80 659.00 690.80 Z" fill="#552f02" fill-rule="nonzero" group-id="10" node-id="544" stroke="#000000" stroke-linecap="butt" stroke-width="0.6807" target-height="17.899963" target-width="83.20001" target-x="584.5" target-y="672.9"></path><path d="M 659.00 719.40 L 593.20 719.40 C 588.40 719.40 584.50 715.50 584.50 710.70 L 584.50 710.20 C 584.50 705.40 588.40 701.50 593.20 701.50 L 659.00 701.50 C 663.80 701.50 667.70 705.40 667.70 710.20 L 667.70 710.70 C 667.70 715.50 663.80 719.40 659.00 719.40 Z" fill="#552f02" fill-rule="nonzero" group-id="10" node-id="546" stroke="#000000" stroke-linecap="butt" stroke-width="0.6807" target-height="17.900024" target-width="83.20001" target-x="584.5" target-y="701.5"></path><path d="M 659.00 748.00 L 593.20 748.00 C 588.40 748.00 584.50 744.10 584.50 739.30 L 584.50 738.80 C 584.50 734.00 588.40 730.10 593.20 730.10 L 659.00 730.10 C 663.80 730.10 667.70 734.00 667.70 738.80 L 667.70 739.30 C 667.70 744.10 663.80 748.00 659.00 748.00 Z" fill="#552f02" fill-rule="nonzero" group-id="10" node-id="548" stroke="#000000" stroke-linecap="butt" stroke-width="0.6807" target-height="17.900024" target-width="83.20001" target-x="584.5" target-y="730.1"></path><path d="M 593.90 532.10 L 604.10 532.10 L 604.10 544.30 L 593.90 544.30 Z" fill="#ffffff" fill-rule="nonzero" group-id="10" node-id="550" stroke="#000000" stroke-linecap="butt" stroke-width="0.6807" target-height="12.200012" target-width="10.199951" target-x="593.9" target-y="532.1"></path><path d="M 593.90 561.20 L 604.10 561.20 L 604.10 573.40 L 593.90 573.40 Z" fill="#ffffff" fill-rule="nonzero" group-id="10" node-id="552" stroke="#000000" stroke-linecap="butt" stroke-width="0.6807" target-height="12.200012" target-width="10.199951" target-x="593.9" target-y="561.2"></path><path d="M 593.90 589.80 L 604.10 589.80 L 604.10 602.00 L 593.90 602.00 Z" fill="#ffffff" fill-rule="nonzero" group-id="10" node-id="554" stroke="#000000" stroke-linecap="butt" stroke-width="0.6807" target-height="12.200012" target-width="10.199951" target-x="593.9" target-y="589.8"></path><path d="M 593.90 618.50 L 604.10 618.50 L 604.10 630.70 L 593.90 630.70 Z" fill="#ffffff" fill-rule="nonzero" group-id="10" node-id="556" stroke="#000000" stroke-linecap="butt" stroke-width="0.6807" target-height="12.200012" target-width="10.199951" target-x="593.9" target-y="618.5"></path><path d="M 593.90 647.10 L 604.10 647.10 L 604.10 659.30 L 593.90 659.30 Z" fill="#ffffff" fill-rule="nonzero" group-id="10" node-id="558" stroke="#000000" stroke-linecap="butt" stroke-width="0.6807" target-height="12.200012" target-width="10.199951" target-x="593.9" target-y="647.1"></path><path d="M 593.90 675.70 L 604.10 675.70 L 604.10 687.90 L 593.90 687.90 Z" fill="#ffffff" fill-rule="nonzero" group-id="10" node-id="560" stroke="#000000" stroke-linecap="butt" stroke-width="0.6807" target-height="12.200012" target-width="10.199951" target-x="593.9" target-y="675.7"></path><path d="M 593.90 704.40 L 604.10 704.40 L 604.10 716.60 L 593.90 716.60 Z" fill="#ffffff" fill-rule="nonzero" group-id="10" node-id="562" stroke="#000000" stroke-linecap="butt" stroke-width="0.6807" target-height="12.199951" target-width="10.199951" target-x="593.9" target-y="704.4"></path><path d="M 593.90 733.00 L 604.10 733.00 L 604.10 745.20 L 593.90 745.20 Z" fill="#ffffff" fill-rule="nonzero" group-id="10" node-id="564" stroke="#000000" stroke-linecap="butt" stroke-width="0.6807" target-height="12.200012" target-width="10.199951" target-x="593.9" target-y="733"></path><path d="M 629.20 535.40 L 658.30 535.40 L 658.30 542.90" fill="none" group-id="10" node-id="566" stroke="#ffffff" stroke-linecap="butt" stroke-width="1.677" target-height="7.5" target-width="29.099976" target-x="629.2" target-y="535.4"></path><path d="M 629.20 564.70 L 658.30 564.70 L 658.30 572.20" fill="none" group-id="10" node-id="568" stroke="#ffffff" stroke-linecap="butt" stroke-width="1.677" target-height="7.5" target-width="29.099976" target-x="629.2" target-y="564.7"></path><path d="M 629.20 593.90 L 658.30 593.90 L 658.30 601.40" fill="none" group-id="10" node-id="570" stroke="#ffffff" stroke-linecap="butt" stroke-width="1.677" target-height="7.5" target-width="29.099976" target-x="629.2" target-y="593.9"></path><path d="M 629.20 623.20 L 658.30 623.20 L 658.30 630.70" fill="none" group-id="10" node-id="572" stroke="#ffffff" stroke-linecap="butt" stroke-width="1.677" target-height="7.5" target-width="29.099976" target-x="629.2" target-y="623.2"></path><path d="M 629.40 650.90 L 658.50 650.90 L 658.50 658.40" fill="none" group-id="10" node-id="574" stroke="#ffffff" stroke-linecap="butt" stroke-width="1.677" target-height="7.5" target-width="29.099976" target-x="629.4" target-y="650.9"></path><path d="M 629.20 679.10 L 658.30 679.10 L 658.30 686.60" fill="none" group-id="10" node-id="576" stroke="#ffffff" stroke-linecap="butt" stroke-width="1.677" target-height="7.5" target-width="29.099976" target-x="629.2" target-y="679.1"></path><path d="M 629.20 708.30 L 658.30 708.30 L 658.30 715.80" fill="none" group-id="10" node-id="578" stroke="#ffffff" stroke-linecap="butt" stroke-width="1.677" target-height="7.5" target-width="29.099976" target-x="629.2" target-y="708.3"></path><path d="M 629.20 737.60 L 658.30 737.60 L 658.30 745.10" fill="none" group-id="10" node-id="580" stroke="#ffffff" stroke-linecap="butt" stroke-width="1.677" target-height="7.5" target-width="29.099976" target-x="629.2" target-y="737.6"></path><path d="M 396.80 502.40 L 501.20 502.40 L 501.20 774.10 L 396.80 774.10 Z" fill="#f7931e" fill-rule="nonzero" group-id="11" node-id="585" stroke="#000000" stroke-linecap="butt" stroke-width="0.7651" target-height="271.69998" target-width="104.400024" target-x="396.8" target-y="502.4"></path><path d="M 482.30 547.60 L 416.50 547.60 C 411.70 547.60 407.80 543.70 407.80 538.90 L 407.80 538.40 C 407.80 533.60 411.70 529.70 416.50 529.70 L 482.30 529.70 C 487.10 529.70 491.00 533.60 491.00 538.40 L 491.00 538.90 C 491.00 543.70 487.10 547.60 482.30 547.60 Z" fill="#552f02" fill-rule="nonzero" group-id="11" node-id="587" stroke="#000000" stroke-linecap="butt" stroke-width="0.6807" target-height="17.899963" target-width="83.20001" target-x="407.8" target-y="529.7"></path><path d="M 482.30 576.20 L 416.50 576.20 C 411.70 576.20 407.80 572.30 407.80 567.50 L 407.80 567.00 C 407.80 562.20 411.70 558.30 416.50 558.30 L 482.30 558.30 C 487.10 558.30 491.00 562.20 491.00 567.00 L 491.00 567.50 C 491.00 572.30 487.10 576.20 482.30 576.20 Z" fill="#552f02" fill-rule="nonzero" group-id="11" node-id="589" stroke="#000000" stroke-linecap="butt" stroke-width="0.6807" target-height="17.900024" target-width="83.20001" target-x="407.8" target-y="558.3"></path><path d="M 482.30 604.90 L 416.50 604.90 C 411.70 604.90 407.80 601.00 407.80 596.20 L 407.80 595.70 C 407.80 590.90 411.70 587.00 416.50 587.00 L 482.30 587.00 C 487.10 587.00 491.00 590.90 491.00 595.70 L 491.00 596.20 C 491.00 601.00 487.10 604.90 482.30 604.90 Z" fill="#552f02" fill-rule="nonzero" group-id="11" node-id="591" stroke="#000000" stroke-linecap="butt" stroke-width="0.6807" target-height="17.900024" target-width="83.20001" target-x="407.8" target-y="587"></path><path d="M 482.30 633.50 L 416.50 633.50 C 411.70 633.50 407.80 629.60 407.80 624.80 L 407.80 624.30 C 407.80 619.50 411.70 615.60 416.50 615.60 L 482.30 615.60 C 487.10 615.60 491.00 619.50 491.00 624.30 L 491.00 624.80 C 491.00 629.60 487.10 633.50 482.30 633.50 Z" fill="#552f02" fill-rule="nonzero" group-id="11" node-id="593" stroke="#000000" stroke-linecap="butt" stroke-width="0.6807" target-height="17.900024" target-width="83.20001" target-x="407.8" target-y="615.6"></path><path d="M 482.30 662.10 L 416.50 662.10 C 411.70 662.10 407.80 658.20 407.80 653.40 L 407.80 653.00 C 407.80 648.20 411.70 644.30 416.50 644.30 L 482.30 644.30 C 487.10 644.30 491.00 648.20 491.00 653.00 L 491.00 653.50 C 491.00 658.20 487.10 662.10 482.30 662.10 Z" fill="#552f02" fill-rule="nonzero" group-id="11" node-id="595" stroke="#000000" stroke-linecap="butt" stroke-width="0.6807" target-height="17.799988" target-width="83.20001" target-x="407.8" target-y="644.3"></path><path d="M 482.30 690.80 L 416.50 690.80 C 411.70 690.80 407.80 686.90 407.80 682.10 L 407.80 681.60 C 407.80 676.80 411.70 672.90 416.50 672.90 L 482.30 672.90 C 487.10 672.90 491.00 676.80 491.00 681.60 L 491.00 682.10 C 491.00 686.90 487.10 690.80 482.30 690.80 Z" fill="#552f02" fill-rule="nonzero" group-id="11" node-id="597" stroke="#000000" stroke-linecap="butt" stroke-width="0.6807" target-height="17.899963" target-width="83.20001" target-x="407.8" target-y="672.9"></path><path d="M 482.30 719.40 L 416.50 719.40 C 411.70 719.40 407.80 715.50 407.80 710.70 L 407.80 710.20 C 407.80 705.40 411.70 701.50 416.50 701.50 L 482.30 701.50 C 487.10 701.50 491.00 705.40 491.00 710.20 L 491.00 710.70 C 491.00 715.50 487.10 719.40 482.30 719.40 Z" fill="#552f02" fill-rule="nonzero" group-id="11" node-id="599" stroke="#000000" stroke-linecap="butt" stroke-width="0.6807" target-height="17.900024" target-width="83.20001" target-x="407.8" target-y="701.5"></path><path d="M 482.30 748.00 L 416.50 748.00 C 411.70 748.00 407.80 744.10 407.80 739.30 L 407.80 738.80 C 407.80 734.00 411.70 730.10 416.50 730.10 L 482.30 730.10 C 487.10 730.10 491.00 734.00 491.00 738.80 L 491.00 739.30 C 491.00 744.10 487.10 748.00 482.30 748.00 Z" fill="#552f02" fill-rule="nonzero" group-id="11" node-id="601" stroke="#000000" stroke-linecap="butt" stroke-width="0.6807" target-height="17.900024" target-width="83.20001" target-x="407.8" target-y="730.1"></path><path d="M 417.10 532.10 L 427.20 532.10 L 427.20 544.30 L 417.10 544.30 Z" fill="#ffffff" fill-rule="nonzero" group-id="11" node-id="603" stroke="#000000" stroke-linecap="butt" stroke-width="0.6807" target-height="12.200012" target-width="10.100006" target-x="417.1" target-y="532.1"></path><path d="M 417.10 561.20 L 427.20 561.20 L 427.20 573.40 L 417.10 573.40 Z" fill="#ffffff" fill-rule="nonzero" group-id="11" node-id="605" stroke="#000000" stroke-linecap="butt" stroke-width="0.6807" target-height="12.200012" target-width="10.100006" target-x="417.1" target-y="561.2"></path><path d="M 417.10 589.80 L 427.20 589.80 L 427.20 602.00 L 417.10 602.00 Z" fill="#ffffff" fill-rule="nonzero" group-id="11" node-id="607" stroke="#000000" stroke-linecap="butt" stroke-width="0.6807" target-height="12.200012" target-width="10.100006" target-x="417.1" target-y="589.8"></path><path d="M 417.10 618.50 L 427.20 618.50 L 427.20 630.70 L 417.10 630.70 Z" fill="#ffffff" fill-rule="nonzero" group-id="11" node-id="609" stroke="#000000" stroke-linecap="butt" stroke-width="0.6807" target-height="12.200012" target-width="10.100006" target-x="417.1" target-y="618.5"></path><path d="M 417.10 647.10 L 427.20 647.10 L 427.20 659.30 L 417.10 659.30 Z" fill="#ffffff" fill-rule="nonzero" group-id="11" node-id="611" stroke="#000000" stroke-linecap="butt" stroke-width="0.6807" target-height="12.200012" target-width="10.100006" target-x="417.1" target-y="647.1"></path><path d="M 417.10 675.70 L 427.20 675.70 L 427.20 687.90 L 417.10 687.90 Z" fill="#ffffff" fill-rule="nonzero" group-id="11" node-id="613" stroke="#000000" stroke-linecap="butt" stroke-width="0.6807" target-height="12.200012" target-width="10.100006" target-x="417.1" target-y="675.7"></path><path d="M 417.10 704.40 L 427.20 704.40 L 427.20 716.60 L 417.10 716.60 Z" fill="#ffffff" fill-rule="nonzero" group-id="11" node-id="615" stroke="#000000" stroke-linecap="butt" stroke-width="0.6807" target-height="12.199951" target-width="10.100006" target-x="417.1" target-y="704.4"></path><path d="M 417.10 733.00 L 427.20 733.00 L 427.20 745.20 L 417.10 745.20 Z" fill="#ffffff" fill-rule="nonzero" group-id="11" node-id="617" stroke="#000000" stroke-linecap="butt" stroke-width="0.6807" target-height="12.200012" target-width="10.100006" target-x="417.1" target-y="733"></path><path d="M 452.40 535.40 L 481.60 535.40 L 481.60 542.90" fill="none" group-id="11" node-id="619" stroke="#ffffff" stroke-linecap="butt" stroke-width="1.677" target-height="7.5" target-width="29.200012" target-x="452.4" target-y="535.4"></path><path d="M 452.40 564.70 L 481.60 564.70 L 481.60 572.20" fill="none" group-id="11" node-id="621" stroke="#ffffff" stroke-linecap="butt" stroke-width="1.677" target-height="7.5" target-width="29.200012" target-x="452.4" target-y="564.7"></path><path d="M 452.40 593.90 L 481.60 593.90 L 481.60 601.40" fill="none" group-id="11" node-id="623" stroke="#ffffff" stroke-linecap="butt" stroke-width="1.677" target-height="7.5" target-width="29.200012" target-x="452.4" target-y="593.9"></path><path d="M 452.40 623.20 L 481.60 623.20 L 481.60 630.70" fill="none" group-id="11" node-id="625" stroke="#ffffff" stroke-linecap="butt" stroke-width="1.677" target-height="7.5" target-width="29.200012" target-x="452.4" target-y="623.2"></path><path d="M 452.60 650.90 L 481.80 650.90 L 481.80 658.40" fill="none" group-id="11" node-id="627" stroke="#ffffff" stroke-linecap="butt" stroke-width="1.677" target-height="7.5" target-width="29.199982" target-x="452.6" target-y="650.9"></path><path d="M 452.40 679.10 L 481.60 679.10 L 481.60 686.60" fill="none" group-id="11" node-id="629" stroke="#ffffff" stroke-linecap="butt" stroke-width="1.677" target-height="7.5" target-width="29.200012" target-x="452.4" target-y="679.1"></path><path d="M 452.40 708.30 L 481.60 708.30 L 481.60 715.80" fill="none" group-id="11" node-id="631" stroke="#ffffff" stroke-linecap="butt" stroke-width="1.677" target-height="7.5" target-width="29.200012" target-x="452.4" target-y="708.3"></path><path d="M 452.40 737.60 L 481.60 737.60 L 481.60 745.10" fill="none" group-id="11" node-id="633" stroke="#ffffff" stroke-linecap="butt" stroke-width="1.677" target-height="7.5" target-width="29.200012" target-x="452.4" target-y="737.6"></path><path d="M 479.50 477.00 L 593.70 477.00 L 593.70 774.10 L 479.50 774.10 Z" fill="#f7931e" fill-rule="nonzero" group-id="12" node-id="638" stroke="#000000" stroke-linecap="butt" stroke-width="0.8369" target-height="297.09998" target-width="114.20001" target-x="479.5" target-y="477"></path><path d="M 573.80 526.40 L 500.10 526.40 C 495.30 526.40 491.40 522.50 491.40 517.70 L 491.40 515.60 C 491.40 510.80 495.30 506.90 500.10 506.90 L 573.80 506.90 C 578.60 506.90 582.50 510.80 582.50 515.60 L 582.50 517.70 C 582.50 522.60 578.60 526.40 573.80 526.40 Z" fill="#552f02" fill-rule="nonzero" group-id="12" node-id="640" stroke="#000000" stroke-linecap="butt" stroke-width="0.7446" target-height="19.50003" target-width="91.100006" target-x="491.4" target-y="506.9"></path><path d="M 573.80 557.80 L 500.10 557.80 C 495.30 557.80 491.40 553.90 491.40 549.10 L 491.40 547.00 C 491.40 542.20 495.30 538.30 500.10 538.30 L 573.80 538.30 C 578.60 538.30 582.50 542.20 582.50 547.00 L 582.50 549.10 C 582.50 553.90 578.60 557.80 573.80 557.80 Z" fill="#552f02" fill-rule="nonzero" group-id="12" node-id="642" stroke="#000000" stroke-linecap="butt" stroke-width="0.7446" target-height="19.5" target-width="91.100006" target-x="491.4" target-y="538.3"></path><path d="M 573.80 589.10 L 500.10 589.10 C 495.30 589.10 491.40 585.20 491.40 580.40 L 491.40 578.30 C 491.40 573.50 495.30 569.60 500.10 569.60 L 573.80 569.60 C 578.60 569.60 582.50 573.50 582.50 578.30 L 582.50 580.40 C 582.50 585.20 578.60 589.10 573.80 589.10 Z" fill="#552f02" fill-rule="nonzero" group-id="12" node-id="644" stroke="#000000" stroke-linecap="butt" stroke-width="0.7446" target-height="19.5" target-width="91.100006" target-x="491.4" target-y="569.6"></path><path d="M 573.80 620.40 L 500.10 620.40 C 495.30 620.40 491.40 616.50 491.40 611.70 L 491.40 609.60 C 491.40 604.80 495.30 600.90 500.10 600.90 L 573.80 600.90 C 578.60 600.90 582.50 604.80 582.50 609.60 L 582.50 611.70 C 582.50 616.50 578.60 620.40 573.80 620.40 Z" fill="#552f02" fill-rule="nonzero" group-id="12" node-id="646" stroke="#000000" stroke-linecap="butt" stroke-width="0.7446" target-height="19.5" target-width="91.100006" target-x="491.4" target-y="600.9"></path><path d="M 573.80 651.70 L 500.10 651.70 C 495.30 651.70 491.40 647.80 491.40 643.00 L 491.40 640.90 C 491.40 636.10 495.30 632.20 500.10 632.20 L 573.80 632.20 C 578.60 632.20 582.50 636.10 582.50 640.90 L 582.50 643.00 C 582.50 647.80 578.60 651.70 573.80 651.70 Z" fill="#552f02" fill-rule="nonzero" group-id="12" node-id="648" stroke="#000000" stroke-linecap="butt" stroke-width="0.7446" target-height="19.5" target-width="91.100006" target-x="491.4" target-y="632.2"></path><path d="M 573.80 683.00 L 500.10 683.00 C 495.30 683.00 491.40 679.10 491.40 674.30 L 491.40 672.20 C 491.40 667.40 495.30 663.50 500.10 663.50 L 573.80 663.50 C 578.60 663.50 582.50 667.40 582.50 672.20 L 582.50 674.30 C 582.50 679.10 578.60 683.00 573.80 683.00 Z" fill="#552f02" fill-rule="nonzero" group-id="12" node-id="650" stroke="#000000" stroke-linecap="butt" stroke-width="0.7446" target-height="19.5" target-width="91.100006" target-x="491.4" target-y="663.5"></path><path d="M 573.80 714.30 L 500.10 714.30 C 495.30 714.30 491.40 710.40 491.40 705.60 L 491.40 703.50 C 491.40 698.70 495.30 694.80 500.10 694.80 L 573.80 694.80 C 578.60 694.80 582.50 698.70 582.50 703.50 L 582.50 705.60 C 582.50 710.40 578.60 714.30 573.80 714.30 Z" fill="#552f02" fill-rule="nonzero" group-id="12" node-id="652" stroke="#000000" stroke-linecap="butt" stroke-width="0.7446" target-height="19.5" target-width="91.100006" target-x="491.4" target-y="694.8"></path><path d="M 573.80 745.60 L 500.10 745.60 C 495.30 745.60 491.40 741.70 491.40 736.90 L 491.40 734.80 C 491.40 730.00 495.30 726.10 500.10 726.10 L 573.80 726.10 C 578.60 726.10 582.50 730.00 582.50 734.80 L 582.50 736.90 C 582.50 741.70 578.60 745.60 573.80 745.60 Z" fill="#552f02" fill-rule="nonzero" group-id="12" node-id="654" stroke="#000000" stroke-linecap="butt" stroke-width="0.7446" target-height="19.5" target-width="91.100006" target-x="491.4" target-y="726.1"></path><path d="M 501.80 509.50 L 512.90 509.50 L 512.90 522.80 L 501.80 522.80 Z" fill="#ffffff" fill-rule="nonzero" group-id="12" node-id="656" stroke="#000000" stroke-linecap="butt" stroke-width="0.7446" target-height="13.299988" target-width="11.100037" target-x="501.8" target-y="509.5"></path><path d="M 501.80 541.30 L 512.90 541.30 L 512.90 554.60 L 501.80 554.60 Z" fill="#ffffff" fill-rule="nonzero" group-id="12" node-id="658" stroke="#000000" stroke-linecap="butt" stroke-width="0.7446" target-height="13.299988" target-width="11.100037" target-x="501.8" target-y="541.3"></path><path d="M 501.80 572.60 L 512.90 572.60 L 512.90 585.90 L 501.80 585.90 Z" fill="#ffffff" fill-rule="nonzero" group-id="12" node-id="660" stroke="#000000" stroke-linecap="butt" stroke-width="0.7446" target-height="13.300049" target-width="11.100037" target-x="501.8" target-y="572.6"></path><path d="M 501.80 603.90 L 512.90 603.90 L 512.90 617.20 L 501.80 617.20 Z" fill="#ffffff" fill-rule="nonzero" group-id="12" node-id="662" stroke="#000000" stroke-linecap="butt" stroke-width="0.7446" target-height="13.299988" target-width="11.100037" target-x="501.8" target-y="603.9"></path><path d="M 501.80 635.30 L 512.90 635.30 L 512.90 648.60 L 501.80 648.60 Z" fill="#ffffff" fill-rule="nonzero" group-id="12" node-id="664" stroke="#000000" stroke-linecap="butt" stroke-width="0.7446" target-height="13.299988" target-width="11.100037" target-x="501.8" target-y="635.3"></path><path d="M 501.80 666.60 L 512.90 666.60 L 512.90 679.90 L 501.80 679.90 Z" fill="#ffffff" fill-rule="nonzero" group-id="12" node-id="666" stroke="#000000" stroke-linecap="butt" stroke-width="0.7446" target-height="13.300049" target-width="11.100037" target-x="501.8" target-y="666.6"></path><path d="M 501.80 697.90 L 512.90 697.90 L 512.90 711.20 L 501.80 711.20 Z" fill="#ffffff" fill-rule="nonzero" group-id="12" node-id="668" stroke="#000000" stroke-linecap="butt" stroke-width="0.7446" target-height="13.299988" target-width="11.100037" target-x="501.8" target-y="697.9"></path><path d="M 501.80 729.20 L 512.90 729.20 L 512.90 742.50 L 501.80 742.50 Z" fill="#ffffff" fill-rule="nonzero" group-id="12" node-id="670" stroke="#000000" stroke-linecap="butt" stroke-width="0.7446" target-height="13.299988" target-width="11.100037" target-x="501.8" target-y="729.2"></path><path d="M 540.40 513.10 L 572.30 513.10 L 572.30 521.30" fill="none" group-id="12" node-id="672" stroke="#ffffff" stroke-linecap="butt" stroke-width="1.8344" target-height="8.200012" target-width="31.899963" target-x="540.4" target-y="513.1"></path><path d="M 540.40 545.10 L 572.30 545.10 L 572.30 553.30" fill="none" group-id="12" node-id="674" stroke="#ffffff" stroke-linecap="butt" stroke-width="1.8344" target-height="8.200012" target-width="31.899963" target-x="540.4" target-y="545.1"></path><path d="M 540.40 577.10 L 572.30 577.10 L 572.30 585.30" fill="none" group-id="12" node-id="676" stroke="#ffffff" stroke-linecap="butt" stroke-width="1.8344" target-height="8.200012" target-width="31.899963" target-x="540.4" target-y="577.1"></path><path d="M 540.40 609.10 L 572.30 609.10 L 572.30 617.30" fill="none" group-id="12" node-id="678" stroke="#ffffff" stroke-linecap="butt" stroke-width="1.8344" target-height="8.200012" target-width="31.899963" target-x="540.4" target-y="609.1"></path><path d="M 540.60 639.40 L 572.50 639.40 L 572.50 647.60" fill="none" group-id="12" node-id="680" stroke="#ffffff" stroke-linecap="butt" stroke-width="1.8344" target-height="8.199951" target-width="31.900024" target-x="540.6" target-y="639.4"></path><path d="M 540.40 670.20 L 572.30 670.20 L 572.30 678.40" fill="none" group-id="12" node-id="682" stroke="#ffffff" stroke-linecap="butt" stroke-width="1.8344" target-height="8.200012" target-width="31.899963" target-x="540.4" target-y="670.2"></path><path d="M 540.40 702.20 L 572.30 702.20 L 572.30 710.40" fill="none" group-id="12" node-id="684" stroke="#ffffff" stroke-linecap="butt" stroke-width="1.8344" target-height="8.200012" target-width="31.899963" target-x="540.4" target-y="702.2"></path><path d="M 540.40 734.20 L 572.30 734.20 L 572.30 742.40" fill="none" group-id="12" node-id="686" stroke="#ffffff" stroke-linecap="butt" stroke-width="1.8344" target-height="8.200012" target-width="31.899963" target-x="540.4" target-y="734.2"></path><path d="M 627.00 667.00 C 627.00 666.20 627.20 665.40 627.40 664.70 C 619.50 663.70 604.20 662.00 594.10 662.30 C 584.10 662.50 569.20 664.80 561.20 666.10 C 561.20 666.40 561.30 666.70 561.30 667.10 C 561.30 670.10 559.20 672.70 556.50 673.10 L 561.30 707.60 C 561.30 722.70 580.30 745.50 594.40 745.50 C 608.50 745.50 627.30 724.50 627.30 709.40 L 631.70 673.10 C 629.10 672.50 627.00 670.00 627.00 667.00 Z" fill="#f7931e" fill-rule="nonzero" group-id="13" node-id="691" stroke="#f7efdd" stroke-linecap="butt" stroke-width="3.4432" target-height="83.5" target-width="75.20001" target-x="556.5" target-y="662"></path><path d="M 589.90 688.70 L 598.40 688.70 L 598.40 713.30 L 589.90 713.30 Z" fill="#ffffff" fill-rule="nonzero" group-id="13" node-id="693" stroke="#ffffff" stroke-linecap="butt" stroke-width="3.4432" target-height="24.599976" target-width="8.5" target-x="589.9" target-y="688.7"></path><path d="M 582.60 696.50 L 605.50 696.50 L 605.50 705.60 L 582.60 705.60 Z" fill="#ffffff" fill-rule="nonzero" group-id="13" node-id="695" stroke="#ffffff" stroke-linecap="butt" stroke-width="3.4432" target-height="9.099976" target-width="22.900024" target-x="582.6" target-y="696.5"></path><path d="M 452.60 598.30 L 363.90 598.30 C 357.90 598.30 352.90 593.30 352.90 587.30 L 352.90 494.70 C 352.90 488.70 357.90 483.70 363.90 483.70 L 452.60 483.70 C 458.60 483.70 463.60 488.70 463.60 494.70 L 463.60 587.30 C 463.60 593.40 458.60 598.30 452.60 598.30 Z" fill="#fde9b6" fill-rule="nonzero" group-id="14" node-id="700" stroke="none" target-height="114.599976" target-width="110.70001" target-x="352.9" target-y="483.7"></path><path d="M 463.60 506.80 L 352.90 506.80 L 352.90 494.70 C 352.90 488.70 357.90 483.70 363.90 483.70 L 452.60 483.70 C 458.60 483.70 463.60 488.70 463.60 494.70 L 463.60 506.80 Z" fill="#fbb03b" fill-rule="nonzero" group-id="14" node-id="702" stroke="none" target-height="23.099976" target-width="110.70001" target-x="352.9" target-y="483.7"></path><path d="M 440.20 581.60 L 371.70 581.60 C 370.40 581.60 369.40 580.60 369.40 579.30 L 369.40 577.90 C 369.40 576.60 370.40 575.60 371.70 575.60 L 440.20 575.60 C 441.50 575.60 442.50 576.60 442.50 577.90 L 442.50 579.30 C 442.50 580.50 441.50 581.60 440.20 581.60 Z" fill="#fbb03b" fill-rule="nonzero" group-id="14" node-id="704" stroke="none" target-height="6" target-width="73.100006" target-x="369.4" target-y="575.6"></path><path d="M 440.20 591.90 L 371.70 591.90 C 370.40 591.90 369.40 590.90 369.40 589.60 L 369.40 588.20 C 369.40 586.90 370.40 585.90 371.70 585.90 L 440.20 585.90 C 441.50 585.90 442.50 586.90 442.50 588.20 L 442.50 589.60 C 442.50 590.80 441.50 591.90 440.20 591.90 Z" fill="#fbb03b" fill-rule="nonzero" group-id="14" node-id="706" stroke="none" target-height="6" target-width="73.100006" target-x="369.4" target-y="585.9"></path><path d="M 372.70 577.20 L 439.30 577.20 L 439.30 579.50 L 372.70 579.50 Z" fill="#ffffff" fill-rule="nonzero" group-id="14" node-id="708" stroke="none" target-height="2.2999878" target-width="66.599976" target-x="372.7" target-y="577.2"></path><path d="M 374.90 588.80 C 374.90 589.35 374.50 589.80 374.00 589.80 C 373.50 589.80 373.10 589.35 373.10 588.80 C 373.10 588.25 373.50 587.80 374.00 587.80 C 374.50 587.80 374.90 588.25 374.90 588.80 Z" fill="#ffffff" fill-rule="nonzero" group-id="14" node-id="710" stroke="none" target-height="2" target-width="1.7999878" target-x="373.1" target-y="587.8"></path><path d="M 377.40 588.80 C 377.40 589.35 377.00 589.80 376.50 589.80 C 376.00 589.80 375.60 589.35 375.60 588.80 C 375.60 588.25 376.00 587.80 376.50 587.80 C 377.00 587.80 377.40 588.25 377.40 588.80 Z" fill="#ffffff" fill-rule="nonzero" group-id="14" node-id="712" stroke="none" target-height="2" target-width="1.7999878" target-x="375.6" target-y="587.8"></path><path d="M 379.90 588.80 C 379.90 589.35 379.50 589.80 379.00 589.80 C 378.50 589.80 378.10 589.35 378.10 588.80 C 378.10 588.25 378.50 587.80 379.00 587.80 C 379.50 587.80 379.90 588.25 379.90 588.80 Z" fill="#ffffff" fill-rule="nonzero" group-id="14" node-id="714" stroke="none" target-height="2" target-width="1.7999878" target-x="378.1" target-y="587.8"></path><path d="M 382.40 588.80 C 382.40 589.35 382.00 589.80 381.50 589.80 C 381.00 589.80 380.60 589.35 380.60 588.80 C 380.60 588.25 381.00 587.80 381.50 587.80 C 382.00 587.80 382.40 588.25 382.40 588.80 Z" fill="#ffffff" fill-rule="nonzero" group-id="14" node-id="716" stroke="none" target-height="2" target-width="1.7999878" target-x="380.6" target-y="587.8"></path><path d="M 384.90 588.80 C 384.90 589.35 384.50 589.80 384.00 589.80 C 383.50 589.80 383.10 589.35 383.10 588.80 C 383.10 588.25 383.50 587.80 384.00 587.80 C 384.50 587.80 384.90 588.25 384.90 588.80 Z" fill="#ffffff" fill-rule="nonzero" group-id="14" node-id="718" stroke="none" target-height="2" target-width="1.7999878" target-x="383.1" target-y="587.8"></path><path d="M 387.40 588.80 C 387.40 589.35 387.00 589.80 386.50 589.80 C 386.00 589.80 385.60 589.35 385.60 588.80 C 385.60 588.25 386.00 587.80 386.50 587.80 C 387.00 587.80 387.40 588.25 387.40 588.80 Z" fill="#ffffff" fill-rule="nonzero" group-id="14" node-id="720" stroke="none" target-height="2" target-width="1.7999878" target-x="385.6" target-y="587.8"></path><path d="M 389.90 588.80 C 389.90 589.35 389.50 589.80 389.00 589.80 C 388.50 589.80 388.10 589.35 388.10 588.80 C 388.10 588.25 388.50 587.80 389.00 587.80 C 389.50 587.80 389.90 588.25 389.90 588.80 Z" fill="#ffffff" fill-rule="nonzero" group-id="14" node-id="722" stroke="none" target-height="2" target-width="1.7999878" target-x="388.1" target-y="587.8"></path><path d="M 392.40 588.80 C 392.40 589.35 392.00 589.80 391.50 589.80 C 391.00 589.80 390.60 589.35 390.60 588.80 C 390.60 588.25 391.00 587.80 391.50 587.80 C 392.00 587.80 392.40 588.25 392.40 588.80 Z" fill="#ffffff" fill-rule="nonzero" group-id="14" node-id="724" stroke="none" target-height="2" target-width="1.7999878" target-x="390.6" target-y="587.8"></path><path d="M 394.90 588.80 C 394.90 589.35 394.50 589.80 394.00 589.80 C 393.50 589.80 393.10 589.35 393.10 588.80 C 393.10 588.25 393.50 587.80 394.00 587.80 C 394.50 587.80 394.90 588.25 394.90 588.80 Z" fill="#ffffff" fill-rule="nonzero" group-id="14" node-id="726" stroke="none" target-height="2" target-width="1.7999878" target-x="393.1" target-y="587.8"></path><path d="M 397.40 588.80 C 397.40 589.35 397.00 589.80 396.50 589.80 C 396.00 589.80 395.60 589.35 395.60 588.80 C 395.60 588.25 396.00 587.80 396.50 587.80 C 397.00 587.80 397.40 588.25 397.40 588.80 Z" fill="#ffffff" fill-rule="nonzero" group-id="14" node-id="728" stroke="none" target-height="2" target-width="1.7999878" target-x="395.6" target-y="587.8"></path><path d="M 399.80 588.80 C 399.80 589.35 399.40 589.80 398.90 589.80 C 398.40 589.80 398.00 589.35 398.00 588.80 C 398.00 588.25 398.40 587.80 398.90 587.80 C 399.40 587.80 399.80 588.25 399.80 588.80 Z" fill="#ffffff" fill-rule="nonzero" group-id="14" node-id="730" stroke="none" target-height="2" target-width="1.7999878" target-x="398" target-y="587.8"></path><path d="M 402.30 588.80 C 402.30 589.35 401.90 589.80 401.40 589.80 C 400.90 589.80 400.50 589.35 400.50 588.80 C 400.50 588.25 400.90 587.80 401.40 587.80 C 401.90 587.80 402.30 588.25 402.30 588.80 Z" fill="#ffffff" fill-rule="nonzero" group-id="14" node-id="732" stroke="none" target-height="2" target-width="1.7999878" target-x="400.5" target-y="587.8"></path><path d="M 404.80 588.80 C 404.80 589.35 404.40 589.80 403.90 589.80 C 403.40 589.80 403.00 589.35 403.00 588.80 C 403.00 588.25 403.40 587.80 403.90 587.80 C 404.40 587.80 404.80 588.25 404.80 588.80 Z" fill="#ffffff" fill-rule="nonzero" group-id="14" node-id="734" stroke="none" target-height="2" target-width="1.7999878" target-x="403" target-y="587.8"></path><path d="M 407.30 588.80 C 407.30 589.35 406.90 589.80 406.40 589.80 C 405.90 589.80 405.50 589.35 405.50 588.80 C 405.50 588.25 405.90 587.80 406.40 587.80 C 406.90 587.80 407.30 588.25 407.30 588.80 Z" fill="#ffffff" fill-rule="nonzero" group-id="14" node-id="736" stroke="none" target-height="2" target-width="1.7999878" target-x="405.5" target-y="587.8"></path><path d="M 409.80 588.80 C 409.80 589.35 409.40 589.80 408.90 589.80 C 408.40 589.80 408.00 589.35 408.00 588.80 C 408.00 588.25 408.40 587.80 408.90 587.80 C 409.40 587.80 409.80 588.25 409.80 588.80 Z" fill="#ffffff" fill-rule="nonzero" group-id="14" node-id="738" stroke="none" target-height="2" target-width="1.7999878" target-x="408" target-y="587.8"></path><path d="M 412.30 588.80 C 412.30 589.35 411.90 589.80 411.40 589.80 C 410.90 589.80 410.50 589.35 410.50 588.80 C 410.50 588.25 410.90 587.80 411.40 587.80 C 411.90 587.80 412.30 588.25 412.30 588.80 Z" fill="#ffffff" fill-rule="nonzero" group-id="14" node-id="740" stroke="none" target-height="2" target-width="1.7999878" target-x="410.5" target-y="587.8"></path><path d="M 414.80 588.80 C 414.80 589.35 414.40 589.80 413.90 589.80 C 413.40 589.80 413.00 589.35 413.00 588.80 C 413.00 588.25 413.40 587.80 413.90 587.80 C 414.40 587.80 414.80 588.25 414.80 588.80 Z" fill="#ffffff" fill-rule="nonzero" group-id="14" node-id="742" stroke="none" target-height="2" target-width="1.7999878" target-x="413" target-y="587.8"></path><path d="M 417.30 588.80 C 417.30 589.35 416.90 589.80 416.40 589.80 C 415.90 589.80 415.50 589.35 415.50 588.80 C 415.50 588.25 415.90 587.80 416.40 587.80 C 416.90 587.80 417.30 588.25 417.30 588.80 Z" fill="#ffffff" fill-rule="nonzero" group-id="14" node-id="744" stroke="none" target-height="2" target-width="1.7999878" target-x="415.5" target-y="587.8"></path><path d="M 419.80 588.80 C 419.80 589.35 419.40 589.80 418.90 589.80 C 418.40 589.80 418.00 589.35 418.00 588.80 C 418.00 588.25 418.40 587.80 418.90 587.80 C 419.40 587.80 419.80 588.25 419.80 588.80 Z" fill="#ffffff" fill-rule="nonzero" group-id="14" node-id="746" stroke="none" target-height="2" target-width="1.7999878" target-x="418" target-y="587.8"></path><path d="M 422.30 588.80 C 422.30 589.35 421.90 589.80 421.40 589.80 C 420.90 589.80 420.50 589.35 420.50 588.80 C 420.50 588.25 420.90 587.80 421.40 587.80 C 421.90 587.80 422.30 588.25 422.30 588.80 Z" fill="#ffffff" fill-rule="nonzero" group-id="14" node-id="748" stroke="none" target-height="2" target-width="1.7999878" target-x="420.5" target-y="587.8"></path><path d="M 424.80 588.80 C 424.80 589.35 424.40 589.80 423.90 589.80 C 423.40 589.80 423.00 589.35 423.00 588.80 C 423.00 588.25 423.40 587.80 423.90 587.80 C 424.40 587.80 424.80 588.25 424.80 588.80 Z" fill="#ffffff" fill-rule="nonzero" group-id="14" node-id="750" stroke="none" target-height="2" target-width="1.7999878" target-x="423" target-y="587.8"></path><path d="M 427.30 588.80 C 427.30 589.35 426.90 589.80 426.40 589.80 C 425.90 589.80 425.50 589.35 425.50 588.80 C 425.50 588.25 425.90 587.80 426.40 587.80 C 426.90 587.80 427.30 588.25 427.30 588.80 Z" fill="#ffffff" fill-rule="nonzero" group-id="14" node-id="752" stroke="none" target-height="2" target-width="1.7999878" target-x="425.5" target-y="587.8"></path><path d="M 429.80 588.80 C 429.80 589.35 429.40 589.80 428.90 589.80 C 428.40 589.80 428.00 589.35 428.00 588.80 C 428.00 588.25 428.40 587.80 428.90 587.80 C 429.40 587.80 429.80 588.25 429.80 588.80 Z" fill="#ffffff" fill-rule="nonzero" group-id="14" node-id="754" stroke="none" target-height="2" target-width="1.7999878" target-x="428" target-y="587.8"></path><path d="M 432.30 588.80 C 432.30 589.35 431.90 589.80 431.40 589.80 C 430.90 589.80 430.50 589.35 430.50 588.80 C 430.50 588.25 430.90 587.80 431.40 587.80 C 431.90 587.80 432.30 588.25 432.30 588.80 Z" fill="#ffffff" fill-rule="nonzero" group-id="14" node-id="756" stroke="none" target-height="2" target-width="1.7999878" target-x="430.5" target-y="587.8"></path><path d="M 434.80 588.80 C 434.80 589.35 434.40 589.80 433.90 589.80 C 433.40 589.80 433.00 589.35 433.00 588.80 C 433.00 588.25 433.40 587.80 433.90 587.80 C 434.40 587.80 434.80 588.25 434.80 588.80 Z" fill="#ffffff" fill-rule="nonzero" group-id="14" node-id="758" stroke="none" target-height="2" target-width="1.7999878" target-x="433" target-y="587.8"></path><path d="M 437.30 588.80 C 437.30 589.35 436.90 589.80 436.40 589.80 C 435.90 589.80 435.50 589.35 435.50 588.80 C 435.50 588.25 435.90 587.80 436.40 587.80 C 436.90 587.80 437.30 588.25 437.30 588.80 Z" fill="#ffffff" fill-rule="nonzero" group-id="14" node-id="760" stroke="none" target-height="2" target-width="1.7999878" target-x="435.5" target-y="587.8"></path><path d="M 439.80 588.80 C 439.80 589.35 439.40 589.80 438.90 589.80 C 438.40 589.80 438.00 589.35 438.00 588.80 C 438.00 588.25 438.40 587.80 438.90 587.80 C 439.40 587.80 439.80 588.25 439.80 588.80 Z" fill="#ffffff" fill-rule="nonzero" group-id="14" node-id="762" stroke="none" target-height="2" target-width="1.7999878" target-x="438" target-y="587.8"></path><path d="M 713.90 299.10 C 715.60 298.80 717.20 299.00 718.80 299.40 C 720.40 299.80 722.00 300.40 723.50 301.40 C 724.90 302.40 726.20 303.70 726.90 305.40 C 727.70 307.00 727.90 308.80 727.50 310.50 L 727.20 312.00 L 727.00 310.50 L 727.00 310.50 C 727.00 310.50 727.00 310.40 727.00 310.40 L 727.00 310.40 L 727.00 310.30 L 727.00 310.20 L 727.00 310.00 L 727.10 309.70 C 727.20 309.50 727.20 309.30 727.30 309.10 C 727.50 308.70 727.60 308.40 727.80 308.10 C 728.20 307.50 728.70 306.90 729.30 306.40 C 730.50 305.40 731.90 304.50 733.70 304.20 C 734.60 304.10 735.50 304.20 736.40 304.60 C 737.20 305.00 737.90 305.50 738.50 306.10 C 739.60 307.40 740.10 308.90 740.30 310.40 L 739.90 310.60 C 739.00 309.40 738.20 308.30 737.20 307.50 C 736.20 306.70 735.20 306.40 734.10 306.70 C 733.00 307.00 731.90 307.60 730.80 308.40 C 730.30 308.80 729.70 309.20 729.20 309.60 C 728.90 309.80 728.60 310.00 728.30 310.20 L 727.80 310.50 L 727.60 310.60 L 727.50 310.70 L 727.40 310.70 C 727.40 310.70 727.40 310.70 727.40 310.70 L 727.40 310.70 C 727.40 310.70 727.40 310.60 727.40 310.60 L 727.40 310.60 L 726.90 310.70 C 726.30 309.20 725.70 307.90 724.80 306.80 C 724.00 305.70 722.90 304.80 721.80 303.90 C 720.60 303.10 719.40 302.30 718.00 301.70 C 716.60 301.10 715.20 300.50 713.70 299.90 L 713.90 299.10 Z" fill="#ff7f0a" fill-rule="nonzero" group-id="15" node-id="767" stroke="none" target-height="13.200012" target-width="26.599976" target-x="713.7" target-y="298.8"></path><path d="M 770.60 259.60 C 772.00 259.40 773.30 259.80 774.60 260.40 C 775.80 261.00 777.00 261.90 777.90 263.00 C 778.80 264.10 779.40 265.40 779.70 266.80 C 780.00 268.20 780.00 269.50 779.70 270.80 L 779.30 272.30 L 779.30 270.90 L 779.30 270.90 L 779.30 270.50 L 779.30 270.20 C 779.30 270.00 779.30 269.90 779.40 269.70 C 779.50 269.40 779.60 269.10 779.70 268.80 C 779.90 268.20 780.20 267.70 780.60 267.20 C 781.00 266.70 781.40 266.20 781.90 265.80 C 782.40 265.40 783.10 264.90 783.90 264.80 C 784.70 264.60 785.70 265.00 786.20 265.50 C 786.80 266.00 787.10 266.60 787.40 267.20 C 787.90 268.40 788.10 269.60 788.20 270.80 L 787.80 270.90 C 787.20 269.90 786.70 268.80 786.10 267.90 C 785.80 267.50 785.50 267.10 785.10 266.90 C 784.80 266.70 784.50 266.60 784.20 266.70 C 783.50 266.90 782.70 267.60 782.00 268.40 C 781.70 268.80 781.30 269.20 780.90 269.60 C 780.70 269.80 780.50 270.00 780.30 270.20 L 780.00 270.50 L 779.80 270.60 L 779.70 270.70 C 779.70 270.70 779.60 270.80 779.60 270.70 L 779.60 270.70 L 779.20 270.70 C 778.80 269.50 778.40 268.30 777.90 267.20 C 777.40 266.10 776.80 265.10 776.20 264.20 C 775.60 263.30 774.70 262.50 773.80 261.80 C 772.80 261.10 771.80 260.50 770.70 259.90 L 770.60 259.60 Z" fill="#ff7f0a" fill-rule="nonzero" group-id="16" node-id="772" stroke="none" target-height="12.899994" target-width="17.600037" target-x="770.6" target-y="259.4"></path><path d="M 836.50 251.90 C 838.30 251.80 840.00 252.50 841.50 253.50 C 843.00 254.50 844.30 255.90 845.20 257.40 C 846.10 259.00 846.60 260.70 846.90 262.40 C 847.10 264.10 847.10 265.90 846.60 267.50 L 846.10 269.60 L 846.10 267.50 L 846.10 267.50 L 846.10 267.10 L 846.10 266.80 C 846.10 266.60 846.10 266.40 846.10 266.20 C 846.10 265.80 846.20 265.40 846.30 265.00 C 846.50 264.20 846.80 263.50 847.20 262.80 C 847.60 262.10 848.00 261.40 848.70 260.80 C 849.30 260.20 850.00 259.50 851.20 259.20 C 851.80 259.10 852.50 259.20 853.00 259.50 C 853.50 259.80 853.90 260.20 854.20 260.50 C 854.80 261.30 855.10 262.00 855.40 262.80 C 855.90 264.30 856.10 265.90 856.00 267.50 L 855.50 267.60 C 854.80 266.20 854.30 264.80 853.60 263.60 C 853.30 263.00 852.90 262.40 852.50 262.00 C 852.30 261.80 852.10 261.70 852.00 261.60 C 851.80 261.60 851.80 261.60 851.60 261.60 C 851.30 261.70 850.80 262.00 850.40 262.50 C 850.00 263.00 849.60 263.50 849.10 264.10 C 848.70 264.70 848.30 265.30 847.90 265.90 C 847.70 266.20 847.40 266.50 847.20 266.80 L 846.80 267.20 L 846.60 267.40 L 846.50 267.50 C 846.50 267.50 846.40 267.60 846.40 267.50 L 846.40 267.50 L 845.90 267.50 C 845.40 265.90 844.90 264.30 844.40 262.90 C 843.90 261.40 843.30 260.00 842.60 258.70 C 841.90 257.40 841.10 256.20 840.00 255.10 C 838.90 254.10 837.70 253.10 836.30 252.30 L 836.50 251.90 Z" fill="#ff7f0a" fill-rule="nonzero" group-id="17" node-id="777" stroke="none" target-height="17.800003" target-width="19.799988" target-x="836.3" target-y="251.8"></path><path d="M 723.60 236.20 C 725.10 236.00 726.60 236.20 728.00 236.70 C 729.40 237.20 730.80 237.90 731.90 239.00 C 733.00 240.10 733.90 241.40 734.40 242.90 C 734.90 244.40 734.90 245.90 734.60 247.40 L 734.20 248.90 L 734.10 247.50 L 734.10 247.50 L 734.10 247.10 L 734.10 246.80 C 734.10 246.60 734.20 246.40 734.20 246.30 C 734.30 246.00 734.40 245.70 734.60 245.30 C 734.90 244.70 735.30 244.10 735.80 243.60 C 736.70 242.60 737.90 241.60 739.60 241.30 C 740.40 241.20 741.40 241.40 742.10 241.80 C 742.80 242.20 743.30 242.90 743.70 243.50 C 744.50 244.70 744.80 246.10 744.90 247.40 L 744.50 247.50 C 743.80 246.40 743.20 245.30 742.40 244.40 C 742.00 244.00 741.60 243.60 741.20 243.50 C 740.80 243.40 740.40 243.30 740.00 243.40 C 739.20 243.60 738.20 244.30 737.40 245.10 C 737.00 245.50 736.50 245.90 736.10 246.30 C 735.90 246.50 735.60 246.70 735.40 246.90 L 735.00 247.20 L 734.80 247.30 L 734.70 247.40 L 734.70 247.40 C 734.70 247.40 734.70 247.50 734.70 247.30 L 734.70 247.30 L 734.20 247.40 C 733.70 246.00 733.20 244.80 732.60 243.70 C 732.00 242.60 731.20 241.60 730.30 240.80 C 729.40 239.90 728.40 239.10 727.30 238.50 C 726.20 237.90 724.90 237.30 723.70 236.70 L 723.60 236.20 Z" fill="#ff7f0a" fill-rule="nonzero" group-id="18" node-id="782" stroke="none" target-height="12.899994" target-width="21.300049" target-x="723.6" target-y="236"></path><path d="M 253.20 278.10 C 255.20 277.90 257.20 278.40 258.90 279.30 C 260.70 280.20 262.30 281.50 263.60 283.10 C 264.80 284.70 265.60 286.60 266.00 288.60 C 266.40 290.60 266.40 292.50 265.90 294.40 L 265.40 296.50 L 265.40 294.40 L 265.40 294.40 L 265.40 293.90 L 265.40 293.50 C 265.40 293.30 265.40 293.00 265.50 292.80 C 265.60 292.30 265.70 291.90 265.90 291.50 C 266.20 290.70 266.60 289.90 267.20 289.10 C 267.70 288.30 268.30 287.60 269.10 287.00 C 269.80 286.40 270.70 285.70 272.00 285.50 C 272.60 285.40 273.30 285.40 273.90 285.60 C 274.50 285.80 275.00 286.10 275.40 286.50 C 276.20 287.30 276.70 288.10 277.10 289.00 C 277.80 290.70 278.10 292.40 278.10 294.20 L 277.60 294.30 C 276.80 292.80 276.10 291.30 275.20 290.00 C 274.80 289.40 274.30 288.80 273.80 288.50 C 273.30 288.20 272.90 288.10 272.50 288.30 C 271.60 288.60 270.40 289.70 269.40 290.80 C 268.90 291.40 268.40 292.00 267.90 292.60 C 267.60 292.90 267.30 293.20 267.00 293.50 C 266.90 293.60 266.70 293.80 266.50 293.90 L 266.20 294.10 L 266.10 294.20 L 266.00 294.20 C 266.00 294.20 266.00 294.30 266.00 294.10 L 266.00 294.10 L 265.40 294.10 C 264.80 292.30 264.20 290.60 263.60 289.00 C 262.90 287.40 262.10 286.00 261.10 284.70 C 260.10 283.40 259.00 282.10 257.70 281.10 C 256.30 280.10 254.80 279.20 253.20 278.30 L 253.20 278.10 Z" fill="#ff7f0a" fill-rule="nonzero" group-id="19" node-id="787" stroke="none" target-height="18.600006" target-width="24.90001" target-x="253.2" target-y="277.9"></path><path d="M 186.50 243.80 C 188.70 243.50 190.80 243.90 192.80 244.60 C 194.80 245.40 196.80 246.50 198.40 248.00 C 199.20 248.80 199.90 249.70 200.50 250.60 C 201.10 251.60 201.50 252.60 201.90 253.70 C 202.50 255.80 202.60 258.10 202.10 260.10 L 201.60 262.20 L 201.50 260.20 L 201.50 260.20 L 201.50 259.60 L 201.60 259.20 C 201.70 258.90 201.70 258.70 201.80 258.50 C 201.90 258.00 202.10 257.60 202.30 257.10 C 202.70 256.20 203.30 255.40 203.90 254.60 C 204.60 253.80 205.30 253.10 206.20 252.50 C 207.10 251.90 208.10 251.40 209.40 251.20 C 210.60 251.00 212.00 251.30 213.00 252.00 C 214.00 252.70 214.70 253.60 215.20 254.40 C 216.20 256.20 216.70 258.10 216.80 260.00 L 216.20 260.20 C 215.20 258.60 214.30 257.00 213.30 255.80 C 212.80 255.20 212.20 254.70 211.60 254.40 C 211.00 254.10 210.50 254.10 209.90 254.30 C 208.70 254.60 207.40 255.60 206.10 256.80 C 205.50 257.40 204.90 258.00 204.20 258.60 C 203.90 258.90 203.50 259.20 203.20 259.50 C 203.00 259.60 202.80 259.80 202.60 259.90 L 202.30 260.10 L 202.20 260.20 L 202.10 260.20 C 202.10 260.20 202.10 260.20 202.10 260.20 C 202.10 260.20 202.10 260.20 202.10 260.20 C 202.10 260.20 202.10 260.10 202.10 260.10 L 202.10 260.10 L 201.50 260.20 C 200.80 258.20 200.10 256.40 199.20 254.80 C 198.30 253.20 197.20 251.80 196.00 250.50 C 194.70 249.20 193.30 248.00 191.70 247.10 C 190.10 246.10 188.30 245.30 186.50 244.40 L 186.50 243.80 Z" fill="#ff7f0a" fill-rule="nonzero" group-id="20" node-id="792" stroke="none" target-height="18.700012" target-width="30.300003" target-x="186.5" target-y="243.5"></path><path d="M 427.70 541.00 C 427.70 551.77 418.97 560.50 408.20 560.50 C 397.43 560.50 388.70 551.77 388.70 541.00 C 388.70 530.23 397.43 521.50 408.20 521.50 C 418.97 521.50 427.70 530.23 427.70 541.00 Z" fill="#ffffff" fill-rule="nonzero" node-id="795" stroke="none" target-height="39" target-width="39" target-x="388.7" target-y="521.5"></path><path d="M 417.20 532.30 C 417.20 532.10 417.20 531.80 417.30 531.60 C 415.10 531.30 410.80 530.90 408.00 530.90 C 405.20 531.00 401.00 531.60 398.80 532.00 C 398.80 532.10 398.80 532.20 398.80 532.30 C 398.80 533.10 398.20 533.90 397.40 534.00 L 398.80 543.70 C 398.80 547.90 404.10 554.30 408.10 554.30 C 412.10 554.30 417.30 548.40 417.30 544.20 L 418.60 534.00 C 417.70 533.90 417.20 533.20 417.20 532.30 Z" fill="#f7931e" fill-rule="nonzero" group-id="21" node-id="799" stroke="#f7efdd" stroke-linecap="butt" stroke-width="0.9662" target-height="23.399963" target-width="21.200012" target-x="397.4" target-y="530.9"></path><path d="M 406.70 539.20 L 409.10 539.20 L 409.10 546.10 L 406.70 546.10 Z" fill="#ffffff" fill-rule="nonzero" group-id="21" node-id="801" stroke="#ffffff" stroke-linecap="butt" stroke-width="0.9662" target-height="6.8999634" target-width="2.399994" target-x="406.7" target-y="539.2"></path><path d="M 404.70 541.40 L 411.10 541.40 L 411.10 543.90 L 404.70 543.90 Z" fill="#ffffff" fill-rule="nonzero" group-id="21" node-id="803" stroke="#ffffff" stroke-linecap="butt" stroke-width="0.9662" target-height="2.5" target-width="6.399994" target-x="404.7" target-y="541.4"></path><path d="M 248.00 345.10 C 248.00 386.63 232.46 420.30 213.30 420.30 C 194.14 420.30 178.60 386.63 178.60 345.10 C 178.60 303.57 194.14 269.90 213.30 269.90 C 232.46 269.90 248.00 303.57 248.00 345.10 Z" fill="url(#SVGID_8_)" fill-opacity="0.78" fill-rule="nonzero" group-id="22" node-id="808" stroke="none" target-height="150.4" target-width="69.399994" target-x="178.6" target-y="269.9"></path><path d="M 309.20 325.40 C 309.20 388.69 296.44 440.00 280.70 440.00 C 264.96 440.00 252.20 388.69 252.20 325.40 C 252.20 262.11 264.96 210.80 280.70 210.80 C 296.44 210.80 309.20 262.11 309.20 325.40 Z" fill="url(#SVGID_9_)" fill-opacity="0.75" fill-rule="nonzero" group-id="23" node-id="813" stroke="none" target-height="229.2" target-width="57.000015" target-x="252.2" target-y="210.8"></path></svg>