<?xml version="1.0" standalone="no"?><!DOCTYPE svg PUBLIC "-//W3C//DTD SVG 1.1//EN" "http://www.w3.org/Graphics/SVG/1.1/DTD/svg11.dtd"><svg height="1024" node-id="1" sillyvg="true" template-height="1024" template-width="1024" version="1.1" viewBox="0 0 1024 1024" width="1024" xmlns="http://www.w3.org/2000/svg" xmlns:xlink="http://www.w3.org/1999/xlink"><defs node-id="282"><linearGradient gradientUnits="userSpaceOnUse" id="SVGID_1_" node-id="4" spreadMethod="pad" x1="512.68" x2="512.68" y1="-50.22" y2="-286.38"><stop offset="0.2885" stop-color="#ffffff" stop-opacity="0"></stop><stop offset="0.3617" stop-color="#fffcf6" stop-opacity="0.1029"></stop><stop offset="0.4789" stop-color="#fef2df" stop-opacity="0.2676"></stop><stop offset="0.6255" stop-color="#fee3b9" stop-opacity="0.4736"></stop><stop offset="0.7956" stop-color="#fccd84" stop-opacity="0.7128"></stop><stop offset="0.9836" stop-color="#fbb241" stop-opacity="0.977"></stop><stop offset="1" stop-color="#fbb03b"></stop></linearGradient><linearGradient gradientUnits="userSpaceOnUse" id="SVGID_2_" node-id="16" spreadMethod="pad" x1="120.39" x2="120.39" y1="-149.207" y2="-184.7371"><stop offset="0.2885" stop-color="#ffffff"></stop><stop offset="0.3617" stop-color="#fffcf6"></stop><stop offset="0.4789" stop-color="#fef2df"></stop><stop offset="0.6255" stop-color="#fee3b9"></stop><stop offset="0.7956" stop-color="#fccd84"></stop><stop offset="0.9836" stop-color="#fbb241"></stop><stop offset="1" stop-color="#fbb03b"></stop></linearGradient><linearGradient gradientUnits="userSpaceOnUse" id="SVGID_3_" node-id="28" spreadMethod="pad" x1="838.705" x2="838.705" y1="-124.2004" y2="-147.8795"><stop offset="0.2885" stop-color="#ffffff" stop-opacity="0"></stop><stop offset="0.3617" stop-color="#fffcf6" stop-opacity="0.1029"></stop><stop offset="0.4789" stop-color="#fef2df" stop-opacity="0.2676"></stop><stop offset="0.6255" stop-color="#fee3b9" stop-opacity="0.4736"></stop><stop offset="0.7956" stop-color="#fccd84" stop-opacity="0.7128"></stop><stop offset="0.9836" stop-color="#fbb241" stop-opacity="0.977"></stop><stop offset="1" stop-color="#fbb03b"></stop></linearGradient><linearGradient gradientUnits="userSpaceOnUse" id="SVGID_4_" node-id="39" spreadMethod="pad" x1="906.12" x2="906.12" y1="-109.1753" y2="-127.412094"><stop offset="0.2885" stop-color="#ffffff" stop-opacity="0"></stop><stop offset="0.3617" stop-color="#fffcf6" stop-opacity="0.1029"></stop><stop offset="0.4789" stop-color="#fef2df" stop-opacity="0.2676"></stop><stop offset="0.6255" stop-color="#fee3b9" stop-opacity="0.4736"></stop><stop offset="0.7956" stop-color="#fccd84" stop-opacity="0.7128"></stop><stop offset="0.9836" stop-color="#fbb241" stop-opacity="0.977"></stop><stop offset="1" stop-color="#fbb03b"></stop></linearGradient><linearGradient gradientUnits="userSpaceOnUse" id="SVGID_5_" node-id="48" spreadMethod="pad" x1="821.59" x2="821.59" y1="-619.49" y2="-757.55"><stop offset="0.2273" stop-color="#ffffff" stop-opacity="0"></stop><stop offset="1" stop-color="#f7931e"></stop></linearGradient><linearGradient gradientUnits="userSpaceOnUse" id="SVGID_6_" node-id="52" spreadMethod="pad" x1="789.58" x2="789.58" y1="-597.34" y2="-735.4"><stop offset="0.2273" stop-color="#ffffff" stop-opacity="0"></stop><stop offset="1" stop-color="#f7931e"></stop></linearGradient><linearGradient gradientUnits="userSpaceOnUse" id="SVGID_7_" node-id="56" spreadMethod="pad" x1="249.61" x2="249.61" y1="-587.38" y2="-832.94"><stop offset="0.2273" stop-color="#ffffff" stop-opacity="0"></stop><stop offset="0.2456" stop-color="#fffbf7" stop-opacity="0.0236"></stop><stop offset="0.4037" stop-color="#fcdcb6" stop-opacity="0.2283"></stop><stop offset="0.5543" stop-color="#fac280" stop-opacity="0.4232"></stop><stop offset="0.6933" stop-color="#f9ae55" stop-opacity="0.6031"></stop><stop offset="0.8183" stop-color="#f89f37" stop-opacity="0.7648"></stop><stop offset="0.9247" stop-color="#f79625" stop-opacity="0.9026"></stop><stop offset="1" stop-color="#f7931e"></stop></linearGradient><linearGradient gradientUnits="userSpaceOnUse" id="SVGID_8_" node-id="66" spreadMethod="pad" x1="305.76" x2="305.76" y1="-575.97" y2="-805.11"><stop offset="0.2273" stop-color="#ffffff" stop-opacity="0"></stop><stop offset="0.3323" stop-color="#fde7cd" stop-opacity="0.1359"></stop><stop offset="0.4582" stop-color="#fbce98" stop-opacity="0.2988"></stop><stop offset="0.5818" stop-color="#fab96c" stop-opacity="0.4587"></stop><stop offset="0.7002" stop-color="#f9a84a" stop-opacity="0.612"></stop><stop offset="0.8122" stop-color="#f89d32" stop-opacity="0.7569"></stop><stop offset="0.9149" stop-color="#f79523" stop-opacity="0.8899"></stop><stop offset="1" stop-color="#f7931e"></stop></linearGradient><linearGradient gradientUnits="userSpaceOnUse" id="SVGID_9_" node-id="76" spreadMethod="pad" x1="249.61" x2="249.61" y1="-563.68" y2="-714.08"><stop offset="0.0318" stop-color="#ffffff" stop-opacity="0"></stop><stop offset="0.1753" stop-color="#fde9d2" stop-opacity="0.1481"></stop><stop offset="0.3944" stop-color="#fbcb92" stop-opacity="0.3745"></stop><stop offset="0.5944" stop-color="#f9b360" stop-opacity="0.5811"></stop><stop offset="0.7684" stop-color="#f8a13c" stop-opacity="0.7608"></stop><stop offset="0.9095" stop-color="#f79726" stop-opacity="0.9065"></stop><stop offset="1" stop-color="#f7931e"></stop></linearGradient><linearGradient gradientUnits="userSpaceOnUse" id="SVGID_10_" node-id="96" spreadMethod="pad" x1="880.67" x2="880.67" y1="-634.84" y2="-661.92"><stop offset="0.2273" stop-color="#ffffff" stop-opacity="0"></stop><stop offset="1" stop-color="#f7931e"></stop></linearGradient><linearGradient gradientUnits="userSpaceOnUse" id="SVGID_11_" node-id="100" spreadMethod="pad" x1="868.985" x2="868.985" y1="-638.82" y2="-678.52"><stop offset="0.148" stop-color="#ffffff" stop-opacity="0"></stop><stop offset="1" stop-color="#f7931e"></stop></linearGradient><linearGradient gradientTransform="matrix(1 0.0031079 0.0031079 -1 -2.4798 1021.323)" gradientUnits="userSpaceOnUse" id="SVGID_12_" node-id="104" spreadMethod="pad" x1="892.7801" x2="892.7801" y1="639.9214" y2="679.6313"><stop offset="0.148" stop-color="#ffffff" stop-opacity="0"></stop><stop offset="1" stop-color="#f7931e"></stop></linearGradient><linearGradient gradientUnits="userSpaceOnUse" id="SVGID_65_" node-id="270" spreadMethod="pad" x1="120.86" x2="120.86" y1="-686.9" y2="-757.9289"><stop offset="0.129" stop-color="#ffffff" stop-opacity="0"></stop><stop offset="0.2212" stop-color="#fde7cd" stop-opacity="0.1058"></stop><stop offset="0.3192" stop-color="#fcd19f" stop-opacity="0.2184"></stop><stop offset="0.421" stop-color="#fabe77" stop-opacity="0.3353"></stop><stop offset="0.5252" stop-color="#f9ae57" stop-opacity="0.4549"></stop><stop offset="0.6324" stop-color="#f8a23e" stop-opacity="0.5779"></stop><stop offset="0.7438" stop-color="#f79a2c" stop-opacity="0.7059"></stop><stop offset="0.8623" stop-color="#f79521" stop-opacity="0.842"></stop><stop offset="1" stop-color="#f7931e"></stop></linearGradient><clipPath id="SVGID_14_" node-id="117"><path d="M 270.70 521.00 L 584.40 521.00 L 584.40 834.80 L 270.70 834.80 Z" fill="#000000" fill-rule="nonzero" node-id="451" stroke="none" target-height="313.8" target-width="313.7" target-x="270.7" target-y="521"></path></clipPath><clipPath id="SVGID_16_" node-id="123"><path d="M 270.70 521.00 L 584.40 521.00 L 584.40 834.80 L 270.70 834.80 Z" fill="#000000" fill-rule="nonzero" node-id="455" stroke="none" target-height="313.8" target-width="313.7" target-x="270.7" target-y="521"></path></clipPath><clipPath id="SVGID_18_" node-id="129"><path d="M 270.70 521.00 L 584.40 521.00 L 584.40 834.80 L 270.70 834.80 Z" fill="#000000" fill-rule="nonzero" node-id="459" stroke="none" target-height="313.8" target-width="313.7" target-x="270.7" target-y="521"></path></clipPath><clipPath id="SVGID_20_" node-id="135"><path d="M 270.70 521.00 L 584.40 521.00 L 584.40 834.80 L 270.70 834.80 Z" fill="#000000" fill-rule="nonzero" node-id="463" stroke="none" target-height="313.8" target-width="313.7" target-x="270.7" target-y="521"></path></clipPath><clipPath id="SVGID_22_" node-id="141"><path d="M 270.70 521.00 L 584.40 521.00 L 584.40 834.80 L 270.70 834.80 Z" fill="#000000" fill-rule="nonzero" node-id="467" stroke="none" target-height="313.8" target-width="313.7" target-x="270.7" target-y="521"></path></clipPath><clipPath id="SVGID_24_" node-id="147"><path d="M 270.70 521.00 L 584.40 521.00 L 584.40 834.80 L 270.70 834.80 Z" fill="#000000" fill-rule="nonzero" node-id="471" stroke="none" target-height="313.8" target-width="313.7" target-x="270.7" target-y="521"></path></clipPath><clipPath id="SVGID_26_" node-id="153"><path d="M 270.70 521.00 L 584.40 521.00 L 584.40 834.80 L 270.70 834.80 Z" fill="#000000" fill-rule="nonzero" node-id="475" stroke="none" target-height="313.8" target-width="313.7" target-x="270.7" target-y="521"></path></clipPath><clipPath id="SVGID_28_" node-id="159"><path d="M 270.70 521.00 L 584.40 521.00 L 584.40 834.80 L 270.70 834.80 Z" fill="#000000" fill-rule="nonzero" node-id="479" stroke="none" target-height="313.8" target-width="313.7" target-x="270.7" target-y="521"></path></clipPath><clipPath id="SVGID_30_" node-id="165"><path d="M 270.70 521.00 L 584.40 521.00 L 584.40 834.80 L 270.70 834.80 Z" fill="#000000" fill-rule="nonzero" node-id="483" stroke="none" target-height="313.8" target-width="313.7" target-x="270.7" target-y="521"></path></clipPath><clipPath id="SVGID_32_" node-id="171"><path d="M 270.70 521.00 L 584.40 521.00 L 584.40 834.80 L 270.70 834.80 Z" fill="#000000" fill-rule="nonzero" node-id="487" stroke="none" target-height="313.8" target-width="313.7" target-x="270.7" target-y="521"></path></clipPath><clipPath id="SVGID_34_" node-id="177"><path d="M 270.70 521.00 L 584.40 521.00 L 584.40 834.80 L 270.70 834.80 Z" fill="#000000" fill-rule="nonzero" node-id="491" stroke="none" target-height="313.8" target-width="313.7" target-x="270.7" target-y="521"></path></clipPath><clipPath id="SVGID_36_" node-id="183"><path d="M 270.70 521.00 L 584.40 521.00 L 584.40 834.80 L 270.70 834.80 Z" fill="#000000" fill-rule="nonzero" node-id="495" stroke="none" target-height="313.8" target-width="313.7" target-x="270.7" target-y="521"></path></clipPath><clipPath id="SVGID_38_" node-id="189"><path d="M 270.70 521.00 L 584.40 521.00 L 584.40 834.80 L 270.70 834.80 Z" fill="#000000" fill-rule="nonzero" node-id="499" stroke="none" target-height="313.8" target-width="313.7" target-x="270.7" target-y="521"></path></clipPath><clipPath id="SVGID_40_" node-id="195"><path d="M 270.70 521.00 L 584.40 521.00 L 584.40 834.80 L 270.70 834.80 Z" fill="#000000" fill-rule="nonzero" node-id="503" stroke="none" target-height="313.8" target-width="313.7" target-x="270.7" target-y="521"></path></clipPath><clipPath id="SVGID_42_" node-id="201"><path d="M 270.70 521.00 L 584.40 521.00 L 584.40 834.80 L 270.70 834.80 Z" fill="#000000" fill-rule="nonzero" node-id="507" stroke="none" target-height="313.8" target-width="313.7" target-x="270.7" target-y="521"></path></clipPath><clipPath id="SVGID_44_" node-id="207"><path d="M 270.70 521.00 L 584.40 521.00 L 584.40 834.80 L 270.70 834.80 Z" fill="#000000" fill-rule="nonzero" node-id="511" stroke="none" target-height="313.8" target-width="313.7" target-x="270.7" target-y="521"></path></clipPath><clipPath id="SVGID_46_" node-id="213"><path d="M 270.70 521.00 L 584.40 521.00 L 584.40 834.80 L 270.70 834.80 Z" fill="#000000" fill-rule="nonzero" node-id="515" stroke="none" target-height="313.8" target-width="313.7" target-x="270.7" target-y="521"></path></clipPath><clipPath id="SVGID_48_" node-id="219"><path d="M 270.70 521.00 L 584.40 521.00 L 584.40 834.80 L 270.70 834.80 Z" fill="#000000" fill-rule="nonzero" node-id="519" stroke="none" target-height="313.8" target-width="313.7" target-x="270.7" target-y="521"></path></clipPath><clipPath id="SVGID_50_" node-id="225"><path d="M 270.70 521.00 L 584.40 521.00 L 584.40 834.80 L 270.70 834.80 Z" fill="#000000" fill-rule="nonzero" node-id="523" stroke="none" target-height="313.8" target-width="313.7" target-x="270.7" target-y="521"></path></clipPath><clipPath id="SVGID_52_" node-id="231"><path d="M 270.70 521.00 L 584.40 521.00 L 584.40 834.80 L 270.70 834.80 Z" fill="#000000" fill-rule="nonzero" node-id="527" stroke="none" target-height="313.8" target-width="313.7" target-x="270.7" target-y="521"></path></clipPath><clipPath id="SVGID_54_" node-id="237"><path d="M 270.70 521.00 L 584.40 521.00 L 584.40 834.80 L 270.70 834.80 Z" fill="#000000" fill-rule="nonzero" node-id="531" stroke="none" target-height="313.8" target-width="313.7" target-x="270.7" target-y="521"></path></clipPath><clipPath id="SVGID_56_" node-id="243"><path d="M 270.70 521.00 L 584.40 521.00 L 584.40 834.80 L 270.70 834.80 Z" fill="#000000" fill-rule="nonzero" node-id="535" stroke="none" target-height="313.8" target-width="313.7" target-x="270.7" target-y="521"></path></clipPath><clipPath id="SVGID_58_" node-id="249"><path d="M 252.32 642.43 L 537.51 511.77 L 668.16 796.96 L 382.98 927.61 Z" fill="#000000" fill-rule="nonzero" node-id="539" stroke="none" target-height="415.84076" target-width="415.84076" target-x="252.32149" target-y="511.77325"></path></clipPath><clipPath id="SVGID_60_" node-id="255"><path d="M 244.62 651.30 L 529.81 520.64 L 660.46 805.82 L 375.28 936.48 Z" fill="#000000" fill-rule="nonzero" node-id="543" stroke="none" target-height="415.8407" target-width="415.84076" target-x="244.62202" target-y="520.6399"></path></clipPath><clipPath id="SVGID_62_" node-id="261"><path d="M 235.18 662.16 L 520.37 531.51 L 651.03 816.69 L 365.84 947.35 Z" fill="#000000" fill-rule="nonzero" node-id="547" stroke="none" target-height="415.8407" target-width="415.8408" target-x="235.1846" target-y="531.5069"></path></clipPath><clipPath id="SVGID_64_" node-id="267"><path d="M 231.24 666.85 L 516.43 536.19 L 647.09 821.38 L 361.90 952.03 Z" fill="#000000" fill-rule="nonzero" node-id="551" stroke="none" target-height="415.8407" target-width="415.84076" target-x="231.2445" target-y="536.19324"></path></clipPath></defs><path d="M 980.50 854.70 C 980.50 886.02 931.21 916.06 843.48 938.21 C 755.76 960.36 636.77 972.80 512.70 972.80 C 388.63 972.80 269.64 960.36 181.92 938.21 C 94.19 916.06 44.90 886.02 44.90 854.70 C 44.90 823.38 94.19 793.34 181.92 771.19 C 269.64 749.04 388.63 736.60 512.70 736.60 C 636.77 736.60 755.76 749.04 843.48 771.19 C 931.21 793.34 980.50 823.38 980.50 854.70 Z" fill="url(#SVGID_1_)" fill-rule="nonzero" node-id="555" stroke="none" target-height="236.20001" target-width="935.6" target-x="44.9" target-y="736.6"></path><g node-id="871"><g node-id="886"><path d="M 103.20 757.40 L 90.60 801.10 C 87.30 812.70 96.00 824.30 108.10 824.30 L 133.20 824.30 C 145.30 824.30 154.00 812.70 150.70 801.10 L 138.10 757.40 C 133.20 739.80 108.30 739.80 103.20 757.40 Z" fill="#fbb03b" fill-opacity="0.87" fill-rule="nonzero" group-id="1,16" node-id="561" stroke="none" target-height="84.5" target-width="66.7" target-x="87.3" target-y="739.8"></path><path d="M 121.40 872.60 L 119.50 872.60 C 116.30 872.60 113.70 870.00 113.70 866.80 L 113.70 824.30 L 127.20 824.30 L 127.20 866.80 C 127.20 870.00 124.60 872.60 121.40 872.60 Z" fill="url(#SVGID_2_)" fill-opacity="0.87" fill-rule="nonzero" group-id="1,16" node-id="563" stroke="none" target-height="48.299988" target-width="13.5" target-x="113.7" target-y="824.3"></path></g><g node-id="887"><g node-id="890"><path d="M 823.20 810.20 L 807.50 839.00 C 800.90 851.10 809.70 865.90 823.50 865.90 L 854.80 865.90 C 868.60 865.90 877.40 851.10 870.80 839.00 L 855.20 810.20 C 848.30 797.50 830.00 797.50 823.20 810.20 Z" fill="#fbb03b" fill-opacity="0.68" fill-rule="nonzero" group-id="1,17,20" node-id="570" stroke="none" target-height="68.400024" target-width="76.5" target-x="800.9" target-y="797.5"></path><path d="M 839.90 898.00 L 837.40 898.00 C 833.40 898.00 830.10 894.70 830.10 890.70 L 830.10 865.80 L 847.10 865.80 L 847.10 890.70 C 847.20 894.80 844.00 898.00 839.90 898.00 Z" fill="url(#SVGID_3_)" fill-opacity="0.68" fill-rule="nonzero" group-id="1,17,20" node-id="572" stroke="none" target-height="32.200012" target-width="17.100037" target-x="830.1" target-y="865.8"></path></g><g node-id="891"><path d="M 890.50 852.20 L 885.40 861.60 C 878.80 873.70 887.60 888.40 901.30 888.40 L 911.50 888.40 C 925.30 888.40 934.00 873.70 927.40 861.60 L 922.30 852.20 C 915.50 839.60 897.40 839.60 890.50 852.20 Z" fill="#fbb03b" fill-opacity="0.68" fill-rule="nonzero" group-id="1,17,21" node-id="577" stroke="none" target-height="48.80005" target-width="55.200012" target-x="878.8" target-y="839.6"></path><path d="M 907.10 913.20 L 905.20 913.20 C 902.10 913.20 899.60 910.70 899.60 907.60 L 899.60 888.40 L 912.70 888.40 L 912.70 907.60 C 912.70 910.70 910.20 913.20 907.10 913.20 Z" fill="url(#SVGID_4_)" fill-opacity="0.68" fill-rule="nonzero" group-id="1,17,21" node-id="579" stroke="none" target-height="24.799988" target-width="13.100037" target-x="899.6" target-y="888.4"></path></g></g></g><g node-id="872"><path d="M 838.70 334.50 C 838.70 372.61 831.04 403.50 821.60 403.50 C 812.16 403.50 804.50 372.61 804.50 334.50 C 804.50 296.39 812.16 265.50 821.60 265.50 C 831.04 265.50 838.70 296.39 838.70 334.50 Z" fill="url(#SVGID_5_)" fill-opacity="0.46" fill-rule="nonzero" group-id="2" node-id="586" stroke="none" target-height="138" target-width="34.200012" target-x="804.5" target-y="265.5"></path></g><g node-id="873"><path d="M 806.70 356.60 C 806.70 394.71 799.04 425.60 789.60 425.60 C 780.16 425.60 772.50 394.71 772.50 356.60 C 772.50 318.49 780.16 287.60 789.60 287.60 C 799.04 287.60 806.70 318.49 806.70 356.60 Z" fill="url(#SVGID_6_)" fill-opacity="0.46" fill-rule="nonzero" group-id="3" node-id="591" stroke="none" target-height="138" target-width="34.200012" target-x="772.5" target-y="287.6"></path></g><g node-id="874"><path d="M 291.10 312.80 C 291.10 380.62 272.52 435.60 249.60 435.60 C 226.68 435.60 208.10 380.62 208.10 312.80 C 208.10 244.98 226.68 190.00 249.60 190.00 C 272.52 190.00 291.10 244.98 291.10 312.80 Z" fill="url(#SVGID_7_)" fill-opacity="0.46" fill-rule="nonzero" group-id="4" node-id="596" stroke="none" target-height="245.6" target-width="83" target-x="208.1" target-y="190"></path></g><g node-id="875"><path d="M 334.30 332.50 C 334.30 395.79 321.54 447.10 305.80 447.10 C 290.06 447.10 277.30 395.79 277.30 332.50 C 277.30 269.21 290.06 217.90 305.80 217.90 C 321.54 217.90 334.30 269.21 334.30 332.50 Z" fill="url(#SVGID_8_)" fill-opacity="0.75" fill-rule="nonzero" group-id="5" node-id="601" stroke="none" target-height="229.20001" target-width="57" target-x="277.3" target-y="217.9"></path></g><g node-id="876"><path d="M 284.30 384.10 C 284.30 425.63 268.76 459.30 249.60 459.30 C 230.44 459.30 214.90 425.63 214.90 384.10 C 214.90 342.57 230.44 308.90 249.60 308.90 C 268.76 308.90 284.30 342.57 284.30 384.10 Z" fill="url(#SVGID_9_)" fill-opacity="0.78" fill-rule="nonzero" group-id="6" node-id="606" stroke="none" target-height="150.4" target-width="69.399994" target-x="214.9" target-y="308.9"></path></g><g node-id="877"><path d="M 873.60 448.00 C 876.00 447.60 878.40 447.90 880.70 448.50 C 883.00 449.10 885.30 450.00 887.40 451.50 C 889.40 453.00 891.20 454.90 892.20 457.30 C 893.30 459.60 893.50 462.20 893.00 464.60 L 892.50 466.70 L 892.30 464.70 L 892.30 464.70 C 892.30 464.60 892.30 464.60 892.30 464.50 L 892.30 464.50 L 892.30 464.40 L 892.30 464.30 L 892.30 464.10 L 892.40 463.70 C 892.50 463.40 892.60 463.20 892.70 462.90 C 892.90 462.40 893.20 461.90 893.50 461.40 C 894.10 460.50 894.80 459.60 895.70 458.90 C 897.40 457.40 899.40 456.00 902.00 455.70 C 903.30 455.60 904.70 455.70 905.90 456.20 C 907.10 456.70 908.10 457.60 908.90 458.50 C 910.40 460.40 911.10 462.50 911.40 464.60 L 910.80 464.80 C 909.60 463.10 908.40 461.40 907.00 460.20 C 905.60 459.00 904.10 458.60 902.60 458.90 C 901.10 459.30 899.50 460.20 897.90 461.30 C 897.10 461.90 896.40 462.50 895.60 463.10 C 895.20 463.40 894.80 463.70 894.30 464.00 L 893.60 464.40 L 893.30 464.60 L 893.10 464.70 L 893.00 464.70 C 893.00 464.70 893.00 464.70 893.00 464.70 C 893.00 464.70 893.00 464.70 893.00 464.70 C 893.00 464.70 893.00 464.60 893.00 464.50 L 893.00 464.50 L 892.30 464.60 C 891.50 462.40 890.60 460.50 889.40 458.90 C 888.20 457.30 886.70 455.90 885.10 454.70 C 883.40 453.50 881.70 452.40 879.70 451.50 C 877.70 450.60 875.70 449.80 873.60 448.80 L 873.60 448.00 Z" fill="#ff7f0a" fill-rule="nonzero" group-id="7" node-id="611" stroke="none" target-height="19.100006" target-width="37.80005" target-x="873.6" target-y="447.6"></path></g><g node-id="878"><path d="M 914.90 391.80 C 916.20 391.70 917.50 392.00 918.70 392.40 C 919.90 392.80 921.10 393.40 922.10 394.20 C 924.20 395.70 926.10 397.70 927.30 400.00 C 928.60 402.30 929.30 404.80 929.60 407.30 C 929.90 409.80 929.80 412.30 929.20 414.80 L 928.40 417.90 L 928.40 414.90 L 928.40 414.90 L 928.40 414.60 L 928.40 414.50 L 928.40 414.30 L 928.40 413.80 C 928.40 413.50 928.40 413.20 928.50 412.90 C 928.60 412.30 928.70 411.70 928.80 411.20 C 929.10 410.10 929.60 409.00 930.10 408.00 C 930.70 407.00 931.30 406.00 932.10 405.00 C 932.50 404.50 933.00 404.10 933.60 403.60 C 934.20 403.20 934.90 402.80 935.80 402.60 C 936.70 402.40 937.80 402.60 938.50 403.00 C 939.30 403.40 939.80 404.00 940.20 404.50 C 941.00 405.60 941.50 406.80 941.80 407.90 C 942.50 410.10 942.80 412.40 942.70 414.70 L 942.00 414.80 C 941.00 412.80 940.30 410.70 939.30 408.90 C 938.80 408.00 938.30 407.10 937.70 406.50 C 937.40 406.20 937.10 406.00 936.90 406.00 C 936.70 405.90 936.60 406.00 936.40 406.00 C 936.00 406.10 935.30 406.60 934.70 407.30 C 934.10 408.00 933.50 408.80 932.90 409.60 C 932.30 410.50 931.80 411.30 931.10 412.20 C 930.80 412.60 930.40 413.10 930.10 413.50 C 929.90 413.70 929.70 413.90 929.60 414.10 L 929.30 414.40 L 929.10 414.50 L 929.00 414.60 C 929.00 414.60 929.00 414.70 928.90 414.60 L 928.90 414.60 L 928.20 414.60 C 927.40 412.30 926.80 410.00 926.10 407.80 C 925.30 405.70 924.60 403.60 923.50 401.70 C 922.50 399.80 921.30 398.00 919.80 396.40 C 918.30 394.90 916.50 393.50 914.50 392.30 L 914.90 391.80 Z" fill="#ff7f0a" fill-rule="nonzero" group-id="8" node-id="616" stroke="none" target-height="26.199982" target-width="28.299988" target-x="914.5" target-y="391.7"></path></g><g node-id="879"><path d="M 428.30 449.00 C 430.30 448.80 432.30 449.30 434.00 450.20 C 435.80 451.10 437.40 452.40 438.70 454.00 C 439.90 455.60 440.70 457.50 441.10 459.50 C 441.50 461.50 441.50 463.40 441.00 465.30 L 440.50 467.40 L 440.50 465.30 L 440.50 465.30 L 440.50 464.80 L 440.50 464.40 C 440.50 464.20 440.50 463.90 440.60 463.70 C 440.70 463.20 440.80 462.80 441.00 462.40 C 441.30 461.60 441.70 460.80 442.30 460.00 C 442.80 459.20 443.40 458.50 444.20 457.90 C 444.90 457.30 445.80 456.60 447.10 456.40 C 447.70 456.30 448.40 456.30 449.00 456.50 C 449.60 456.70 450.10 457.00 450.50 457.40 C 451.30 458.20 451.80 459.00 452.20 459.90 C 452.90 461.60 453.20 463.30 453.20 465.10 L 452.70 465.20 C 451.90 463.70 451.20 462.20 450.30 460.90 C 449.90 460.30 449.40 459.70 448.90 459.40 C 448.40 459.10 448.00 459.00 447.60 459.20 C 446.70 459.50 445.50 460.60 444.50 461.70 C 444.00 462.30 443.50 462.90 443.00 463.50 C 442.70 463.80 442.40 464.10 442.10 464.40 C 442.00 464.50 441.80 464.70 441.60 464.80 L 441.30 465.00 L 441.20 465.10 L 441.10 465.10 C 441.10 465.10 441.10 465.20 441.10 465.00 L 441.10 465.00 L 440.50 465.00 C 439.90 463.20 439.30 461.50 438.70 459.90 C 438.00 458.30 437.20 456.90 436.20 455.60 C 435.20 454.30 434.10 453.00 432.80 452.00 C 431.40 451.00 429.90 450.10 428.30 449.20 L 428.30 449.00 Z" fill="#ff7f0a" fill-rule="nonzero" group-id="9" node-id="621" stroke="none" target-height="18.600006" target-width="24.900024" target-x="428.3" target-y="448.8"></path></g><g node-id="880"><path d="M 367.50 472.10 C 368.80 472.00 370.10 472.30 371.30 472.70 C 372.50 473.10 373.70 473.70 374.70 474.50 C 376.80 476.00 378.70 478.00 379.90 480.30 C 381.20 482.60 381.90 485.10 382.20 487.60 C 382.50 490.10 382.40 492.60 381.80 495.10 L 381.00 498.20 L 381.00 495.20 L 381.00 495.20 L 381.00 494.90 L 381.00 494.80 L 381.00 494.60 L 381.00 494.10 C 381.00 493.80 381.00 493.50 381.10 493.20 C 381.20 492.60 381.30 492.00 381.40 491.50 C 381.70 490.40 382.20 489.30 382.70 488.30 C 383.30 487.30 383.90 486.30 384.70 485.30 C 385.10 484.80 385.60 484.40 386.20 483.90 C 386.80 483.50 387.50 483.10 388.40 482.90 C 389.30 482.70 390.40 482.90 391.10 483.30 C 391.90 483.70 392.40 484.30 392.80 484.80 C 393.60 485.90 394.10 487.10 394.40 488.20 C 395.10 490.40 395.40 492.70 395.30 495.00 L 394.60 495.10 C 393.60 493.10 392.90 491.00 391.90 489.20 C 391.40 488.30 390.90 487.40 390.30 486.80 C 390.00 486.50 389.70 486.30 389.50 486.30 C 389.30 486.20 389.20 486.30 389.00 486.30 C 388.60 486.40 387.90 486.90 387.30 487.60 C 386.70 488.30 386.10 489.10 385.50 489.90 C 384.90 490.80 384.40 491.60 383.70 492.50 C 383.40 492.90 383.00 493.40 382.70 493.80 C 382.50 494.00 382.30 494.20 382.20 494.40 L 381.90 494.70 L 382.00 495.00 L 381.90 495.10 C 381.90 495.10 381.90 495.20 381.80 495.10 L 381.80 495.10 L 381.10 495.10 C 380.30 492.80 379.70 490.50 379.00 488.30 C 378.20 486.20 377.50 484.10 376.40 482.20 C 375.40 480.30 374.20 478.50 372.70 476.90 C 371.20 475.40 369.40 474.00 367.30 472.80 L 367.50 472.10 Z" fill="#ff7f0a" fill-rule="nonzero" group-id="10" node-id="626" stroke="none" target-height="26.200012" target-width="28.100006" target-x="367.3" target-y="472"></path></g><g node-id="881"><path d="M 361.50 414.80 C 363.70 414.50 365.80 414.90 367.80 415.60 C 369.80 416.40 371.80 417.50 373.40 419.10 C 374.20 419.90 374.90 420.80 375.50 421.70 C 376.10 422.70 376.50 423.70 376.90 424.80 C 377.50 426.90 377.60 429.20 377.10 431.20 L 376.60 433.30 L 376.50 431.30 L 376.50 431.30 L 376.50 430.70 L 376.50 430.30 C 376.50 430.00 376.60 429.80 376.70 429.60 C 376.80 429.10 377.00 428.70 377.20 428.20 C 377.60 427.30 378.20 426.50 378.80 425.70 C 379.50 424.90 380.20 424.20 381.10 423.60 C 382.00 423.00 383.00 422.50 384.30 422.30 C 385.50 422.10 386.90 422.40 387.90 423.10 C 388.90 423.80 389.60 424.60 390.10 425.60 C 391.10 427.40 391.60 429.30 391.70 431.20 L 391.10 431.40 C 390.10 429.80 389.20 428.20 388.20 426.90 C 387.70 426.30 387.10 425.80 386.50 425.50 C 385.90 425.20 385.40 425.20 384.80 425.40 C 383.60 425.70 382.30 426.70 381.00 427.90 C 380.40 428.50 379.80 429.10 379.10 429.70 C 378.80 430.00 378.40 430.30 378.10 430.60 C 377.90 430.70 377.70 430.90 377.50 431.00 L 377.20 431.20 L 377.10 431.30 L 377.00 431.30 C 377.00 431.30 377.00 431.30 377.00 431.30 C 377.00 431.30 377.00 431.30 377.00 431.30 C 377.00 431.30 377.00 431.20 377.00 431.20 L 377.00 431.20 L 376.40 431.30 C 375.70 429.30 375.00 427.50 374.10 425.90 C 373.20 424.30 372.10 422.90 370.90 421.60 C 369.60 420.30 368.20 419.10 366.60 418.20 C 365.00 417.20 363.20 416.40 361.40 415.50 L 361.50 414.80 Z" fill="#ff7f0a" fill-rule="nonzero" group-id="11" node-id="631" stroke="none" target-height="18.799988" target-width="30.300018" target-x="361.4" target-y="414.5"></path></g><g node-id="882"><path d="M 534.60 809.10 C 534.60 813.79 485.49 817.60 424.90 817.60 C 364.31 817.60 315.20 813.79 315.20 809.10 C 315.20 804.41 364.31 800.60 424.90 800.60 C 485.49 800.60 534.60 804.41 534.60 809.10 Z" fill="#4d4d4d" fill-opacity="0.11" fill-rule="nonzero" group-id="12" node-id="636" stroke="none" target-height="17" target-width="219.39996" target-x="315.2" target-y="800.6"></path></g><path d="M 856.20 388.20 C 848.70 388.20 842.70 382.10 842.70 374.70 L 842.70 374.70 C 842.70 367.20 848.80 361.20 856.20 361.20 L 905.10 361.20 C 912.60 361.20 918.60 367.30 918.60 374.70 L 918.60 374.70 C 918.60 382.20 912.50 388.20 905.10 388.20" fill="url(#SVGID_10_)" fill-rule="nonzero" node-id="639" stroke="none" target-height="27" target-width="75.89996" target-x="842.7" target-y="361.2"></path><path d="M 880.70 384.20 C 867.80 384.20 857.30 375.30 857.30 364.30 C 857.30 353.30 867.80 344.40 880.70 344.40" fill="url(#SVGID_11_)" fill-rule="nonzero" node-id="641" stroke="none" target-height="39.80002" target-width="23.400024" target-x="857.3" target-y="344.4"></path><path d="M 880.70 344.40 C 893.60 344.40 904.00 353.40 904.00 364.30 C 904.00 375.30 893.50 384.10 880.60 384.10" fill="url(#SVGID_12_)" fill-rule="nonzero" node-id="643" stroke="none" target-height="39.700012" target-width="23.400024" target-x="880.6" target-y="344.4"></path><path d="M 650.80 769.80 L 639.30 769.80 C 637.50 769.80 636.10 768.40 636.10 766.60 L 636.10 625.80 C 636.10 624.00 637.50 622.60 639.30 622.60 L 650.80 622.60 C 652.60 622.60 654.00 624.00 654.00 625.80 L 654.00 766.60 C 654.00 768.40 652.60 769.80 650.80 769.80 Z" fill="#fbb03b" fill-rule="nonzero" group-id="13" node-id="647" stroke="none" target-height="147.20001" target-width="17.900024" target-x="636.1" target-y="622.6"></path><path d="M 664.70 624.90 C 664.70 635.72 655.92 644.50 645.10 644.50 C 634.28 644.50 625.50 635.72 625.50 624.90 C 625.50 614.08 634.28 605.30 645.10 605.30 C 655.92 605.30 664.70 614.08 664.70 624.90 Z" fill="#8cc63f" fill-rule="nonzero" group-id="13,18" node-id="651" stroke="none" target-height="39.200012" target-width="39.200012" target-x="625.5" target-y="605.3"></path><g clip-path="url(#SVGID_14_)" group-id="14" node-id="661"><g clip-path="url(#SVGID_16_)" group-id="14,19,22,23,24" node-id="665"><path d="M 541.00 742.30 C 540.50 742.70 539.90 743.10 539.40 743.50 C 539.30 743.60 539.20 743.60 539.10 743.70 C 539.00 743.70 539.00 743.80 538.90 743.80 C 538.80 743.90 538.70 743.90 538.60 744.00 C 537.30 745.10 536.00 746.30 535.00 747.60 C 534.90 747.70 534.80 747.80 534.70 747.90 C 534.60 748.00 534.50 748.20 534.40 748.30 C 534.30 748.40 534.30 748.50 534.20 748.60 C 534.20 748.60 534.20 748.70 534.10 748.70 C 533.90 748.90 533.80 749.20 533.70 749.40 C 533.40 750.00 533.10 750.60 532.90 751.20 C 532.90 751.30 532.80 751.50 532.80 751.60 C 532.80 751.60 532.80 751.60 532.80 751.60 C 532.80 751.70 532.70 751.90 532.70 752.00 C 532.60 752.30 532.60 752.50 532.50 752.80 C 532.50 752.90 532.50 753.00 532.50 753.10 C 532.40 753.50 532.40 753.90 532.40 754.30 C 532.40 754.40 532.40 754.50 532.40 754.70 C 532.40 754.80 532.40 755.00 532.40 755.10 C 532.40 755.20 532.40 755.40 532.40 755.50 C 532.40 755.80 532.50 756.00 532.50 756.30 C 532.50 756.40 532.50 756.50 532.60 756.60 C 532.80 757.30 533.00 757.90 533.40 758.60 C 533.40 758.70 533.50 758.80 533.50 758.80 C 533.50 758.80 533.60 759.00 533.60 759.00 C 533.70 759.10 533.70 759.20 533.80 759.30 C 534.50 760.50 535.50 761.80 536.80 763.00 C 537.00 763.20 537.20 763.40 537.50 763.60 C 537.90 764.00 538.30 764.30 538.80 764.70 C 538.30 765.50 537.90 766.30 537.30 767.00 C 536.40 768.30 535.40 769.50 534.30 770.60 C 529.30 775.60 522.40 778.70 514.90 778.70 L 337.00 778.70 C 321.90 778.70 309.50 766.30 309.50 751.20 C 309.50 743.60 312.60 736.70 317.60 731.80 C 322.60 726.80 329.50 723.70 337.00 723.70 L 515.00 723.70 C 526.00 723.70 535.50 730.20 539.90 739.50 C 540.30 740.60 540.60 741.40 541.00 742.30" fill="#fbb03b" fill-rule="nonzero" group-id="14,19,22,23,24,49" node-id="667" stroke="none" target-height="55" target-width="231.5" target-x="309.5" target-y="723.7"></path></g><g clip-path="url(#SVGID_18_)" group-id="14,19,22,23,25" node-id="673"><path d="M 542.50 723.90 L 542.50 741.30 L 540.90 742.30 C 540.40 742.70 539.80 743.10 539.30 743.50 C 539.20 743.60 539.10 743.60 539.00 743.70 C 538.90 743.70 538.90 743.80 538.80 743.80 C 538.70 743.90 538.60 743.90 538.50 744.00 C 537.20 745.10 535.90 746.30 534.90 747.60 C 534.80 747.70 534.70 747.80 534.60 747.90 C 534.50 748.00 534.40 748.20 534.30 748.30 C 534.20 748.40 534.20 748.50 534.10 748.60 C 534.10 748.60 534.10 748.70 534.00 748.70 C 533.90 748.90 533.70 749.20 533.60 749.40 C 533.30 750.00 533.00 750.60 532.80 751.20 C 532.80 751.30 532.70 751.50 532.70 751.60 C 532.70 751.60 532.70 751.60 532.70 751.60 C 532.70 751.70 532.60 751.90 532.60 752.00 C 532.50 752.30 532.50 752.50 532.40 752.80 C 532.40 752.90 532.40 753.00 532.40 753.10 C 532.30 753.50 532.30 753.90 532.30 754.30 C 532.30 754.40 532.30 754.50 532.30 754.70 C 532.30 754.80 532.30 755.00 532.30 755.10 C 532.30 755.20 532.30 755.40 532.30 755.50 C 532.30 755.80 532.40 756.00 532.40 756.30 C 532.40 756.40 532.40 756.50 532.50 756.60 C 532.70 757.30 532.90 757.90 533.30 758.60 C 533.30 758.70 533.40 758.80 533.40 758.80 C 533.40 758.90 533.50 758.90 533.50 759.00 C 533.60 759.10 533.60 759.20 533.70 759.30 C 534.40 760.50 535.40 761.80 536.70 763.00 C 536.90 763.20 537.10 763.40 537.40 763.60 C 537.80 764.00 538.20 764.30 538.70 764.70 C 539.10 765.00 539.60 765.40 540.00 765.70 C 540.20 765.80 540.40 766.00 540.50 766.10 C 540.50 766.10 540.60 766.20 540.60 766.20 C 540.80 766.30 540.90 766.40 541.10 766.50 C 541.30 766.70 541.60 766.80 541.80 767.00 L 542.10 767.00 L 542.10 779.00 L 354.60 779.00 L 354.60 724.00 L 542.50 723.90 L 542.50 723.90 Z" fill="#fcdc44" fill-rule="nonzero" group-id="14,19,22,23,25,50" node-id="675" stroke="none" target-height="55.099976" target-width="187.9" target-x="354.6" target-y="723.9"></path></g><g clip-path="url(#SVGID_20_)" group-id="14,19,22,23,26" node-id="681"><path d="M 542.50 741.30 C 542.00 741.60 541.50 742.00 540.90 742.30 L 542.50 741.30 Z" fill="#ffffff" fill-rule="nonzero" group-id="14,19,22,23,26,51" node-id="683" stroke="none" target-height="1" target-width="1.5999756" target-x="540.9" target-y="741.3"></path></g><g clip-path="url(#SVGID_22_)" group-id="14,19,22,23,27" node-id="689"><path d="M 532.60 753.60 C 532.50 754.00 532.50 754.40 532.50 754.80 C 532.50 754.90 532.50 755.00 532.50 755.10 C 532.50 755.20 532.50 755.30 532.50 755.50 C 532.50 755.70 532.50 755.70 532.50 755.90 C 532.50 756.20 532.60 756.40 532.60 756.70 C 532.60 756.80 532.60 756.90 532.70 757.00 C 532.90 757.70 533.10 758.30 533.50 759.00 C 533.50 759.10 533.60 759.20 533.60 759.20 C 533.60 759.30 533.70 759.30 533.70 759.40 C 533.80 759.50 533.80 759.60 533.90 759.70 C 534.60 760.90 535.60 762.10 536.90 763.40 C 537.10 763.60 537.30 763.80 537.60 764.00 C 538.00 764.30 538.40 764.70 538.90 765.00 C 539.30 765.30 539.80 765.70 540.20 766.00 C 540.40 766.10 540.60 766.30 540.70 766.40 C 540.70 766.40 540.80 766.50 540.80 766.50 C 541.00 766.60 541.10 766.70 541.30 766.80 C 541.50 767.00 541.80 767.10 542.00 767.30 L 339.50 767.30 C 334.00 767.30 329.40 762.90 329.40 757.50 L 329.40 750.30 C 329.40 744.90 333.90 740.50 339.50 740.50 L 542.60 740.50 L 542.60 742.00 C 542.10 742.30 541.60 742.70 541.00 743.00 C 540.50 743.40 539.90 743.80 539.40 744.20 C 539.30 744.30 539.20 744.30 539.10 744.40 C 539.00 744.40 539.00 744.50 538.90 744.50 C 538.80 744.60 538.70 744.60 538.60 744.70 C 537.30 745.80 536.00 747.00 535.00 748.20 C 534.90 748.30 534.80 748.40 534.70 748.50 C 534.60 748.60 534.50 748.80 534.40 748.90 C 534.30 749.00 534.30 749.10 534.20 749.20 C 534.20 749.20 534.20 749.30 534.10 749.30 C 534.00 749.50 533.80 749.80 533.70 750.00 C 533.40 750.60 533.10 751.20 532.90 751.80 C 532.90 751.90 532.80 752.10 532.80 752.20 C 532.80 752.20 532.80 752.20 532.80 752.20 C 532.80 752.30 532.70 752.40 532.70 752.60 C 532.60 752.90 532.60 753.10 532.50 753.40 C 532.60 753.40 532.60 753.50 532.60 753.60" fill="#ffffff" fill-rule="nonzero" group-id="14,19,22,23,27,52" node-id="691" stroke="none" target-height="26.799988" target-width="213.19998" target-x="329.4" target-y="740.5"></path></g><g clip-path="url(#SVGID_24_)" group-id="14,19,22,23,28" node-id="697"><path d="M 542.50 767.30 L 542.50 767.50 C 542.40 767.40 542.30 767.40 542.20 767.30 L 542.50 767.30 Z" fill="#ffffff" fill-rule="nonzero" group-id="14,19,22,23,28,53" node-id="699" stroke="none" target-height="0.2000122" target-width="0.2999878" target-x="542.2" target-y="767.3"></path></g><g clip-path="url(#SVGID_26_)" group-id="14,19,22,23,29" node-id="705"><path d="M 360.40 751.30 C 360.40 751.30 366.50 751.00 367.70 752.20 C 370.00 754.70 370.20 762.60 370.20 762.60 L 366.60 758.90 L 362.40 762.60 C 362.30 762.60 362.80 752.10 360.40 751.30" fill="#ff493f" fill-rule="nonzero" group-id="14,19,22,23,29,54" node-id="707" stroke="none" target-height="11.599976" target-width="9.800018" target-x="360.4" target-y="751"></path></g><g clip-path="url(#SVGID_28_)" group-id="14,19,22,23,30" node-id="713"><path d="M 377.30 724.30 L 350.50 724.30 C 347.10 724.30 344.40 721.50 344.40 718.20 L 344.40 586.90 C 344.40 583.50 347.20 580.80 350.50 580.80 L 377.30 580.80 C 380.70 580.80 383.40 583.60 383.40 586.90 L 383.40 718.10 C 383.40 721.50 380.70 724.30 377.30 724.30" fill="#f7931e" fill-rule="nonzero" group-id="14,19,22,23,30,55" node-id="715" stroke="none" target-height="143.5" target-width="39" target-x="344.4" target-y="580.8"></path></g><g clip-path="url(#SVGID_30_)" group-id="14,19,22,23,31" node-id="721"><path d="M 413.30 724.30 L 392.10 724.30 C 388.70 724.30 386.00 721.50 386.00 718.20 L 386.00 604.40 C 386.00 601.00 388.80 598.30 392.10 598.30 L 413.30 598.30 C 416.70 598.30 419.40 601.10 419.40 604.40 L 419.40 718.10 C 419.40 721.50 416.70 724.30 413.30 724.30" fill="#f15a24" fill-rule="nonzero" group-id="14,19,22,23,31,56" node-id="723" stroke="none" target-height="126" target-width="33.399994" target-x="386" target-y="598.3"></path></g><g clip-path="url(#SVGID_32_)" group-id="14,19,22,23,32" node-id="729"><path d="M 442.40 724.30 L 428.60 724.30 C 425.20 724.30 422.50 721.50 422.50 718.20 L 422.50 615.20 C 422.50 611.80 425.30 609.10 428.60 609.10 L 442.40 609.10 C 445.80 609.10 448.50 611.90 448.50 615.20 L 448.50 718.10 C 448.50 721.50 445.80 724.30 442.40 724.30" fill="#e93e00" fill-rule="nonzero" group-id="14,19,22,23,32,57" node-id="731" stroke="none" target-height="115.20001" target-width="26" target-x="422.5" target-y="609.1"></path></g><g clip-path="url(#SVGID_34_)" group-id="14,19,22,23,33" node-id="737"><path d="M 526.90 715.30 L 504.60 725.50 C 501.50 726.90 497.90 725.50 496.50 722.50 L 438.20 595.20 C 436.80 592.10 438.20 588.50 441.20 587.10 L 463.50 576.90 C 466.60 575.50 470.20 576.90 471.60 579.90 L 530.00 707.20 C 531.40 710.30 530.00 713.90 526.90 715.30" fill="#fbc83b" fill-rule="nonzero" group-id="14,19,22,23,33,58" node-id="739" stroke="none" target-height="151.40002" target-width="94.60004" target-x="436.8" target-y="575.5"></path></g><g clip-path="url(#SVGID_36_)" group-id="14,19,22,23,34" node-id="745"><path d="M 344.30 609.10 L 383.40 609.10 L 383.40 619.10 L 344.30 619.10 Z" fill="#e93e00" fill-rule="nonzero" group-id="14,19,22,23,34,59" node-id="747" stroke="none" target-height="10" target-width="39.100006" target-x="344.3" target-y="609.1"></path></g><g clip-path="url(#SVGID_38_)" group-id="14,19,22,23,35" node-id="753"><path d="M 344.30 619.10 L 383.40 619.10 L 383.40 631.40 L 344.30 631.40 Z" fill="#fcdc44" fill-rule="nonzero" group-id="14,19,22,23,35,60" node-id="755" stroke="none" target-height="12.300049" target-width="39.100006" target-x="344.3" target-y="619.1"></path></g><g clip-path="url(#SVGID_40_)" group-id="14,19,22,23,36" node-id="761"><path d="M 344.30 631.40 L 383.40 631.40 L 383.40 639.40 L 344.30 639.40 Z" fill="#e92b00" fill-rule="nonzero" group-id="14,19,22,23,36,61" node-id="763" stroke="none" target-height="8" target-width="39.100006" target-x="344.3" target-y="631.4"></path></g><g clip-path="url(#SVGID_42_)" group-id="14,19,22,23,37" node-id="769"><path d="M 344.30 691.30 L 383.40 691.30 L 383.40 695.80 L 344.30 695.80 Z" fill="#e92b00" fill-rule="nonzero" group-id="14,19,22,23,37,62" node-id="771" stroke="none" target-height="4.5" target-width="39.100006" target-x="344.3" target-y="691.3"></path></g><g clip-path="url(#SVGID_44_)" group-id="14,19,22,23,38" node-id="777"><path d="M 344.30 701.10 L 383.40 701.10 L 383.40 705.20 L 344.30 705.20 Z" fill="#e92b00" fill-rule="nonzero" group-id="14,19,22,23,38,63" node-id="779" stroke="none" target-height="4.1000366" target-width="39.100006" target-x="344.3" target-y="701.1"></path></g><g clip-path="url(#SVGID_46_)" group-id="14,19,22,23,39" node-id="785"><path d="M 386.00 631.40 L 419.40 631.40 L 419.40 661.20 L 386.00 661.20 Z" fill="#fcdc44" fill-rule="nonzero" group-id="14,19,22,23,39,64" node-id="787" stroke="none" target-height="29.799988" target-width="33.399994" target-x="386" target-y="631.4"></path></g><g clip-path="url(#SVGID_48_)" group-id="14,19,22,23,40" node-id="793"><path d="M 386.00 685.40 L 419.40 685.40 L 419.40 691.30 L 386.00 691.30 Z" fill="#fcdc44" fill-rule="nonzero" group-id="14,19,22,23,40,65" node-id="795" stroke="none" target-height="5.8999634" target-width="33.399994" target-x="386" target-y="685.4"></path></g><g clip-path="url(#SVGID_50_)" group-id="14,19,22,23,41" node-id="801"><path d="M 422.50 628.60 L 448.50 628.60 L 448.50 640.40 L 422.50 640.40 Z" fill="#8cc63f" fill-rule="nonzero" group-id="14,19,22,23,41,66" node-id="803" stroke="none" target-height="11.800049" target-width="26" target-x="422.5" target-y="628.6"></path></g><g clip-path="url(#SVGID_52_)" group-id="14,19,22,23,42" node-id="809"><path d="M 422.50 648.20 L 448.50 648.20 L 448.50 652.60 L 422.50 652.60 Z" fill="#8cc63f" fill-rule="nonzero" group-id="14,19,22,23,42,67" node-id="811" stroke="none" target-height="4.3999634" target-width="26" target-x="422.5" target-y="648.2"></path></g><g clip-path="url(#SVGID_54_)" group-id="14,19,22,23,43" node-id="817"><path d="M 422.50 666.70 L 448.50 666.70 L 448.50 690.10 L 422.50 690.10 Z" fill="#8cc63f" fill-rule="nonzero" group-id="14,19,22,23,43,68" node-id="819" stroke="none" target-height="23.399963" target-width="26" target-x="422.5" target-y="666.7"></path></g><g clip-path="url(#SVGID_56_)" group-id="14,19,22,23,44" node-id="825"><path d="M 476.00 614.10 C 476.00 619.40 471.70 623.60 466.50 623.60 C 461.30 623.60 457.00 619.30 457.00 614.10 C 457.00 608.90 461.30 604.60 466.50 604.60 C 471.70 604.60 476.00 608.80 476.00 614.10" fill="#f7931e" fill-rule="nonzero" group-id="14,19,22,23,44,69" node-id="827" stroke="none" target-height="19" target-width="19" target-x="457" target-y="604.6"></path></g><g clip-path="url(#SVGID_58_)" group-id="14,19,22,23,45" node-id="833"><path d="M 472.27 669.47 L 505.63 654.19 L 506.80 656.73 L 473.43 672.02 Z" fill="#8cc63f" fill-rule="nonzero" group-id="14,19,22,23,45,70" node-id="835" stroke="none" target-height="17.830994" target-width="34.53015" target-x="472.26593" target-y="654.1876"></path></g><g clip-path="url(#SVGID_60_)" group-id="14,19,22,23,46" node-id="841"><path d="M 478.08 682.38 L 511.44 667.09 L 512.61 669.64 L 479.24 684.93 Z" fill="#8cc63f" fill-rule="nonzero" group-id="14,19,22,23,46,71" node-id="843" stroke="none" target-height="17.831055" target-width="34.530212" target-x="478.07635" target-y="667.094"></path></g><g clip-path="url(#SVGID_62_)" group-id="14,19,22,23,47" node-id="849"><path d="M 485.25 698.06 L 518.62 682.78 L 519.78 685.32 L 486.42 700.61 Z" fill="#8cc63f" fill-rule="nonzero" group-id="14,19,22,23,47,72" node-id="851" stroke="none" target-height="17.831055" target-width="34.53012" target-x="485.25467" target-y="682.7776"></path></g><g clip-path="url(#SVGID_64_)" group-id="14,19,22,23,48" node-id="857"><path d="M 488.45 704.65 L 521.82 689.36 L 522.98 691.91 L 489.62 707.19 Z" fill="#8cc63f" fill-rule="nonzero" group-id="14,19,22,23,48,73" node-id="859" stroke="none" target-height="17.830994" target-width="34.53015" target-x="488.45398" target-y="689.3628"></path></g></g><path d="M 77.80 336.10 C 64.70 336.10 54.00 325.00 54.00 311.50 L 54.00 311.50 C 54.00 298.00 73.60 312.60 77.80 286.90 C 82.10 261.20 152.50 254.40 163.90 286.90 C 175.30 319.40 187.80 298.00 187.80 311.50 L 187.80 311.50 C 187.80 325.00 177.10 336.10 163.90 336.10" fill="url(#SVGID_65_)" fill-opacity="0.56" fill-rule="nonzero" group-id="15" node-id="869" stroke="none" target-height="81.70001" target-width="133.8" target-x="54" target-y="254.4"></path></svg>