<?xml version="1.0" standalone="no"?><!DOCTYPE svg PUBLIC "-//W3C//DTD SVG 1.1//EN" "http://www.w3.org/Graphics/SVG/1.1/DTD/svg11.dtd"><svg height="1024" node-id="1" sillyvg="true" template-height="1024" template-width="1024" version="1.1" viewBox="0 0 1024 1024" width="1024" xmlns="http://www.w3.org/2000/svg" xmlns:xlink="http://www.w3.org/1999/xlink"><defs node-id="101"><linearGradient gradientUnits="userSpaceOnUse" id="SVGID_1_" node-id="19" spreadMethod="pad" x1="781.44" x2="781.44" y1="-715.92" y2="-890.56"><stop offset="0.1877" stop-color="#ffffff" stop-opacity="0"></stop><stop offset="1" stop-color="#f7931e"></stop></linearGradient><linearGradient gradientUnits="userSpaceOnUse" id="SVGID_2_" node-id="23" spreadMethod="pad" x1="816.36" x2="816.36" y1="-766.3" y2="-940.94"><stop offset="0.1877" stop-color="#ffffff" stop-opacity="0"></stop><stop offset="1" stop-color="#f7931e"></stop></linearGradient><linearGradient gradientUnits="userSpaceOnUse" id="SVGID_3_" node-id="27" spreadMethod="pad" x1="216.44" x2="216.44" y1="-517.28" y2="-794.58"><stop offset="0.1877" stop-color="#ffffff" stop-opacity="0"></stop><stop offset="1" stop-color="#f7931e"></stop></linearGradient><linearGradient gradientUnits="userSpaceOnUse" id="SVGID_4_" node-id="31" spreadMethod="pad" x1="289" x2="289" y1="-560.51" y2="-845.79"><stop offset="0.1877" stop-color="#ffffff" stop-opacity="0"></stop><stop offset="1" stop-color="#f7931e"></stop></linearGradient><linearGradient gradientUnits="userSpaceOnUse" id="SVGID_5_" node-id="35" spreadMethod="pad" x1="312.08" x2="312.08" y1="-507.4" y2="-762.14"><stop offset="0.1877" stop-color="#ffffff" stop-opacity="0"></stop><stop offset="1" stop-color="#f7931e"></stop></linearGradient><linearGradient gradientUnits="userSpaceOnUse" id="SVGID_6_" node-id="39" spreadMethod="pad" x1="511.9" x2="511.9" y1="-80.72" y2="-316.88"><stop offset="0.1877" stop-color="#ffffff" stop-opacity="0"></stop><stop offset="1" stop-color="#f7931e"></stop></linearGradient><linearGradient gradientUnits="userSpaceOnUse" id="SVGID_7_" node-id="46" spreadMethod="pad" x1="119.61" x2="119.61" y1="-168.3614" y2="-203.8914"><stop offset="0" stop-color="#ffffff" stop-opacity="0"></stop><stop offset="0.1029" stop-color="#fffcf6" stop-opacity="0.1029"></stop><stop offset="0.2676" stop-color="#fef2df" stop-opacity="0.2676"></stop><stop offset="0.4736" stop-color="#fee3b9" stop-opacity="0.4736"></stop><stop offset="0.7128" stop-color="#fccd84" stop-opacity="0.7128"></stop><stop offset="0.977" stop-color="#fbb241" stop-opacity="0.977"></stop><stop offset="1" stop-color="#fbb03b"></stop></linearGradient><linearGradient gradientUnits="userSpaceOnUse" id="SVGID_8_" node-id="58" spreadMethod="pad" x1="837.915" x2="837.915" y1="-154.6934" y2="-178.3724"><stop offset="0.0114" stop-color="#ffffff" stop-opacity="0"></stop><stop offset="0.1132" stop-color="#fffcf6" stop-opacity="0.1029"></stop><stop offset="0.276" stop-color="#fef2df" stop-opacity="0.2676"></stop><stop offset="0.4796" stop-color="#fee3b9" stop-opacity="0.4736"></stop><stop offset="0.7161" stop-color="#fccd84" stop-opacity="0.7128"></stop><stop offset="0.9773" stop-color="#fbb241" stop-opacity="0.977"></stop><stop offset="1" stop-color="#fbb03b"></stop></linearGradient><linearGradient gradientUnits="userSpaceOnUse" id="SVGID_9_" node-id="69" spreadMethod="pad" x1="905.34" x2="905.34" y1="-139.6683" y2="-157.905"><stop offset="0" stop-color="#ffffff" stop-opacity="0"></stop><stop offset="0.1029" stop-color="#fffcf6" stop-opacity="0.1029"></stop><stop offset="0.2676" stop-color="#fef2df" stop-opacity="0.2676"></stop><stop offset="0.4736" stop-color="#fee3b9" stop-opacity="0.4736"></stop><stop offset="0.7128" stop-color="#fccd84" stop-opacity="0.7128"></stop><stop offset="0.977" stop-color="#fbb241" stop-opacity="0.977"></stop><stop offset="1" stop-color="#fbb03b"></stop></linearGradient></defs><g node-id="308"><path d="M 740.50 424.00 C 740.50 443.50 724.70 459.30 705.20 459.30 C 685.70 459.30 669.90 443.50 669.90 424.00 C 669.90 404.50 685.70 388.70 705.20 388.70 C 724.70 388.70 740.50 404.50 740.50 424.00 Z" fill="#ffd002" fill-rule="nonzero" group-id="1" node-id="190" stroke="none" target-height="70.599976" target-width="70.599976" target-x="669.9" target-y="388.7"></path><path d="M 700.30 411.70 C 697.20 415.80 694.20 419.90 691.10 424.00 C 694.50 428.80 697.90 433.50 701.30 438.30" fill="none" group-id="1" node-id="192" stroke="#ffffff" stroke-linecap="butt" stroke-width="5" target-height="26.599976" target-width="10.200012" target-x="691.1" target-y="411.7"></path><path d="M 691.30 424.00 C 702.90 424.00 714.50 424.00 726.00 424.00" fill="none" group-id="1" node-id="194" stroke="#ffffff" stroke-linecap="butt" stroke-width="5" target-height="0" target-width="34.700012" target-x="691.3" target-y="424"></path><path d="M 754.10 574.80 L 628.20 574.80 C 616.50 574.80 607.00 565.30 607.00 553.60 L 607.00 489.00 C 607.00 477.30 616.50 467.80 628.20 467.80 L 754.00 467.80 C 765.70 467.80 775.20 477.30 775.20 489.00 L 775.20 553.60 C 775.30 565.30 765.80 574.80 754.10 574.80 Z" fill="#ffd002" fill-rule="nonzero" group-id="1" node-id="196" stroke="none" target-height="107" target-width="168.29999" target-x="607" target-y="467.8"></path><path d="M 755.40 531.30 L 712.90 531.30 C 710.70 531.30 708.90 529.50 708.90 527.30 L 708.90 527.30 C 708.90 525.10 710.70 523.30 712.90 523.30 L 755.40 523.30 C 757.60 523.30 759.40 525.10 759.40 527.30 L 759.40 527.30 C 759.40 529.50 757.60 531.30 755.40 531.30 Z" fill="#ffffff" fill-rule="nonzero" group-id="1" node-id="198" stroke="none" target-height="8" target-width="50.5" target-x="708.9" target-y="523.3"></path><path d="M 755.40 547.50 L 693.20 547.50 C 691.00 547.50 689.20 545.70 689.20 543.50 L 689.20 543.50 C 689.20 541.30 691.00 539.50 693.20 539.50 L 755.40 539.50 C 757.60 539.50 759.40 541.30 759.40 543.50 L 759.40 543.50 C 759.40 545.70 757.60 547.50 755.40 547.50 Z" fill="#ffffff" fill-rule="nonzero" group-id="1" node-id="200" stroke="none" target-height="8" target-width="70.20001" target-x="689.2" target-y="539.5"></path><path d="M 755.40 562.80 L 678.00 562.80 C 675.80 562.80 674.00 561.00 674.00 558.80 L 674.00 558.80 C 674.00 556.60 675.80 554.80 678.00 554.80 L 755.40 554.80 C 757.60 554.80 759.40 556.60 759.40 558.80 L 759.40 558.80 C 759.40 561.00 757.60 562.80 755.40 562.80 Z" fill="#ffffff" fill-rule="nonzero" group-id="1" node-id="202" stroke="none" target-height="8" target-width="85.400024" target-x="674" target-y="554.8"></path><g node-id="317"><path d="M 686.80 497.50 C 690.80 501.40 689.20 504.80 683.80 504.30 C 684.20 509.40 681.00 510.80 677.60 506.70 C 673.70 510.70 670.30 509.10 670.80 503.70 C 665.60 504.10 664.30 500.90 668.40 497.50 C 664.40 493.80 665.80 490.50 671.10 491.00 C 670.60 485.70 673.90 484.30 677.60 488.30 C 681.30 484.30 684.60 485.70 684.10 491.00 C 689.30 490.60 690.80 493.90 686.80 497.50 Z" fill="#ffffff" fill-rule="nonzero" group-id="1,10" node-id="206" stroke="none" target-height="26.5" target-width="26.5" target-x="664.3" target-y="484.3"></path></g><g node-id="318"><path d="M 648.80 497.50 L 663.00 497.50 L 674.00 516.20 L 648.80 538.40 Z" fill="#ff5028" fill-rule="nonzero" group-id="1,11" node-id="211" stroke="none" target-height="40.900024" target-width="25.200012" target-x="648.8" target-y="497.5"></path></g><path d="M 648.90 497.50 L 634.70 497.50 L 623.70 516.20 L 648.90 538.40 Z" fill="#ff5028" fill-rule="nonzero" group-id="1" node-id="214" stroke="none" target-height="40.900024" target-width="25.200012" target-x="623.7" target-y="497.5"></path><path d="M 639.90 507.70 L 648.50 524.50 L 657.80 507.70" fill="none" group-id="1" node-id="216" stroke="#ffffff" stroke-linecap="butt" stroke-width="3" target-height="16.799988" target-width="17.899963" target-x="639.9" target-y="507.7"></path></g><path d="M 801.10 219.80 C 801.10 268.01 792.28 307.10 781.40 307.10 C 770.52 307.10 761.70 268.01 761.70 219.80 C 761.70 171.59 770.52 132.50 781.40 132.50 C 792.28 132.50 801.10 171.59 801.10 219.80 Z" fill="url(#SVGID_1_)" fill-rule="nonzero" node-id="219" stroke="none" target-height="174.6" target-width="39.399963" target-x="761.7" target-y="132.5"></path><path d="M 836.10 169.40 C 836.10 217.61 827.28 256.70 816.40 256.70 C 805.52 256.70 796.70 217.61 796.70 169.40 C 796.70 121.19 805.52 82.10 816.40 82.10 C 827.28 82.10 836.10 121.19 836.10 169.40 Z" fill="url(#SVGID_2_)" fill-rule="nonzero" node-id="221" stroke="none" target-height="174.6" target-width="39.399963" target-x="796.7" target-y="82.1"></path><path d="M 247.70 367.10 C 247.70 443.65 233.69 505.70 216.40 505.70 C 199.11 505.70 185.10 443.65 185.10 367.10 C 185.10 290.55 199.11 228.50 216.40 228.50 C 233.69 228.50 247.70 290.55 247.70 367.10 Z" fill="url(#SVGID_3_)" fill-rule="nonzero" node-id="223" stroke="none" target-height="277.2" target-width="62.59999" target-x="185.1" target-y="228.5"></path><path d="M 333.00 319.90 C 333.00 398.66 313.30 462.50 289.00 462.50 C 264.70 462.50 245.00 398.66 245.00 319.90 C 245.00 241.14 264.70 177.30 289.00 177.30 C 313.30 177.30 333.00 241.14 333.00 319.90 Z" fill="url(#SVGID_4_)" fill-rule="nonzero" node-id="225" stroke="none" target-height="285.2" target-width="88" target-x="245" target-y="177.3"></path><path d="M 340.80 388.20 C 340.80 458.56 327.95 515.60 312.10 515.60 C 296.25 515.60 283.40 458.56 283.40 388.20 C 283.40 317.84 296.25 260.80 312.10 260.80 C 327.95 260.80 340.80 317.84 340.80 388.20 Z" fill="url(#SVGID_5_)" fill-rule="nonzero" node-id="227" stroke="none" target-height="254.79999" target-width="57.399994" target-x="283.4" target-y="260.8"></path><path d="M 979.70 824.20 C 979.70 855.52 930.41 885.56 842.68 907.71 C 754.96 929.86 635.97 942.30 511.90 942.30 C 387.83 942.30 268.84 929.86 181.12 907.71 C 93.39 885.56 44.10 855.52 44.10 824.20 C 44.10 792.88 93.39 762.84 181.12 740.69 C 268.84 718.54 387.83 706.10 511.90 706.10 C 635.97 706.10 754.96 718.54 842.68 740.69 C 930.41 762.84 979.70 792.88 979.70 824.20 Z" fill="url(#SVGID_6_)" fill-rule="nonzero" node-id="229" stroke="none" target-height="236.20001" target-width="935.60004" target-x="44.1" target-y="706.1"></path><path d="M 102.50 738.20 L 89.90 782.00 C 86.60 793.60 95.30 805.20 107.40 805.20 L 132.50 805.20 C 144.60 805.20 153.30 793.60 150.00 782.00 L 137.40 738.30 C 132.40 720.70 107.50 720.70 102.50 738.20 Z" fill="#fbb03b" fill-opacity="0.87" fill-rule="nonzero" group-id="2,12" node-id="235" stroke="none" target-height="84.5" target-width="66.700005" target-x="86.6" target-y="720.7"></path><path d="M 120.60 853.50 L 118.70 853.50 C 115.50 853.50 112.90 850.90 112.90 847.70 L 112.90 805.20 L 126.40 805.20 L 126.40 847.70 C 126.40 850.90 123.80 853.50 120.60 853.50 Z" fill="url(#SVGID_7_)" fill-opacity="0.87" fill-rule="nonzero" group-id="2,12" node-id="237" stroke="none" target-height="48.299988" target-width="13.5" target-x="112.9" target-y="805.2"></path><path d="M 822.40 779.70 L 806.80 808.50 C 800.20 820.60 809.00 835.40 822.80 835.40 L 854.00 835.40 C 867.80 835.40 876.60 820.60 870.00 808.50 L 854.40 779.70 C 847.50 767.00 829.30 767.00 822.40 779.70 Z" fill="#fbb03b" fill-opacity="0.68" fill-rule="nonzero" group-id="2,13,14" node-id="244" stroke="none" target-height="68.400024" target-width="76.39996" target-x="800.2" target-y="767"></path><path d="M 839.10 867.50 L 836.60 867.50 C 832.60 867.50 829.30 864.20 829.30 860.20 L 829.30 835.30 L 846.30 835.30 L 846.30 860.20 C 846.40 864.30 843.20 867.50 839.10 867.50 Z" fill="url(#SVGID_8_)" fill-opacity="0.68" fill-rule="nonzero" group-id="2,13,14" node-id="246" stroke="none" target-height="32.200012" target-width="17.100037" target-x="829.3" target-y="835.3"></path><path d="M 889.70 821.70 L 884.60 831.10 C 878.00 843.20 886.80 857.90 900.50 857.90 L 910.70 857.90 C 924.50 857.90 933.20 843.20 926.60 831.10 L 921.50 821.70 C 914.80 809.10 896.60 809.10 889.70 821.70 Z" fill="#fbb03b" fill-opacity="0.68" fill-rule="nonzero" group-id="2,13,15" node-id="251" stroke="none" target-height="48.80005" target-width="55.200012" target-x="878" target-y="809.1"></path><path d="M 906.30 882.70 L 904.40 882.70 C 901.30 882.70 898.80 880.20 898.80 877.10 L 898.80 858.00 L 911.90 858.00 L 911.90 877.20 C 911.90 880.20 909.40 882.70 906.30 882.70 Z" fill="url(#SVGID_9_)" fill-opacity="0.68" fill-rule="nonzero" group-id="2,13,15" node-id="253" stroke="none" target-height="24.700012" target-width="13.100037" target-x="898.8" target-y="858"></path><path d="M 261.50 249.00 C 262.80 248.90 264.10 249.20 265.30 249.60 C 266.50 250.00 267.70 250.70 268.70 251.40 C 270.80 252.90 272.70 254.90 273.90 257.20 C 275.20 259.50 275.90 262.00 276.20 264.50 C 276.50 267.00 276.40 269.50 275.80 272.00 L 275.00 275.10 L 275.00 272.10 L 275.00 272.10 L 275.00 271.80 L 275.00 271.70 L 275.00 271.50 L 275.00 271.00 C 275.00 270.70 275.00 270.40 275.10 270.10 C 275.20 269.50 275.30 268.90 275.40 268.40 C 275.70 267.30 276.20 266.20 276.70 265.20 C 277.30 264.20 277.90 263.20 278.70 262.20 C 279.10 261.70 279.60 261.30 280.20 260.80 C 280.80 260.40 281.50 260.00 282.40 259.80 C 283.30 259.60 284.40 259.80 285.10 260.20 C 285.90 260.60 286.40 261.20 286.80 261.70 C 287.60 262.80 288.10 264.00 288.40 265.10 C 289.10 267.30 289.40 269.60 289.30 271.90 L 288.60 272.00 C 287.60 270.00 286.90 267.90 285.90 266.10 C 285.40 265.20 284.90 264.30 284.30 263.70 C 284.00 263.40 283.70 263.20 283.50 263.20 C 283.30 263.10 283.20 263.20 283.00 263.20 C 282.60 263.30 281.90 263.80 281.30 264.50 C 280.70 265.20 280.10 266.00 279.50 266.80 C 278.90 267.70 278.40 268.50 277.70 269.40 C 277.40 269.80 277.00 270.30 276.70 270.70 C 276.50 270.90 276.30 271.10 276.20 271.30 L 275.90 271.60 L 276.00 272.00 L 275.90 272.10 C 275.90 272.10 275.90 272.20 275.80 272.10 L 275.80 272.10 L 275.10 272.10 C 274.30 269.80 273.70 267.50 273.00 265.30 C 272.20 263.20 271.50 261.10 270.40 259.20 C 269.40 257.30 268.20 255.50 266.70 253.90 C 265.20 252.40 263.40 251.00 261.30 249.80 L 261.50 249.00 Z" fill="#ff7f0a" fill-rule="nonzero" group-id="3" node-id="260" stroke="none" target-height="26.200012" target-width="28.100006" target-x="261.3" target-y="248.9"></path><path d="M 328.60 340.70 C 331.00 340.30 333.40 340.60 335.70 341.20 C 338.00 341.80 340.30 342.70 342.40 344.20 C 344.40 345.70 346.20 347.60 347.20 350.00 C 348.30 352.30 348.50 354.90 348.00 357.30 L 347.50 359.40 L 347.30 357.40 L 347.30 357.40 C 347.30 357.30 347.30 357.30 347.30 357.20 L 347.30 357.20 L 347.30 357.10 L 347.30 357.00 L 347.30 356.80 L 347.40 356.40 C 347.50 356.10 347.60 355.90 347.70 355.60 C 347.90 355.10 348.20 354.60 348.50 354.10 C 349.10 353.20 349.80 352.30 350.70 351.60 C 352.40 350.10 354.40 348.70 357.00 348.40 C 358.30 348.30 359.70 348.40 360.90 348.90 C 362.10 349.40 363.10 350.30 363.90 351.20 C 365.40 353.10 366.10 355.20 366.40 357.30 L 365.80 357.50 C 364.60 355.80 363.40 354.10 362.00 352.90 C 360.60 351.70 359.10 351.30 357.60 351.60 C 356.10 352.00 354.50 352.90 352.90 354.00 C 352.10 354.60 351.40 355.20 350.60 355.80 C 350.20 356.10 349.80 356.40 349.30 356.70 L 348.60 357.10 L 348.20 357.30 L 348.00 357.40 L 347.90 357.40 C 347.90 357.40 347.90 357.40 347.90 357.40 C 347.90 357.40 347.90 357.40 347.90 357.40 C 347.90 357.40 347.90 357.30 347.90 357.20 L 347.90 357.20 L 347.20 357.30 C 346.40 355.10 345.50 353.20 344.30 351.60 C 343.10 350.00 341.70 348.60 340.00 347.40 C 338.40 346.20 336.60 345.10 334.60 344.20 C 332.60 343.30 330.60 342.50 328.50 341.50 L 328.60 340.70 Z" fill="#ff7f0a" fill-rule="nonzero" group-id="4" node-id="265" stroke="none" target-height="19.100006" target-width="37.899994" target-x="328.5" target-y="340.3"></path><path d="M 882.70 189.80 C 884.00 189.70 885.30 190.00 886.50 190.40 C 887.70 190.80 888.90 191.50 889.90 192.20 C 892.00 193.70 893.90 195.70 895.10 198.00 C 896.40 200.30 897.10 202.80 897.40 205.30 C 897.70 207.80 897.60 210.30 897.00 212.70 L 896.20 215.80 L 896.20 212.80 L 896.20 212.80 L 896.20 212.50 L 896.20 212.40 L 896.20 212.20 L 896.20 211.70 C 896.20 211.40 896.20 211.10 896.30 210.80 C 896.40 210.20 896.50 209.60 896.60 209.10 C 896.90 208.00 897.40 206.90 897.90 205.90 C 898.50 204.90 899.10 203.90 899.90 202.90 C 900.30 202.40 900.80 202.00 901.40 201.50 C 902.00 201.10 902.70 200.70 903.60 200.50 C 904.50 200.30 905.60 200.50 906.30 200.90 C 907.10 201.30 907.60 201.90 908.00 202.50 C 908.80 203.60 909.30 204.80 909.60 205.90 C 910.30 208.10 910.60 210.40 910.50 212.70 L 909.80 212.80 C 908.80 210.80 908.10 208.70 907.10 206.90 C 906.60 206.00 906.10 205.10 905.50 204.50 C 905.20 204.20 904.90 204.00 904.70 203.90 C 904.50 203.80 904.40 203.90 904.20 203.90 C 903.80 204.00 903.10 204.50 902.50 205.20 C 901.90 205.90 901.30 206.70 900.70 207.50 C 900.10 208.40 899.60 209.20 898.90 210.10 C 898.60 210.50 898.20 211.00 897.90 211.40 C 897.70 211.60 897.50 211.80 897.40 212.00 L 897.10 212.30 L 896.90 212.40 L 896.80 212.50 C 896.80 212.50 896.80 212.60 896.70 212.40 L 896.70 212.40 L 896.00 212.50 C 895.20 210.20 894.60 207.90 893.90 205.70 C 893.10 203.60 892.40 201.50 891.30 199.60 C 890.30 197.70 889.10 195.90 887.60 194.30 C 886.10 192.80 884.30 191.40 882.30 190.20 L 882.70 189.80 Z" fill="#ff7f0a" fill-rule="nonzero" group-id="5" node-id="270" stroke="none" target-height="26.100006" target-width="28.299988" target-x="882.3" target-y="189.7"></path><path d="M 917.60 259.70 C 919.80 259.40 921.90 259.80 923.90 260.50 C 925.90 261.30 927.90 262.40 929.50 264.00 C 930.30 264.80 931.00 265.70 931.60 266.60 C 932.20 267.60 932.60 268.60 932.90 269.70 C 933.50 271.80 933.60 274.10 933.10 276.10 L 932.60 278.20 L 932.50 276.20 L 932.50 276.20 L 932.50 275.60 L 932.50 275.20 C 932.50 274.90 932.60 274.70 932.70 274.50 C 932.80 274.00 933.00 273.60 933.20 273.10 C 933.60 272.20 934.20 271.40 934.90 270.60 C 935.60 269.80 936.30 269.10 937.20 268.50 C 938.10 267.90 939.10 267.40 940.40 267.20 C 941.60 267.00 943.00 267.30 944.00 268.00 C 945.00 268.70 945.70 269.50 946.20 270.50 C 947.20 272.30 947.70 274.20 947.80 276.10 L 947.20 276.30 C 946.20 274.70 945.30 273.10 944.30 271.80 C 943.80 271.20 943.20 270.70 942.60 270.40 C 942.00 270.10 941.50 270.10 940.90 270.30 C 939.70 270.60 938.40 271.60 937.10 272.80 C 936.50 273.40 935.90 274.00 935.20 274.60 C 934.90 274.90 934.50 275.20 934.20 275.50 C 934.00 275.60 933.80 275.80 933.60 275.90 L 933.30 276.10 L 933.10 276.20 L 933.00 276.20 C 933.00 276.20 933.00 276.20 933.00 276.20 C 933.00 276.20 933.00 276.20 933.00 276.20 C 933.00 276.20 933.00 276.10 933.00 276.10 L 933.00 276.10 L 932.40 276.20 C 931.70 274.20 931.00 272.40 930.10 270.80 C 929.20 269.20 928.10 267.80 926.90 266.50 C 925.60 265.20 924.20 264.00 922.60 263.10 C 921.00 262.20 919.20 261.30 917.40 260.40 L 917.60 259.70 Z" fill="#ff7f0a" fill-rule="nonzero" group-id="6" node-id="275" stroke="none" target-height="18.800018" target-width="30.399963" target-x="917.4" target-y="259.4"></path><path d="M 128.60 417.00 C 129.90 416.90 131.20 417.20 132.40 417.60 C 133.60 418.00 134.80 418.60 135.80 419.40 C 137.90 420.90 139.80 422.90 141.00 425.20 C 142.30 427.50 143.00 430.00 143.30 432.50 C 143.60 435.00 143.50 437.50 142.90 440.00 L 142.10 443.10 L 142.20 440.10 L 142.20 440.10 L 142.20 439.80 L 142.20 439.70 L 142.20 439.50 L 142.20 439.00 C 142.20 438.70 142.20 438.40 142.30 438.10 C 142.40 437.50 142.50 436.90 142.60 436.40 C 142.90 435.30 143.40 434.20 143.90 433.20 C 144.50 432.20 145.10 431.20 146.00 430.20 C 146.40 429.70 146.90 429.30 147.50 428.80 C 148.10 428.40 148.80 428.00 149.70 427.80 C 150.60 427.60 151.60 427.80 152.40 428.20 C 153.20 428.60 153.70 429.20 154.10 429.70 C 154.90 430.80 155.40 432.00 155.70 433.10 C 156.40 435.30 156.70 437.60 156.60 439.90 L 155.90 440.00 C 154.90 438.00 154.20 435.90 153.20 434.10 C 152.70 433.20 152.20 432.30 151.60 431.70 C 151.30 431.40 151.00 431.20 150.80 431.20 C 150.60 431.10 150.50 431.20 150.30 431.20 C 149.90 431.30 149.20 431.80 148.60 432.50 C 148.00 433.20 147.40 434.00 146.80 434.80 C 146.20 435.70 145.70 436.50 145.00 437.40 C 144.70 437.80 144.30 438.30 144.00 438.70 C 143.80 438.90 143.60 439.10 143.40 439.30 L 143.10 439.60 L 143.00 439.70 L 142.90 439.80 C 142.90 439.80 142.90 439.90 142.80 439.80 L 142.80 439.80 L 142.10 439.80 C 141.30 437.50 140.70 435.20 140.00 433.00 C 139.20 430.90 138.50 428.80 137.40 426.90 C 136.40 425.00 135.20 423.20 133.70 421.60 C 132.20 420.10 130.40 418.70 128.30 417.50 L 128.60 417.00 Z" fill="#ff7f0a" fill-rule="nonzero" group-id="7" node-id="280" stroke="none" target-height="26.200012" target-width="28.399994" target-x="128.3" target-y="416.9"></path><path d="M 344.80 664.80 L 429.00 664.80 L 429.00 613.00 L 372.40 613.00 Z" fill="none" group-id="8" node-id="285" stroke="none" target-height="51.799988" target-width="84.20001" target-x="344.8" target-y="613"></path><path d="M 635.40 546.30 L 459.60 546.30 C 442.60 546.30 428.90 560.00 428.90 577.00 L 428.90 594.30 L 428.90 613.00 L 428.90 664.70 L 428.90 702.00 L 676.50 702.00 L 676.50 587.50 C 676.60 564.80 658.10 546.30 635.40 546.30 Z" fill="#fba639" fill-rule="nonzero" group-id="8" node-id="287" stroke="none" target-height="155.70001" target-width="247.69998" target-x="428.9" target-y="546.3"></path><path d="M 344.80 664.80 L 340.80 672.30 L 327.30 665.20 L 327.50 664.80 L 326.30 664.80 L 326.30 702.10 L 429.00 702.10 L 429.00 664.80 Z" fill="#fba639" fill-rule="nonzero" group-id="8" node-id="289" stroke="none" target-height="37.299988" target-width="102.70001" target-x="326.3" target-y="664.8"></path><path d="M 372.40 613.00 L 429.00 613.00 L 429.00 594.30 L 366.50 594.30 L 378.90 600.90 Z" fill="#fba639" fill-rule="nonzero" group-id="8" node-id="291" stroke="none" target-height="18.700012" target-width="62.5" target-x="366.5" target-y="594.3"></path><path d="M 377.60 613.00 L 365.10 613.00 L 365.10 594.30 L 366.50 594.30 L 365.40 593.70 L 327.50 664.80 L 350.00 664.80 Z" fill="#fba639" fill-rule="nonzero" group-id="8" node-id="293" stroke="none" target-height="71.099976" target-width="50.100006" target-x="327.5" target-y="593.7"></path><path d="M 340.80 672.30 L 344.80 664.80 L 327.50 664.80 L 327.30 665.20 Z" fill="#fba639" fill-rule="nonzero" group-id="8" node-id="295" stroke="none" target-height="7.5" target-width="17.5" target-x="327.3" target-y="664.8"></path><path d="M 365.10 613.00 L 372.40 613.00 L 378.90 600.90 L 366.50 594.30 L 365.10 594.30 Z" fill="#fba639" fill-rule="nonzero" group-id="8" node-id="297" stroke="none" target-height="18.700012" target-width="13.799988" target-x="365.1" target-y="594.3"></path><path d="M 393.60 687.20 C 375.60 685.80 360.70 700.70 362.10 718.70 C 363.20 732.90 374.70 744.30 388.90 745.50 C 406.90 746.90 421.80 732.00 420.40 714.00 C 419.20 699.80 407.80 688.30 393.60 687.20 Z M 393.30 732.30 C 382.70 733.60 373.80 724.80 375.20 714.20 C 376.10 707.00 381.90 701.20 389.10 700.30 C 399.70 699.00 408.60 707.80 407.20 718.40 C 406.30 725.60 400.50 731.40 393.30 732.30 Z" fill="#fba639" fill-rule="nonzero" group-id="8" node-id="299" stroke="none" target-height="61.100037" target-width="61.099976" target-x="360.7" target-y="685.8"></path><path d="M 607.70 687.20 C 589.70 685.80 574.80 700.70 576.20 718.70 C 577.30 732.90 588.80 744.30 603.00 745.50 C 621.00 746.90 635.90 732.00 634.50 714.00 C 633.40 699.80 621.90 688.30 607.70 687.20 Z M 607.50 732.30 C 596.90 733.60 588.00 724.80 589.40 714.20 C 590.30 707.00 596.10 701.20 603.30 700.30 C 613.90 699.00 622.80 707.80 621.40 718.40 C 620.50 725.60 614.70 731.40 607.50 732.30 Z" fill="#fba639" fill-rule="nonzero" group-id="8" node-id="301" stroke="none" target-height="61.100037" target-width="61.100037" target-x="574.8" target-y="685.8"></path><path d="M 560.90 591.20 L 529.50 631.30 L 524.30 623.60 L 573.20 615.00 L 583.10 613.30 L 576.40 620.40 L 535.00 664.50 L 535.00 664.50 L 571.30 616.10 L 574.50 621.50 L 526.40 633.40 L 515.20 636.20 L 521.20 625.70 L 546.30 581.50 Z" fill="#ffffff" fill-rule="nonzero" group-id="9" node-id="306" stroke="none" target-height="83" target-width="67.89996" target-x="515.2" target-y="581.5"></path></svg>