<?xml version="1.0" standalone="no"?><!DOCTYPE svg PUBLIC "-//W3C//DTD SVG 1.1//EN" "http://www.w3.org/Graphics/SVG/1.1/DTD/svg11.dtd"><svg height="1230" node-id="1" sillyvg="true" template-height="1230" template-width="1732" version="1.1" viewBox="0 0 1732 1230" width="1732" xmlns="http://www.w3.org/2000/svg" xmlns:xlink="http://www.w3.org/1999/xlink"><defs node-id="75"></defs><path d="M 935.55 580.07 L 1074.14 580.07 C 1111.27 580.07 1141.64 610.45 1141.64 647.57 L 1141.64 1079.57 C 1141.64 1116.70 1111.27 1147.07 1074.14 1147.07 L 421.14 1147.07 C 384.02 1147.07 353.64 1116.70 353.64 1079.57 L 353.64 647.57 C 353.64 610.45 384.02 580.07 421.14 580.07 L 766.00 580.07" fill="#ffffff" fill-rule="nonzero" node-id="77" stroke="none" target-height="566.99994" target-width="787.997" target-x="353.643" target-y="580.07"></path><path d="M 935.55 580.07 L 1074.14 580.07 C 1111.27 580.07 1141.64 610.45 1141.64 647.57 L 1141.64 1079.57 C 1141.64 1116.70 1111.27 1147.07 1074.14 1147.07 L 421.14 1147.07 C 384.02 1147.07 353.64 1116.70 353.64 1079.57 L 353.64 647.57 C 353.64 610.45 384.02 580.07 421.14 580.07 L 766.00 580.07" fill="none" node-id="79" stroke="#000000" stroke-linecap="butt" stroke-width="12" target-height="566.99994" target-width="787.997" target-x="353.643" target-y="580.07"></path><path d="M 1137.14 656.57 L 359.14 656.57 L 359.14 668.57 L 1137.14 668.57 L 1137.14 656.57 Z" fill="#000000" fill-rule="nonzero" node-id="81" stroke="none" target-height="12" target-width="777.997" target-x="359.143" target-y="656.57"></path><path d="M 436.14 713.57 L 504.14 713.57 C 510.74 713.57 516.14 718.97 516.14 725.57 L 516.14 793.57 C 516.14 800.17 510.74 805.57 504.14 805.57 L 436.14 805.57 C 429.54 805.57 424.14 800.17 424.14 793.57 L 424.14 725.57 C 424.14 718.97 429.54 713.57 436.14 713.57 Z" fill="#315bf4" fill-rule="nonzero" node-id="83" stroke="none" target-height="92" target-width="92" target-x="424.143" target-y="713.57"></path><path d="M 436.14 844.57 L 504.14 844.57 C 510.74 844.57 516.14 849.97 516.14 856.57 L 516.14 924.57 C 516.14 931.17 510.74 936.57 504.14 936.57 L 436.14 936.57 C 429.54 936.57 424.14 931.17 424.14 924.57 L 424.14 856.57 C 424.14 849.97 429.54 844.57 436.14 844.57 Z" fill="#315bf4" fill-rule="nonzero" node-id="85" stroke="none" target-height="92" target-width="92" target-x="424.143" target-y="844.57"></path><path d="M 436.14 975.57 L 504.14 975.57 C 510.74 975.57 516.14 980.97 516.14 987.57 L 516.14 1055.57 C 516.14 1062.17 510.74 1067.57 504.14 1067.57 L 436.14 1067.57 C 429.54 1067.57 424.14 1062.17 424.14 1055.57 L 424.14 987.57 C 424.14 980.97 429.54 975.57 436.14 975.57 Z" fill="#315bf4" fill-rule="nonzero" node-id="87" stroke="none" target-height="91.99994" target-width="92" target-x="424.143" target-y="975.57"></path><path d="M 579.14 719.57 L 1063.14 719.57 C 1069.74 719.57 1075.14 724.97 1075.14 731.57 L 1075.14 793.57 C 1075.14 800.17 1069.74 805.57 1063.14 805.57 L 579.14 805.57 C 572.54 805.57 567.14 800.17 567.14 793.57 L 567.14 731.57 C 567.14 724.97 572.54 719.57 579.14 719.57 Z" fill="none" node-id="89" stroke="#d2e9fe" stroke-linecap="butt" stroke-width="10" target-height="86" target-width="507.997" target-x="567.143" target-y="719.57"></path><path d="M 613.30 770.73 C 619.47 770.73 624.47 765.74 624.47 759.57 C 624.47 753.41 619.47 748.41 613.30 748.41 C 607.14 748.41 602.14 753.41 602.14 759.57 C 602.14 765.74 607.14 770.73 613.30 770.73 Z" fill="#315bf4" fill-rule="nonzero" node-id="91" stroke="none" target-height="22.323975" target-width="22.323975" target-x="602.142" target-y="748.408"></path><path d="M 697.24 770.73 C 703.40 770.73 708.40 765.74 708.40 759.57 C 708.40 753.41 703.40 748.41 697.24 748.41 C 691.08 748.41 686.08 753.41 686.08 759.57 C 686.08 765.74 691.08 770.73 697.24 770.73 Z" fill="#ff3f08" fill-rule="nonzero" node-id="93" stroke="none" target-height="22.323975" target-width="22.323975" target-x="686.078" target-y="748.408"></path><path d="M 781.17 770.73 C 787.34 770.73 792.34 765.74 792.34 759.57 C 792.34 753.41 787.34 748.41 781.17 748.41 C 775.01 748.41 770.01 753.41 770.01 759.57 C 770.01 765.74 775.01 770.73 781.17 770.73 Z" fill="#315bf4" fill-rule="nonzero" node-id="95" stroke="none" target-height="22.323975" target-width="22.323975" target-x="770.013" target-y="748.408"></path><path d="M 865.11 770.73 C 871.27 770.73 876.27 765.74 876.27 759.57 C 876.27 753.41 871.27 748.41 865.11 748.41 C 858.95 748.41 853.95 753.41 853.95 759.57 C 853.95 765.74 858.95 770.73 865.11 770.73 Z" fill="#ff3f08" fill-rule="nonzero" node-id="97" stroke="none" target-height="22.323975" target-width="22.323975" target-x="853.948" target-y="748.408"></path><path d="M 949.05 770.73 C 955.21 770.73 960.21 765.74 960.21 759.57 C 960.21 753.41 955.21 748.41 949.05 748.41 C 942.88 748.41 937.88 753.41 937.88 759.57 C 937.88 765.74 942.88 770.73 949.05 770.73 Z" fill="#315bf4" fill-rule="nonzero" node-id="99" stroke="none" target-height="22.323975" target-width="22.324036" target-x="937.884" target-y="748.408"></path><path d="M 1032.98 770.73 C 1039.15 770.73 1044.14 765.74 1044.14 759.57 C 1044.14 753.41 1039.15 748.41 1032.98 748.41 C 1026.82 748.41 1021.82 753.41 1021.82 759.57 C 1021.82 765.74 1026.82 770.73 1032.98 770.73 Z" fill="#ff3f08" fill-rule="nonzero" node-id="101" stroke="none" target-height="22.323975" target-width="22.320007" target-x="1021.82" target-y="748.408"></path><path d="M 922.64 870.57 L 576.64 870.57 C 571.42 870.57 567.14 866.29 567.14 861.07 C 567.14 855.85 571.42 851.57 576.64 851.57 L 922.64 851.57 C 927.87 851.57 932.14 855.85 932.14 861.07 C 932.14 866.29 927.87 870.57 922.64 870.57 Z" fill="#ff3f08" fill-rule="nonzero" node-id="103" stroke="none" target-height="19" target-width="365" target-x="567.143" target-y="851.57"></path><path d="M 877.14 930.57 L 574.14 930.57 C 570.29 930.57 567.14 927.42 567.14 923.57 C 567.14 919.72 570.29 916.57 574.14 916.57 L 877.14 916.57 C 880.99 916.57 884.14 919.72 884.14 923.57 C 884.14 927.42 880.99 930.57 877.14 930.57 Z" fill="#315bf4" fill-rule="nonzero" node-id="105" stroke="none" target-height="14" target-width="317" target-x="567.143" target-y="916.57"></path><path d="M 718.14 996.57 L 578.14 996.57 C 573.74 996.57 570.14 992.97 570.14 988.57 C 570.14 984.17 573.74 980.57 578.14 980.57 L 718.14 980.57 C 722.54 980.57 726.14 984.17 726.14 988.57 C 726.14 992.97 722.54 996.57 718.14 996.57 Z" fill="#315bf4" fill-rule="nonzero" node-id="107" stroke="none" target-height="16" target-width="156" target-x="570.143" target-y="980.57"></path><path d="M 1011.14 1053.57 L 576.14 1053.57 C 572.84 1053.57 570.14 1050.87 570.14 1047.57 C 570.14 1044.27 572.84 1041.57 576.14 1041.57 L 1011.14 1041.57 C 1014.44 1041.57 1017.14 1044.27 1017.14 1047.57 C 1017.14 1050.87 1014.44 1053.57 1011.14 1053.57 Z" fill="#ff3f08" fill-rule="nonzero" node-id="109" stroke="none" target-height="12" target-width="446.997" target-x="570.143" target-y="1041.57"></path><path d="M 446.14 530.57 C 459.40 530.57 470.14 519.83 470.14 506.57 C 470.14 493.31 459.40 482.57 446.14 482.57 C 432.89 482.57 422.14 493.31 422.14 506.57 C 422.14 519.83 432.89 530.57 446.14 530.57 Z" fill="#ff3f08" fill-rule="nonzero" node-id="111" stroke="none" target-height="48" target-width="48" target-x="422.143" target-y="482.57"></path><path d="M 516.14 530.57 C 529.40 530.57 540.14 519.83 540.14 506.57 C 540.14 493.31 529.40 482.57 516.14 482.57 C 502.89 482.57 492.14 493.31 492.14 506.57 C 492.14 519.83 502.89 530.57 516.14 530.57 Z" fill="#315bf4" fill-rule="nonzero" node-id="113" stroke="none" target-height="48" target-width="48" target-x="492.143" target-y="482.57"></path><path d="M 587.14 530.57 C 600.40 530.57 611.14 519.83 611.14 506.57 C 611.14 493.31 600.40 482.57 587.14 482.57 C 573.89 482.57 563.14 493.31 563.14 506.57 C 563.14 519.83 573.89 530.57 587.14 530.57 Z" fill="#315bf4" fill-rule="nonzero" node-id="115" stroke="none" target-height="48" target-width="48" target-x="563.143" target-y="482.57"></path><path d="M 8.14 332.57 L 0.14 332.57 L 0.14 596.57 L 8.14 596.57 L 8.14 332.57 Z" fill="#000000" fill-rule="nonzero" node-id="117" stroke="none" target-height="264" target-width="8.000005" target-x="0.143005" target-y="332.57"></path><path d="M 291.14 588.57 L 0.14 588.57 L 0.14 596.57 L 291.14 596.57 L 291.14 588.57 Z" fill="#000000" fill-rule="nonzero" node-id="119" stroke="none" target-height="8" target-width="291" target-x="0.143005" target-y="588.57"></path><path d="M 91.14 382.57 L 41.14 382.57 L 41.14 588.57 L 91.14 588.57 L 91.14 382.57 Z" fill="#315bf4" fill-rule="nonzero" node-id="121" stroke="none" target-height="206" target-width="49.999996" target-x="41.143" target-y="382.57"></path><path d="M 176.14 463.57 L 126.14 463.57 L 126.14 588.57 L 176.14 588.57 L 176.14 463.57 Z" fill="#ff3f08" fill-rule="nonzero" node-id="123" stroke="none" target-height="125" target-width="50.000008" target-x="126.143" target-y="463.57"></path><path d="M 262.14 421.57 L 212.14 421.57 L 212.14 588.57 L 262.14 588.57 L 262.14 421.57 Z" fill="#315bf4" fill-rule="nonzero" node-id="125" stroke="none" target-height="167" target-width="50" target-x="212.143" target-y="421.57"></path><path d="M 1691.14 510.57 C 1705.48 510.57 1717.14 522.23 1717.14 536.57 C 1717.14 550.91 1705.48 562.57 1691.14 562.57 L 1348.14 562.57 C 1333.81 562.57 1322.14 550.91 1322.14 536.57 C 1322.14 522.23 1333.81 510.57 1348.14 510.57 L 1691.14 510.57 Z M 1691.14 496.57 L 1348.14 496.57 C 1326.14 496.57 1308.14 514.57 1308.14 536.57 C 1308.14 558.57 1326.14 576.57 1348.14 576.57 L 1691.14 576.57 C 1713.14 576.57 1731.14 558.57 1731.14 536.57 C 1731.14 514.57 1713.14 496.57 1691.14 496.57 Z" fill="#ffffff" fill-rule="nonzero" node-id="127" stroke="none" target-height="80" target-width="423" target-x="1308.14" target-y="496.57"></path><g node-id="224"><path d="M 1260.64 457.57 L 1612.64 457.57 C 1632.72 457.57 1649.14 474.00 1649.14 494.07 C 1649.14 514.14 1632.72 530.57 1612.64 530.57 L 1260.64 530.57 C 1240.57 530.57 1224.14 514.14 1224.14 494.07 C 1224.14 473.99 1240.57 457.57 1260.64 457.57 Z" fill="#315bf4" fill-opacity="0.68" fill-rule="nonzero" group-id="1" node-id="131" stroke="none" target-height="73" target-width="425" target-x="1224.14" target-y="457.57"></path></g><path d="M 862.14 211.57 L 1180.14 211.57 C 1204.34 211.57 1224.14 231.37 1224.14 255.57 C 1224.14 279.77 1204.34 299.57 1180.14 299.57 L 862.14 299.57 C 837.94 299.57 818.14 279.77 818.14 255.57 C 818.14 231.37 837.94 211.57 862.14 211.57 Z" fill="none" node-id="134" stroke="#315bf4" stroke-linecap="butt" stroke-width="12" target-height="88" target-width="405.997" target-x="818.143" target-y="211.57"></path><path d="M 900.55 211.20 C 893.49 224.52 888.72 238.82 882.62 252.58 C 876.97 265.34 868.67 278.92 868.14 293.17 C 867.95 298.32 875.95 298.31 876.14 293.17 C 876.40 286.11 879.48 279.25 882.18 272.81 C 884.95 266.23 888.16 259.86 890.96 253.30 C 896.40 240.58 900.96 227.49 907.45 215.24 C 909.86 210.69 902.96 206.64 900.55 211.20 Z" fill="#315bf4" fill-rule="nonzero" node-id="136" stroke="none" target-height="91.67999" target-width="41.91095" target-x="867.952" target-y="206.642"></path><path d="M 880.50 295.19 C 884.49 289.42 888.18 283.35 892.00 277.46 C 896.45 270.60 901.24 264.02 906.25 257.56 C 911.32 251.00 916.56 244.57 921.66 238.04 C 923.87 235.21 926.10 232.39 928.23 229.50 C 930.12 226.92 931.45 223.52 933.86 221.42 C 931.97 219.54 930.09 217.65 928.20 215.77 C 926.57 217.53 925.87 219.13 925.73 221.53 C 925.43 226.68 933.43 226.66 933.73 221.53 C 933.77 221.50 933.82 221.46 933.86 221.42 C 937.39 217.62 932.07 212.40 928.20 215.77 C 925.90 217.77 924.80 220.34 923.18 222.84 C 920.87 226.43 918.05 229.77 915.42 233.12 C 910.30 239.67 905.05 246.13 899.96 252.71 C 895.11 258.98 890.31 265.31 886.00 271.98 C 881.88 278.35 877.90 284.91 873.59 291.16 C 870.66 295.40 877.59 299.41 880.50 295.19 Z" fill="#315bf4" fill-rule="nonzero" node-id="138" stroke="none" target-height="87.00601" target-width="66.73401" target-x="870.657" target-y="212.401"></path><path d="M 926.89 216.31 C 920.74 229.51 916.22 243.37 911.64 257.16 C 909.27 264.29 907.14 271.49 904.96 278.68 C 902.91 285.42 899.57 292.60 898.78 299.57 C 898.19 304.68 906.20 304.63 906.78 299.57 C 907.17 296.09 909.10 292.23 910.15 288.86 C 911.08 285.87 912.04 282.90 912.94 279.90 C 915.03 273.02 917.09 266.12 919.36 259.29 C 923.72 246.16 927.95 232.91 933.80 220.35 C 935.96 215.71 929.07 211.65 926.89 216.31 Z" fill="#315bf4" fill-rule="nonzero" node-id="140" stroke="none" target-height="93.03" target-width="37.769043" target-x="898.191" target-y="211.646"></path><path d="M 946.50 213.76 C 938.57 225.64 933.95 239.90 928.88 253.16 C 923.31 267.70 917.18 282.00 910.96 296.27 C 908.93 300.94 915.82 305.02 917.87 300.31 C 923.85 286.58 929.77 272.81 935.21 258.85 C 940.59 245.06 945.14 230.19 953.40 217.79 C 956.27 213.50 949.34 209.49 946.50 213.76 Z" fill="#315bf4" fill-rule="nonzero" node-id="142" stroke="none" target-height="95.535" target-width="47.33905" target-x="908.928" target-y="209.488"></path><path d="M 924.60 295.36 C 933.83 285.81 941.50 274.97 950.04 264.82 C 954.54 259.47 959.02 254.12 963.71 248.94 C 967.73 244.50 971.12 239.37 975.45 235.24 C 979.17 231.67 973.51 226.02 969.79 229.58 C 965.46 233.72 962.08 238.84 958.05 243.28 C 953.36 248.47 948.89 253.81 944.39 259.16 C 935.84 269.32 928.17 280.16 918.94 289.71 C 915.36 293.41 921.01 299.07 924.60 295.36 Z" fill="#315bf4" fill-rule="nonzero" node-id="144" stroke="none" target-height="73.05199" target-width="63.817017" target-x="915.358" target-y="226.02"></path><path d="M 976.67 217.32 C 976.84 217.13 977.01 216.93 977.18 216.73 C 974.95 216.14 972.72 215.56 970.49 214.97 C 971.39 220.93 969.96 227.35 969.26 233.28 C 968.51 239.59 967.60 245.89 966.96 252.22 C 965.66 265.08 964.94 277.69 964.94 290.62 C 964.94 295.76 972.94 295.77 972.94 290.62 C 972.94 277.06 973.71 263.80 975.16 250.31 C 976.46 238.18 980.03 225.02 978.21 212.84 C 977.77 209.92 973.35 208.94 971.52 211.08 C 971.35 211.27 971.18 211.47 971.01 211.67 C 967.68 215.56 973.31 221.24 976.67 217.32 Z" fill="#315bf4" fill-rule="nonzero" node-id="146" stroke="none" target-height="86.834" target-width="15.094971" target-x="964.939" target-y="208.938"></path><path d="M 971.57 294.88 C 975.25 280.96 982.58 269.40 989.45 256.95 C 992.77 250.94 996.49 245.25 1000.48 239.66 C 1004.42 234.15 1008.18 226.99 1013.66 222.93 C 1012.05 220.83 1010.43 218.74 1008.81 216.65 C 1005.32 220.89 1004.45 227.47 1003.32 232.69 C 1001.83 239.52 1000.67 246.53 999.38 253.40 C 998.17 259.83 997.20 266.42 996.58 272.94 C 995.98 279.22 995.37 286.54 996.47 292.77 C 997.08 296.25 1002.18 296.54 1003.78 293.73 C 1003.95 293.43 1004.13 293.12 1004.30 292.82 C 1001.81 292.14 999.33 291.47 996.85 290.80 C 996.71 292.64 995.67 294.29 995.57 296.23 C 995.28 301.41 1003.13 301.29 1003.57 296.23 C 1003.81 293.45 1006.09 290.11 1007.17 287.56 C 1008.59 284.20 1009.96 280.98 1011.62 277.70 C 1014.91 271.18 1017.40 264.26 1020.56 257.68 C 1023.55 251.45 1026.88 245.39 1030.04 239.24 C 1031.57 236.26 1033.03 233.24 1034.77 230.37 C 1036.15 228.09 1037.31 225.20 1039.10 223.25 C 1036.87 221.95 1034.64 220.65 1032.41 219.35 C 1031.07 225.43 1030.05 230.95 1029.90 237.21 C 1029.75 243.42 1029.88 250.16 1028.98 256.27 C 1028.05 262.64 1028.84 269.10 1028.37 275.51 C 1027.89 281.94 1027.53 288.46 1027.43 294.91 C 1030.10 294.91 1032.77 294.91 1035.43 294.91 C 1035.43 294.76 1035.43 294.61 1035.43 294.45 C 1035.43 289.31 1027.43 289.30 1027.43 294.45 C 1027.43 294.60 1027.43 294.76 1027.43 294.91 C 1027.43 300.06 1035.35 300.06 1035.43 294.91 C 1035.53 288.78 1035.81 282.54 1036.29 276.43 C 1036.80 269.91 1036.14 263.35 1036.98 256.88 C 1037.67 251.56 1037.39 246.07 1037.75 240.71 C 1038.20 234.00 1038.67 228.06 1040.13 221.48 C 1040.95 217.80 1036.29 214.48 1033.44 217.59 C 1029.40 222.01 1026.65 228.30 1023.95 233.60 C 1020.27 240.83 1016.32 247.92 1012.88 255.27 C 1009.39 262.72 1006.23 270.26 1002.58 277.63 C 1000.93 280.98 999.70 284.61 998.25 288.06 C 997.12 290.78 995.82 293.27 995.57 296.23 C 998.23 296.23 1000.90 296.23 1003.57 296.23 C 1003.67 294.40 1004.71 292.70 1004.85 290.80 C 1005.13 286.75 999.28 285.47 997.39 288.78 C 997.22 289.08 997.04 289.39 996.87 289.69 C 999.31 290.01 1001.75 290.33 1004.18 290.65 C 1003.28 285.54 1004.05 279.02 1004.50 273.86 C 1005.03 267.75 1005.96 261.56 1007.09 255.53 C 1008.07 250.32 1009.44 245.25 1010.17 240.00 C 1010.62 236.68 1011.33 233.48 1012.12 230.23 C 1012.67 227.98 1012.98 224.12 1014.47 222.30 C 1017.10 219.10 1013.57 213.09 1009.63 216.02 C 1004.02 220.18 1000.92 225.77 996.79 231.27 C 991.97 237.70 987.30 244.30 983.40 251.35 C 975.90 264.89 967.86 277.61 963.86 292.75 C 962.54 297.73 970.26 299.86 971.57 294.88 Z" fill="#315bf4" fill-rule="nonzero" node-id="148" stroke="none" target-height="88.31601" target-width="78.405945" target-x="962.544" target-y="213.095"></path><path d="M 1056.16 216.95 C 1049.08 229.59 1046.20 244.01 1041.85 257.77 C 1037.58 271.26 1032.17 284.79 1030.50 298.93 C 1029.89 304.03 1037.90 303.99 1038.50 298.93 C 1040.08 285.57 1045.54 272.63 1049.56 259.90 C 1053.69 246.84 1056.35 232.98 1063.07 220.99 C 1065.59 216.50 1058.68 212.46 1056.16 216.95 Z" fill="#315bf4" fill-rule="nonzero" node-id="150" stroke="none" target-height="91.57599" target-width="35.69995" target-x="1029.89" target-y="212.457"></path><path d="M 1058.06 217.06 C 1058.06 230.47 1058.16 243.84 1057.40 257.24 C 1056.64 270.89 1055.69 284.62 1055.61 298.29 C 1055.58 303.44 1063.58 303.45 1063.61 298.29 C 1063.69 284.62 1064.64 270.89 1065.40 257.24 C 1066.16 243.84 1066.06 230.47 1066.06 217.06 C 1066.06 211.91 1058.06 211.90 1058.06 217.06 Z" fill="#315bf4" fill-rule="nonzero" node-id="152" stroke="none" target-height="91.54799" target-width="10.580078" target-x="1055.58" target-y="211.899"></path><path d="M 1083.73 217.59 C 1078.25 230.31 1073.34 244.25 1070.12 257.74 C 1068.42 264.89 1066.05 271.84 1064.42 279.02 C 1063.58 282.74 1062.85 286.47 1062.16 290.22 C 1061.62 293.15 1060.45 296.31 1060.60 299.29 C 1060.78 303.14 1066.00 304.89 1068.05 301.31 C 1071.96 294.48 1075.30 287.41 1079.36 280.62 C 1083.69 273.40 1088.21 266.31 1092.83 259.28 C 1097.70 251.87 1102.61 244.49 1107.48 237.08 C 1109.74 233.65 1112.49 230.28 1114.46 226.69 C 1116.05 223.79 1117.27 220.90 1119.95 218.77 C 1117.68 217.82 1115.40 216.88 1113.12 215.94 C 1113.30 217.65 1110.37 220.99 1109.58 222.38 C 1108.08 225.02 1107.14 227.98 1106.01 230.78 C 1103.14 237.86 1101.12 245.22 1098.32 252.33 C 1095.42 259.69 1092.81 267.27 1089.44 274.43 C 1087.33 278.89 1084.18 284.04 1084.59 289.22 C 1084.85 292.38 1087.76 294.01 1090.61 292.67 C 1093.37 291.38 1094.07 288.88 1095.55 286.45 C 1097.48 283.27 1100.22 280.61 1102.29 277.50 C 1106.13 271.73 1109.40 265.79 1112.84 259.79 C 1116.83 252.83 1120.80 245.82 1124.89 238.91 C 1126.91 235.49 1129.20 232.24 1131.02 228.71 C 1132.17 226.47 1133.99 222.02 1136.16 220.53 C 1134.20 219.02 1132.25 217.51 1130.29 216.01 C 1128.08 222.18 1124.72 228.14 1122.08 234.15 C 1119.13 240.87 1116.43 247.84 1113.83 254.70 C 1111.30 261.34 1108.46 267.76 1106.69 274.67 C 1105.80 278.14 1104.88 281.59 1103.30 284.84 C 1101.89 287.74 1100.47 289.67 1100.34 292.98 C 1103.01 292.98 1105.67 292.98 1108.34 292.98 C 1108.34 292.40 1108.34 291.83 1108.34 291.26 C 1108.33 286.11 1100.33 286.10 1100.34 291.26 C 1100.34 291.83 1100.34 292.40 1100.34 292.98 C 1100.35 298.14 1108.14 298.11 1108.34 292.98 C 1108.44 290.43 1111.22 286.76 1112.17 284.27 C 1113.42 281.00 1114.12 277.62 1115.05 274.26 C 1116.86 267.70 1119.72 261.40 1122.21 255.08 C 1124.83 248.43 1127.40 241.59 1130.41 235.12 C 1133.00 229.55 1135.93 223.90 1138.00 218.13 C 1139.15 214.93 1134.94 211.69 1132.13 213.62 C 1127.38 216.88 1125.08 223.35 1122.22 228.10 C 1117.74 235.55 1113.47 243.14 1108.83 250.50 C 1105.29 256.11 1102.56 262.12 1098.89 267.63 C 1096.79 270.79 1095.10 274.07 1092.71 277.06 C 1091.65 278.38 1090.51 279.65 1089.54 281.05 C 1088.79 282.14 1087.83 285.17 1086.57 285.76 C 1088.58 286.91 1090.59 288.06 1092.59 289.22 C 1092.16 283.87 1096.66 278.04 1098.62 273.27 C 1101.63 265.94 1104.64 258.54 1107.31 251.08 C 1109.81 244.11 1112.03 237.13 1114.79 230.25 C 1116.49 226.00 1121.60 220.67 1121.12 215.94 C 1120.76 212.31 1117.10 210.89 1114.30 213.11 C 1112.09 214.86 1110.20 217.49 1108.80 219.93 C 1106.87 223.29 1104.89 226.50 1102.73 229.75 C 1097.47 237.69 1092.24 245.64 1087.01 253.59 C 1082.19 260.92 1077.44 268.28 1072.93 275.80 C 1068.70 282.85 1065.21 290.17 1061.14 297.27 C 1063.63 297.95 1066.11 298.62 1068.60 299.29 C 1068.44 296.22 1069.81 292.63 1070.39 289.60 C 1070.98 286.46 1071.63 283.32 1072.35 280.21 C 1073.94 273.36 1076.20 266.70 1077.83 259.86 C 1079.33 253.58 1081.49 247.66 1083.58 241.56 C 1085.86 234.91 1087.86 228.08 1090.64 221.63 C 1092.65 216.95 1085.76 212.87 1083.73 217.59 Z" fill="#315bf4" fill-rule="nonzero" node-id="154" stroke="none" target-height="94.006" target-width="78.70007" target-x="1060.45" target-y="210.886"></path><path d="M 1071.75 964.57 L 1341.54 964.57 C 1358.92 964.57 1373.14 978.79 1373.14 996.17 L 1373.14 1197.97 C 1373.14 1215.35 1358.92 1229.57 1341.54 1229.57 L 1071.75 1229.57 C 1054.36 1229.57 1040.14 1215.35 1040.14 1197.97 L 1040.14 996.17 C 1040.14 978.79 1054.36 964.57 1071.75 964.57 Z" fill="#d2e9fe" fill-rule="nonzero" node-id="156" stroke="none" target-height="264.99994" target-width="333" target-x="1040.14" target-y="964.57"></path><path d="M 1211.14 1189.57 C 1258.09 1189.57 1296.14 1151.51 1296.14 1104.57 C 1296.14 1057.63 1258.09 1019.57 1211.14 1019.57 C 1164.20 1019.57 1126.14 1057.63 1126.14 1104.57 C 1126.14 1151.51 1164.20 1189.57 1211.14 1189.57 Z" fill="#ffffff" fill-rule="nonzero" node-id="158" stroke="none" target-height="169.99994" target-width="170" target-x="1126.14" target-y="1019.57"></path><path d="M 1207.14 1111.57 C 1222.05 1111.57 1234.14 1099.48 1234.14 1084.57 C 1234.14 1069.66 1222.05 1057.57 1207.14 1057.57 C 1192.23 1057.57 1180.14 1069.66 1180.14 1084.57 C 1180.14 1099.48 1192.23 1111.57 1207.14 1111.57 Z" fill="#315bf4" fill-rule="nonzero" node-id="160" stroke="none" target-height="54" target-width="54" target-x="1180.14" target-y="1057.57"></path><path d="M 1168.14 1177.57 C 1168.14 1177.57 1168.14 1116.57 1209.14 1116.57 C 1250.14 1116.57 1247.14 1181.57 1247.14 1181.57 C 1247.14 1181.57 1207.14 1204.57 1168.14 1177.57 Z" fill="#315bf4" fill-rule="nonzero" node-id="162" stroke="none" target-height="88" target-width="82" target-x="1168.14" target-y="1116.57"></path><path d="M 1271.14 1053.57 C 1280.53 1053.57 1288.14 1045.96 1288.14 1036.57 C 1288.14 1027.18 1280.53 1019.57 1271.14 1019.57 C 1261.75 1019.57 1254.14 1027.18 1254.14 1036.57 C 1254.14 1045.96 1261.75 1053.57 1271.14 1053.57 Z" fill="#ff3f08" fill-rule="nonzero" node-id="164" stroke="none" target-height="33.99994" target-width="34" target-x="1254.14" target-y="1019.57"></path><path d="M 828.11 337.52 C 824.80 331.93 818.53 329.19 815.91 323.15 C 813.22 316.94 812.21 310.10 809.58 303.84 C 807.88 299.80 805.85 295.94 803.77 292.10 C 804.98 290.03 805.27 287.48 804.87 284.94 C 804.02 279.57 802.73 274.35 801.00 269.20 C 799.44 264.59 795.40 262.58 791.57 262.88 C 790.49 259.11 789.45 255.32 788.46 251.52 C 787.24 246.80 783.65 244.89 780.04 245.09 C 778.71 242.36 777.45 239.60 776.25 236.82 C 780.21 232.12 781.67 224.53 782.32 218.96 C 783.50 208.77 781.23 198.72 776.75 189.59 C 776.31 188.69 775.68 187.94 774.94 187.31 C 773.38 184.75 771.02 182.53 767.65 180.89 C 766.50 180.32 765.29 179.93 764.08 179.69 C 763.97 179.52 763.86 179.35 763.74 179.19 C 768.07 180.22 772.60 180.54 777.18 180.00 C 788.73 178.65 788.75 163.36 777.18 162.00 C 772.42 161.45 767.61 152.74 765.11 149.45 C 759.84 142.52 754.58 135.59 749.31 128.65 C 748.39 127.43 747.28 126.40 746.04 125.64 C 746.73 118.78 740.04 112.53 732.84 116.57 C 726.58 120.07 720.38 123.73 714.03 127.06 C 710.78 128.77 705.93 131.39 701.66 131.40 C 699.31 129.99 696.59 129.26 693.83 129.56 C 691.17 129.85 688.73 130.88 687.05 132.72 C 685.23 131.74 683.10 131.47 681.07 131.79 C 678.24 128.47 674.38 126.33 669.29 125.69 C 662.92 124.90 659.75 132.04 660.61 137.09 C 661.80 144.08 662.72 151.10 663.40 158.15 C 661.94 161.25 660.55 164.38 659.23 167.53 C 657.48 168.15 655.91 169.45 654.88 171.60 C 650.74 180.28 646.53 188.92 642.28 197.53 C 634.86 198.97 629.34 207.66 625.43 214.19 C 623.28 217.79 621.42 221.51 619.84 225.32 C 614.13 233.78 610.63 243.70 609.86 253.88 C 608.23 260.10 607.38 266.52 607.35 273.06 C 607.34 275.31 608.21 277.24 609.57 278.74 C 607.89 281.88 607.97 285.79 611.29 288.73 C 622.92 299.00 636.16 306.75 650.80 311.74 C 653.95 313.74 657.23 314.94 660.60 315.69 C 660.15 320.21 662.98 318.96 669.23 319.37 C 683.21 320.28 696.30 321.41 706.99 312.55 C 707.86 311.82 708.50 311.01 708.95 310.16 C 713.29 311.91 717.83 313.08 722.50 313.68 C 725.16 316.88 728.31 319.61 731.80 321.79 C 734.89 328.35 739.55 333.62 745.25 338.04 C 747.39 343.20 749.54 348.37 751.68 353.53 C 752.59 355.73 753.46 357.99 754.39 360.21 C 754.63 361.19 754.85 362.16 755.07 363.12 C 755.51 365.06 756.69 366.67 758.23 367.81 C 759.43 369.69 760.82 371.44 762.51 372.98 C 765.44 375.64 769.22 377.47 773.23 377.51 C 775.02 377.53 776.89 377.26 778.55 376.59 C 780.33 375.87 781.18 374.18 782.70 373.36 C 784.88 372.19 787.73 372.10 790.16 371.86 C 794.28 371.44 798.40 370.96 802.38 369.78 C 814.61 366.18 837.43 353.29 828.11 337.52 Z" fill="#ffffff" fill-rule="nonzero" node-id="166" stroke="none" target-height="265.00198" target-width="230.086" target-x="607.341" target-y="112.531"></path><path d="M 812.29 613.43 C 808.73 610.07 803.36 609.80 797.99 610.35 C 796.78 609.63 795.57 608.91 794.41 608.09 C 791.89 606.29 790.18 603.77 788.23 601.40 C 784.89 597.34 780.96 594.39 776.44 593.08 C 775.90 589.63 772.95 586.41 769.76 585.54 C 764.59 584.12 760.55 587.31 758.69 591.82 C 755.85 598.71 751.17 604.57 749.07 611.83 C 746.84 619.55 747.38 628.01 752.19 634.64 C 752.88 635.59 753.63 636.46 754.43 637.29 C 753.78 642.28 754.04 647.09 758.45 651.34 C 765.71 658.35 780.11 655.26 788.64 652.64 C 791.07 651.89 792.73 650.47 793.74 648.74 C 799.75 646.16 805.57 641.18 808.55 635.46 C 809.95 632.79 810.47 629.97 810.28 627.21 C 814.91 624.27 817.15 618.02 812.29 613.43 Z" fill="#ffffff" fill-rule="nonzero" node-id="168" stroke="none" target-height="74.23401" target-width="70.31201" target-x="746.841" target-y="584.118"></path><path d="M 979.10 501.97 C 979.40 499.46 979.57 496.92 979.58 494.36 C 979.59 493.19 979.34 492.10 978.90 491.11 C 978.93 490.70 978.93 490.29 978.89 489.85 C 978.24 481.83 976.75 473.96 974.42 466.38 C 974.95 463.55 973.95 460.56 972.02 458.07 C 971.62 457.56 971.23 457.04 970.84 456.51 C 968.18 450.18 964.87 444.10 960.91 438.36 C 958.38 434.68 957.29 432.61 953.00 434.50 C 953.00 434.50 950.49 434.77 950.39 434.81 C 956.01 431.45 948.63 431.09 948.25 430.73 C 940.34 417.47 928.87 409.64 920.47 396.67 C 921.40 393.71 921.05 390.29 918.69 387.57 C 912.11 379.97 903.46 374.72 894.73 369.93 C 888.35 366.43 881.96 362.94 875.57 359.46 C 871.31 356.71 867.06 353.96 862.80 351.21 C 861.46 350.35 860.08 349.94 858.72 349.88 C 858.03 347.07 855.83 344.63 853.15 343.58 C 851.78 337.88 846.41 333.54 840.32 335.38 C 838.83 335.82 837.53 336.65 836.47 337.72 C 831.83 334.94 825.18 335.94 823.48 342.73 C 821.48 350.73 816.57 357.05 810.33 361.93 C 806.21 364.30 801.92 366.43 797.51 368.17 C 785.50 372.90 770.98 375.99 758.77 370.22 C 758.53 370.11 758.29 370.01 758.05 369.92 L 757.55 368.55 C 756.08 364.51 752.58 361.63 748.18 362.05 C 746.87 357.91 743.03 354.78 737.72 356.61 C 729.32 359.50 725.99 367.24 721.94 374.51 C 718.10 381.43 715.09 383.95 711.50 391.00 C 711.50 391.00 706.17 397.12 704.56 399.72 C 688.13 426.26 676.28 455.57 669.72 486.08 C 663.53 505.13 658.95 524.63 656.01 544.45 C 655.74 546.27 655.85 548.10 656.36 549.74 C 655.87 552.30 655.35 554.86 654.81 557.42 C 653.46 558.97 652.60 560.90 652.48 562.96 C 650.51 568.15 654.84 575.07 661.04 575.50 C 676.17 576.56 691.32 577.17 706.49 577.25 C 714.40 577.29 722.31 577.20 730.22 576.97 C 733.85 576.86 739.88 577.13 743.50 576.97 C 747.31 576.80 752.58 576.56 762.50 576.97 C 762.50 573.00 760.84 566.11 761.92 560.40 C 764.59 560.41 767.35 559.14 769.43 556.08 L 777.93 543.60 C 775.26 549.55 772.28 555.34 767.26 559.72 C 761.80 564.49 764.71 571.19 769.86 573.74 C 770.26 574.70 770.80 575.63 771.53 576.52 C 773.07 578.40 774.71 580.20 776.41 581.93 C 780.55 593.41 789.47 602.42 801.73 606.34 C 803.99 607.06 805.97 606.90 807.62 606.17 C 821.24 611.48 836.28 614.80 849.24 605.79 C 855.19 606.01 861.12 605.55 866.90 604.37 C 868.62 605.22 870.64 605.50 872.81 604.87 C 899.24 597.28 924.33 585.38 946.80 569.53 C 949.31 567.76 950.62 565.54 950.99 563.30 C 952.46 562.98 953.88 562.31 955.13 561.25 C 964.18 553.58 971.84 544.04 977.16 533.43 C 982.21 523.38 986.34 511.67 979.10 501.97 Z" fill="#398cff" fill-rule="nonzero" node-id="170" stroke="none" target-height="281.25803" target-width="335.823" target-x="650.513" target-y="333.538"></path><path d="M 876.02 158.32 C 868.19 151.91 859.19 147.03 849.51 143.80 C 850.50 142.81 851.47 141.80 852.42 140.76 C 855.19 137.74 855.53 134.36 854.43 131.56 C 863.47 113.73 868.36 93.48 856.89 75.23 C 855.44 72.92 853.15 71.61 850.72 71.19 C 852.87 67.90 853.11 63.51 849.48 60.39 C 845.71 57.15 841.62 54.72 837.33 52.63 C 829.09 45.11 818.58 40.27 807.10 40.97 C 806.68 41.00 806.29 41.05 805.90 41.12 C 804.42 40.77 802.94 40.45 801.44 40.19 C 797.76 39.55 794.08 39.19 790.43 39.09 C 788.08 36.08 783.94 34.64 779.31 37.11 C 776.25 38.74 773.19 40.38 770.13 42.01 C 768.30 42.64 766.50 43.36 764.74 44.20 C 761.87 42.73 758.24 42.93 754.96 46.07 C 753.37 47.58 751.74 49.02 750.07 50.41 C 747.69 44.81 744.58 39.27 742.27 34.12 C 740.38 29.90 736.48 28.90 732.92 29.92 C 725.92 18.25 716.17 8.85 701.57 5.34 C 677.41 -0.47 653.42 12.10 641.29 33.07 C 628.17 45.09 620.41 61.65 620.65 79.85 C 620.72 84.47 623.41 87.26 626.77 88.17 C 627.27 91.23 628.06 94.24 629.22 97.15 C 633.83 108.77 642.98 116.67 654.51 121.04 C 668.52 126.34 682.86 124.64 696.78 120.47 C 711.71 124.73 727.45 118.38 735.92 105.53 C 736.21 105.09 736.45 104.65 736.64 104.21 C 742.60 99.80 747.70 94.35 750.72 87.42 C 751.31 86.07 751.67 84.67 751.76 83.29 C 751.93 83.23 752.09 83.17 752.26 83.11 C 753.58 83.94 755.10 84.41 756.64 84.23 C 758.63 83.99 758.22 84.98 760.14 84.57 C 759.30 86.19 760.88 86.51 760.15 88.17 C 759.79 88.94 759.45 89.72 759.10 90.49 C 758.88 90.76 758.67 91.04 758.48 91.33 C 753.50 99.15 749.98 108.21 749.11 117.49 C 748.66 122.25 749.86 127.73 752.88 131.53 C 752.22 133.59 752.39 136.01 753.83 138.59 C 756.17 142.79 759.09 146.55 762.47 149.81 C 762.65 152.40 763.99 154.84 766.87 156.28 C 771.32 158.51 775.93 160.01 780.60 160.81 C 781.37 161.08 782.15 161.32 782.93 161.55 C 784.94 162.12 786.73 162.03 788.26 161.50 C 794.12 161.53 799.99 160.45 805.66 158.28 C 806.34 159.09 807.18 159.76 808.12 160.30 C 800.18 166.01 792.79 172.46 786.10 179.62 C 782.33 183.64 782.59 191.00 787.92 193.75 C 790.04 194.85 789.88 198.16 789.97 200.42 C 790.16 205.45 790.13 210.56 789.79 215.58 C 789.44 220.52 788.43 225.28 786.63 229.91 C 784.74 234.78 782.92 239.63 784.24 244.94 C 786.60 254.48 798.30 260.04 806.56 263.48 C 806.62 263.50 806.68 263.52 806.73 263.55 C 807.09 266.94 809.14 270.20 812.99 271.44 C 813.47 271.60 813.96 271.74 814.45 271.88 C 812.27 272.00 810.12 272.85 808.53 274.44 C 805.04 277.94 805.14 283.66 808.53 287.17 C 808.67 287.31 808.77 287.43 808.86 287.52 C 809.03 287.84 809.14 288.02 809.17 288.04 C 809.27 288.36 809.39 288.68 809.46 289.01 C 809.48 289.36 809.50 289.71 809.48 290.06 C 809.47 290.11 809.46 290.15 809.45 290.21 C 809.34 290.55 809.27 290.78 809.23 290.91 C 809.04 291.25 808.84 291.59 808.61 291.91 C 806.18 295.62 807.51 300.97 810.93 303.52 C 814.26 306.01 819.81 306.29 822.74 302.82 C 826.96 297.82 830.06 292.38 831.82 286.05 C 833.83 278.89 827.42 274.37 821.74 274.98 C 821.58 274.80 821.43 274.61 821.26 274.44 C 820.72 273.88 820.12 273.43 819.47 273.06 C 828.14 274.63 837.24 273.99 845.62 271.21 C 847.93 272.25 850.67 272.27 853.32 270.60 C 854.10 270.10 854.89 269.60 855.69 269.09 C 857.57 270.71 860.22 271.40 863.44 270.37 C 873.35 267.18 878.56 258.54 882.09 249.20 C 891.65 240.01 899.14 229.11 901.94 215.28 C 906.27 193.88 898.77 165.55 876.02 158.32 Z" fill="#ff3f08" fill-rule="nonzero" node-id="172" stroke="none" target-height="306.75925" target-width="285.864" target-x="620.41" target-y="-0.465254"></path><path d="M 741.64 89.07 C 741.57 90.00 742.04 87.90 741.53 89.56 C 741.34 90.17 741.18 90.77 740.96 91.37 C 740.95 91.42 740.38 92.63 739.66 93.83 C 738.09 96.46 736.67 98.09 734.28 100.41 C 728.31 106.22 720.73 110.34 712.82 112.85 C 685.62 121.48 657.09 111.56 633.67 97.39 C 627.05 93.38 621.01 103.75 627.62 107.75 C 649.85 121.21 675.87 130.75 702.21 127.36 C 718.24 125.30 734.73 118.49 745.49 106.02 C 749.67 101.16 753.12 95.59 753.64 89.07 C 754.27 81.37 742.26 81.41 741.64 89.07 Z" fill="#ffffff" fill-rule="nonzero" node-id="174" stroke="none" target-height="49.38241" target-width="133.25702" target-x="621.009" target-y="81.3726"></path><path d="M 748.14 95.07 C 746.25 111.84 747.01 130.31 755.22 145.44 C 764.96 163.40 784.26 169.36 803.64 167.07 C 811.22 166.18 811.31 154.17 803.64 155.07 C 787.48 156.98 772.23 153.26 764.71 137.68 C 758.45 124.73 758.57 109.05 760.14 95.07 C 761.01 87.41 749.00 87.47 748.14 95.07 Z" fill="#ffffff" fill-rule="nonzero" node-id="176" stroke="none" target-height="81.950096" target-width="65.05798" target-x="746.252" target-y="87.4089"></path><path d="M 777.96 188.60 C 782.75 195.73 785.17 205.15 786.51 213.51 C 787.62 220.39 788.81 232.26 780.05 234.28 C 772.53 236.02 775.71 247.59 783.24 245.86 C 796.96 242.69 800.11 228.27 798.86 216.03 C 797.72 204.87 794.67 192.00 788.32 182.54 C 784.04 176.16 773.64 182.16 777.96 188.60 Z" fill="#ffffff" fill-rule="nonzero" node-id="178" stroke="none" target-height="71.43201" target-width="27.57898" target-x="772.526" target-y="176.161"></path><path d="M 784.81 418.24 C 785.31 444.41 796.00 471.54 814.40 490.31 C 819.82 495.84 828.30 487.35 822.89 481.83 C 806.70 465.31 797.25 441.26 796.81 418.24 C 796.66 410.52 784.66 410.50 784.81 418.24 Z" fill="#ffffff" fill-rule="nonzero" node-id="180" stroke="none" target-height="85.33902" target-width="43.633972" target-x="784.663" target-y="410.499"></path><path d="M 941.40 431.31 C 957.71 446.83 970.08 467.03 973.72 489.47 C 977.85 514.93 967.79 538.75 949.90 556.66 C 944.43 562.13 952.92 570.62 958.38 565.14 C 978.77 544.74 989.74 517.78 985.67 488.88 C 982.12 463.55 968.25 440.30 949.88 422.83 C 944.29 417.50 935.79 425.98 941.40 431.31 Z" fill="#ffffff" fill-rule="nonzero" node-id="182" stroke="none" target-height="153.11298" target-width="53.942993" target-x="935.792" target-y="417.505"></path><path d="M 898.64 201.07 C 900.83 223.35 882.17 242.10 864.44 252.53 C 846.81 262.89 820.53 270.14 802.89 255.83 C 796.94 251.01 788.40 259.45 794.40 264.31 C 828.62 292.06 882.74 265.28 902.73 232.10 C 908.32 222.84 911.71 211.96 910.64 201.07 C 909.90 193.46 897.89 193.38 898.64 201.07 Z" fill="#ffffff" fill-rule="nonzero" node-id="184" stroke="none" target-height="98.68599" target-width="123.31201" target-x="788.398" target-y="193.377"></path><path d="M 757.25 41.79 C 743.74 15.94 714.82 0.04 685.91 0.29 C 653.71 0.58 628.00 21.61 618.60 52.00 C 610.82 77.17 615.32 103.80 637.62 119.68 C 656.85 133.37 683.05 135.72 705.73 131.87 C 727.67 128.14 754.28 115.37 757.91 90.80 C 758.43 87.30 757.04 83.86 753.37 82.80 C 750.32 81.93 745.89 83.88 745.38 87.34 C 744.15 95.64 740.57 101.01 733.98 106.47 C 727.67 111.70 718.67 115.46 710.02 117.69 C 691.55 122.43 669.68 121.79 652.55 113.41 C 634.39 104.53 625.37 87.92 628.35 67.36 C 632.23 40.60 650.37 17.52 678.07 13.80 C 705.04 10.17 733.39 24.17 746.03 48.35 C 749.91 55.77 761.13 49.20 757.25 41.79 Z" fill="#000000" fill-rule="nonzero" node-id="186" stroke="none" target-height="135.68292" target-width="150.31403" target-x="610.816" target-y="0.0370842"></path><path d="M 757.92 51.68 C 777.30 36.85 801.62 35.64 822.86 47.45 C 841.63 57.90 857.75 77.55 859.72 99.54 C 860.88 112.55 856.94 124.48 849.03 134.79 C 846.88 137.60 848.62 142.04 851.36 143.68 C 854.69 145.67 858.13 144.12 860.26 141.35 C 896.46 94.13 848.72 29.25 795.95 26.29 C 779.88 25.39 764.08 30.72 751.36 40.46 C 748.55 42.61 747.14 46.03 749.03 49.35 C 750.60 52.11 755.14 53.81 757.92 51.68 Z" fill="#000000" fill-rule="nonzero" node-id="188" stroke="none" target-height="120.285995" target-width="149.31598" target-x="747.141" target-y="25.388"></path><path d="M 750.03 83.79 C 738.21 101.92 739.29 126.57 749.08 145.32 C 759.70 165.66 781.10 175.79 803.37 169.34 C 811.39 167.02 807.98 154.47 799.91 156.80 C 762.83 167.55 743.47 117.64 761.25 90.35 C 765.84 83.32 754.59 76.80 750.03 83.79 Z" fill="#000000" fill-rule="nonzero" node-id="190" stroke="none" target-height="98.992" target-width="73.18097" target-x="738.21" target-y="76.801"></path><path d="M 850.91 148.34 C 875.57 154.52 894.80 172.98 897.92 198.70 C 900.72 221.78 890.76 246.29 871.06 259.29 C 857.83 268.03 842.27 270.71 826.64 269.57 C 818.30 268.97 818.33 281.97 826.64 282.57 C 857.89 284.84 888.62 270.79 902.94 242.06 C 915.23 217.41 914.34 186.19 897.66 163.71 C 887.03 149.37 871.58 140.12 854.37 135.80 C 846.25 133.77 842.79 146.30 850.91 148.34 Z" fill="#000000" fill-rule="nonzero" node-id="192" stroke="none" target-height="151.07098" target-width="96.93298" target-x="818.296" target-y="133.768"></path><path d="M 770.57 244.71 C 783.28 272.39 812.28 285.05 841.64 283.57 C 849.97 283.15 850.02 270.15 841.64 270.57 C 816.40 271.84 792.72 261.95 781.79 238.15 C 778.31 230.56 767.10 237.15 770.57 244.71 Z" fill="#000000" fill-rule="nonzero" node-id="194" stroke="none" target-height="54.494995" target-width="82.922" target-x="767.097" target-y="230.555"></path><path d="M 802.20 155.96 C 790.18 161.85 780.22 170.84 773.33 182.34 C 769.02 189.53 780.26 196.08 784.55 188.90 C 790.36 179.20 798.65 172.14 808.76 167.18 C 816.27 163.50 809.69 152.28 802.20 155.96 Z" fill="#000000" fill-rule="nonzero" node-id="196" stroke="none" target-height="43.79599" target-width="47.246033" target-x="769.021" target-y="152.283"></path><path d="M 624.91 119.34 C 635.41 123.41 648.51 129.46 653.32 140.50 C 656.42 147.64 654.66 155.65 651.55 162.60 C 643.91 179.67 629.84 192.54 619.61 207.90 C 604.36 230.81 586.31 261.26 601.41 288.65 C 614.57 312.53 665.50 330.00 696.91 320.34 C 712.00 313.50 701.50 306.50 698.37 308.80 C 660.50 312.50 624.97 303.07 613.21 283.10 C 609.76 277.24 608.49 271.36 608.73 264.60 C 608.96 258.41 610.89 251.42 613.55 244.89 C 618.15 233.60 625.98 220.84 633.70 210.42 C 645.01 195.14 658.87 181.18 665.35 162.91 C 668.91 152.87 668.95 141.81 663.72 132.33 C 656.46 119.18 641.78 112.00 628.37 106.80 C 620.57 103.78 617.19 116.34 624.91 119.34 Z" fill="#000000" fill-rule="nonzero" node-id="198" stroke="none" target-height="226.225" target-width="125.69098" target-x="586.309" target-y="103.775"></path><path d="M 702.64 318.57 C 716.10 319.85 726.53 332.51 733.59 342.88 C 739.74 351.91 744.61 361.63 749.20 371.52 C 752.71 379.10 763.92 372.51 760.42 364.96 C 749.21 340.79 732.45 308.40 702.64 305.57 C 694.32 304.78 694.37 317.79 702.64 318.57 Z" fill="#000000" fill-rule="nonzero" node-id="200" stroke="none" target-height="74.32001" target-width="69.60504" target-x="694.319" target-y="304.781"></path><path d="M 800.38 281.80 C 804.14 300.69 807.80 319.64 814.38 337.80 C 817.20 345.60 829.77 342.23 826.91 334.34 C 820.33 316.19 816.68 297.23 812.91 278.34 C 811.28 270.14 798.74 273.62 800.38 281.80 Z" fill="#000000" fill-rule="nonzero" node-id="202" stroke="none" target-height="75.458984" target-width="31.026978" target-x="798.744" target-y="270.144"></path><path d="M 759.24 192.67 C 761.55 190.47 763.82 188.93 765.99 188.27 C 766.42 188.14 768.47 187.94 766.87 188.04 C 767.43 188.00 768.05 187.94 768.62 188.03 C 767.02 187.78 771.30 189.00 769.80 188.30 C 772.30 189.47 773.24 190.44 774.71 192.38 C 774.78 192.48 776.12 194.57 776.60 195.43 C 777.46 196.97 778.04 198.29 778.32 199.03 C 780.83 205.69 781.67 210.88 781.39 217.77 C 781.25 221.16 781.10 222.51 779.96 226.11 C 779.28 228.27 779.72 227.40 778.69 229.16 C 778.36 229.73 778.03 230.30 777.67 230.85 C 776.91 232.00 778.03 230.69 776.82 231.90 C 774.93 233.79 773.67 234.49 771.40 234.84 C 768.29 235.33 764.36 234.34 760.37 232.80 C 752.55 229.80 749.17 242.36 756.91 245.34 C 765.59 248.67 775.63 249.28 783.36 243.40 C 790.24 238.16 793.15 229.70 794.10 221.38 C 795.79 206.51 791.29 184.94 776.80 177.29 C 767.24 172.24 757.31 176.58 750.04 183.47 C 743.97 189.25 753.17 198.43 759.24 192.67 Z" fill="#000000" fill-rule="nonzero" node-id="204" stroke="none" target-height="77.041" target-width="51.82202" target-x="743.969" target-y="172.24"></path><path d="M 683.21 183.30 C 684.59 189.95 685.96 196.60 687.34 203.25 C 688.09 206.88 692.07 208.40 695.34 207.78 C 702.60 206.43 705.00 199.28 702.75 192.86 C 701.77 190.04 700.29 187.41 698.73 184.87 C 698.17 183.96 697.58 183.07 697.02 182.15 C 696.83 181.84 696.53 181.14 696.26 180.88 C 695.67 180.33 696.62 182.31 696.64 182.90 C 696.31 174.57 683.31 174.52 683.64 182.90 C 683.79 186.59 686.46 189.63 688.26 192.67 C 689.14 194.16 690.11 196.11 690.44 196.95 C 690.60 197.33 690.60 197.80 690.77 198.17 C 690.43 197.44 690.58 198.10 690.74 197.76 C 691.11 197.00 691.38 196.22 691.97 195.55 C 692.30 195.18 693.27 194.99 691.88 195.25 C 694.54 196.76 697.21 198.28 699.88 199.79 C 698.50 193.14 697.12 186.49 695.75 179.84 C 694.05 171.66 681.51 175.12 683.21 183.30 Z" fill="#000000" fill-rule="nonzero" node-id="206" stroke="none" target-height="36.740005" target-width="23.484985" target-x="681.515" target-y="171.655"></path><path d="M 607.53 251.85 C 620.68 257.71 633.62 259.52 647.37 254.34 C 655.13 251.42 651.77 238.85 643.91 241.80 C 633.53 245.71 624.16 245.12 614.09 240.63 C 606.51 237.25 599.89 248.45 607.53 251.85 Z" fill="#000000" fill-rule="nonzero" node-id="208" stroke="none" target-height="22.271011" target-width="55.23401" target-x="599.894" target-y="237.248"></path><path d="M 734.21 345.64 C 711.13 368.21 693.64 396.25 680.03 425.36 C 665.45 456.52 654.71 489.62 648.68 523.49 C 645.58 540.89 643.66 558.55 643.64 576.24 C 643.63 584.60 656.63 584.61 656.64 576.24 C 656.67 545.09 662.49 514.12 671.40 484.35 C 680.85 452.75 694.08 422.07 711.86 394.24 C 720.95 380.00 731.32 366.65 743.40 354.83 C 749.40 348.97 740.20 339.79 734.21 345.64 Z" fill="#000000" fill-rule="nonzero" node-id="210" stroke="none" target-height="244.82901" target-width="105.765015" target-x="643.633" target-y="339.785"></path><path d="M 836.88 272.31 C 824.01 283.37 814.84 300.47 814.31 317.57 C 814.05 325.94 827.05 325.93 827.31 317.57 C 827.73 303.76 835.79 290.34 846.07 281.50 C 852.43 276.04 843.20 266.88 836.88 272.31 Z" fill="#000000" fill-rule="nonzero" node-id="212" stroke="none" target-height="59.06299" target-width="38.373047" target-x="814.053" target-y="266.876"></path><path d="M 829.91 339.34 C 859.40 346.14 884.74 366.82 906.22 387.18 C 926.41 406.31 944.92 427.50 961.27 450.01 C 964.98 455.11 969.11 460.33 971.88 466.03 C 978.00 478.56 980.39 494.99 978.60 509.14 C 974.98 537.79 953.99 560.56 930.55 575.57 C 900.57 594.76 864.33 604.91 828.81 605.07 C 820.45 605.11 820.43 618.11 828.81 618.07 C 862.97 617.91 897.56 609.01 927.49 592.52 C 954.80 577.46 979.95 554.25 988.82 523.47 C 995.84 499.12 991.69 471.23 977.36 450.32 C 961.85 427.68 943.86 406.43 924.56 386.94 C 899.48 361.61 869.03 335.03 833.37 326.80 C 825.23 324.93 821.75 337.46 829.91 339.34 Z" fill="#000000" fill-rule="nonzero" node-id="214" stroke="none" target-height="293.18298" target-width="175.40796" target-x="820.429" target-y="324.925"></path><path d="M 879.64 456.57 C 850.48 458.76 826.20 478.88 807.10 499.53 C 794.28 513.40 783.38 529.05 772.19 544.23 C 767.14 551.09 761.98 557.91 757.20 564.96 C 752.49 571.90 763.75 578.41 768.42 571.52 C 777.67 557.90 787.77 544.79 797.67 531.63 C 809.61 515.76 822.50 500.44 838.38 488.03 C 850.25 478.74 864.33 470.72 879.64 469.57 C 887.93 468.95 888.00 455.94 879.64 456.57 Z" fill="#000000" fill-rule="nonzero" node-id="216" stroke="none" target-height="122.466" target-width="135.51599" target-x="752.486" target-y="455.943"></path><path d="M 757.03 571.35 C 764.47 585.53 773.96 599.07 787.64 607.83 C 802.18 617.15 819.76 619.15 836.64 617.57 C 844.90 616.80 844.98 603.79 836.64 604.57 C 821.90 605.95 806.94 604.77 794.20 596.60 C 782.43 589.07 774.62 576.92 768.26 564.79 C 764.37 557.38 753.14 563.94 757.03 571.35 Z" fill="#000000" fill-rule="nonzero" node-id="218" stroke="none" target-height="61.773987" target-width="91.83801" target-x="753.144" target-y="557.378"></path><path d="M 779.14 418.07 C 779.09 433.24 784.15 448.45 789.91 462.30 C 795.74 476.29 802.81 490.33 813.05 501.67 C 818.67 507.89 827.84 498.67 822.24 492.47 C 813.27 482.55 806.94 469.76 801.89 457.48 C 796.81 445.16 792.09 431.55 792.14 418.07 C 792.17 409.70 779.17 409.69 779.14 418.07 Z" fill="#000000" fill-rule="nonzero" node-id="220" stroke="none" target-height="98.196014" target-width="48.748962" target-x="779.088" target-y="409.692"></path><path d="M 757.05 580.48 C 747.46 591.84 739.32 605.14 738.43 620.34 C 737.79 631.23 741.84 641.96 749.37 649.81 C 762.87 663.91 787.32 668.39 803.70 656.65 C 815.25 648.38 819.82 634.84 820.14 621.07 C 820.34 612.70 807.34 612.71 807.14 621.07 C 806.93 630.18 804.52 638.61 798.20 644.50 C 793.43 648.95 786.59 650.69 779.58 650.30 C 765.76 649.54 752.00 638.74 751.39 623.94 C 750.86 611.14 758.20 599.20 766.24 589.67 C 771.60 583.31 762.45 574.07 757.05 580.48 Z" fill="#000000" fill-rule="nonzero" node-id="222" stroke="none" target-height="94.31598" target-width="82.55005" target-x="737.79" target-y="574.07"></path></svg>